SplineFontDB: 3.0
FontName: TitilliumWeb-Bold
FullName: Titillium WebBold
FamilyName: Titillium Web
Weight: Bold
Copyright: Copyright (c) 2009-2011 by Accademia di Belle Arti di Urbino and students of MA course of Visual design. Some rights reserved.
Version: 1.001;PS 57.000;hotconv 1.0.70;makeotf.lib2.5.55311
ItalicAngle: 0
UnderlinePosition: -80
UnderlineWidth: 30
Ascent: 800
Descent: 200
sfntRevision: 0x00010000
LayerCount: 2
Layer: 0 1 "Back"  1
Layer: 1 1 "Fore"  0
XUID: [1021 633 605169297 3811532]
FSType: 8
OS2Version: 3
OS2_WeightWidthSlopeOnly: 0
OS2_UseTypoMetrics: 1
CreationTime: 1349090286
ModificationTime: 1349108892
PfmFamily: 81
TTFWeight: 700
TTFWidth: 5
LineGap: 0
VLineGap: 0
Panose: 0 0 8 0 0 0 0 0 0 0
OS2TypoAscent: 1133
OS2TypoAOffset: 0
OS2TypoDescent: -388
OS2TypoDOffset: 0
OS2TypoLinegap: 0
OS2WinAscent: 1133
OS2WinAOffset: 0
OS2WinDescent: 388
OS2WinDOffset: 0
HheadAscent: 1133
HheadAOffset: 0
HheadDescent: -388
HheadDOffset: 0
OS2SubXSize: 650
OS2SubYSize: 600
OS2SubXOff: 0
OS2SubYOff: 75
OS2SupXSize: 650
OS2SupYSize: 600
OS2SupXOff: 0
OS2SupYOff: 350
OS2StrikeYSize: 30
OS2StrikeYPos: 300
OS2Vendor: 'UKWN'
OS2CodePages: 20000093.00000000
OS2UnicodeRanges: 00000007.00000001.00000000.00000000
Lookup: 1 0 0 "'locl' Localized Forms in Latin lookup 0"  {"'locl' Localized Forms in Latin lookup 0 subtable"  } ['locl' ('DFLT' <'dflt' > 'latn' <'dflt' > ) ]
Lookup: 1 0 0 "'frac' Diagonal Fractions in Latin lookup 1"  {"'frac' Diagonal Fractions in Latin lookup 1 subtable"  } ['frac' ('DFLT' <'dflt' > 'latn' <'dflt' > ) ]
Lookup: 6 0 0 "'frac' Diagonal Fractions in Latin lookup 2"  {"'frac' Diagonal Fractions in Latin lookup 2 subtable"  } ['frac' ('DFLT' <'dflt' > 'latn' <'dflt' > ) ]
Lookup: 1 0 0 "'frac' Diagonal Fractions in Latin lookup 3"  {"'frac' Diagonal Fractions in Latin lookup 3 subtable"  } ['frac' ('DFLT' <'dflt' > 'latn' <'dflt' > ) ]

StartChar: exclam
Encoding: 33 33 4
Width: 280
GlyphClass: 2
Flags: W
LayerCount: 2
Fore
SplineSet
68 0 m 1,0,-1
 68 161 l 1,1,-1
 212 161 l 1,2,-1
 212 0 l 1,3,-1
 68 0 l 1,0,-1
81 250 m 1,4,-1
 68 680 l 1,5,-1
 213 680 l 1,6,-1
 199 250 l 1,7,-1
 81 250 l 1,4,-1
EndSplineSet
EndChar

StartChar: quotedbl
Encoding: 34 34 5
Width: 411
GlyphClass: 2
Flags: W
LayerCount: 2
Fore
SplineSet
350 440 m 1,0,-1
 232 440 l 1,1,-1
 228 680 l 1,2,-1
 357 680 l 1,3,-1
 350 440 l 1,0,-1
178 440 m 1,4,-1
 60 440 l 1,5,-1
 55 680 l 1,6,-1
 184 680 l 1,7,-1
 178 440 l 1,4,-1
EndSplineSet
EndChar

StartChar: numbersign
Encoding: 35 35 6
Width: 560
GlyphClass: 2
Flags: W
LayerCount: 2
Fore
SplineSet
544 149 m 1,0,-1
 448 149 l 1,1,-1
 448 0 l 1,2,-1
 332 0 l 1,3,-1
 332 149 l 1,4,-1
 228 149 l 1,5,-1
 228 0 l 1,6,-1
 112 0 l 1,7,-1
 112 149 l 1,8,-1
 16 149 l 1,9,-1
 16 261 l 1,10,-1
 112 261 l 1,11,-1
 112 387 l 1,12,-1
 16 387 l 1,13,-1
 16 499 l 1,14,-1
 112 499 l 1,15,-1
 112 660 l 1,16,-1
 228 660 l 1,17,-1
 228 499 l 1,18,-1
 332 499 l 1,19,-1
 332 660 l 1,20,-1
 448 660 l 1,21,-1
 448 499 l 1,22,-1
 544 499 l 1,23,-1
 544 387 l 1,24,-1
 448 387 l 1,25,-1
 448 261 l 1,26,-1
 544 261 l 1,27,-1
 544 149 l 1,0,-1
332 261 m 1,28,-1
 332 387 l 1,29,-1
 228 387 l 1,30,-1
 228 261 l 1,31,-1
 332 261 l 1,28,-1
EndSplineSet
EndChar

StartChar: dollar
Encoding: 36 36 7
Width: 560
GlyphClass: 2
Flags: W
LayerCount: 2
Fore
SplineSet
508 199 m 0,0,1
 508 95 508 95 445 41.5 c 128,-1,2
 382 -12 382 -12 280 -12 c 2,3,-1
 279 -12 l 1,4,-1
 264 -130 l 1,5,6
 190 -127 190 -127 190 -123 c 2,7,-1
 204 -7 l 1,8,9
 130 2 130 2 80 14 c 1,10,-1
 60 18 l 1,11,-1
 73 122 l 1,12,13
 152 111 152 111 219 107 c 1,14,-1
 241 281 l 1,15,16
 138 312 138 312 95 356 c 128,-1,17
 52 400 52 400 52 476 c 0,18,19
 52 575 52 575 112 623.5 c 128,-1,20
 172 672 172 672 277 672 c 2,21,-1
 290 672 l 1,22,-1
 308 810 l 1,23,-1
 382 810 l 1,24,-1
 364 666 l 1,25,26
 426 660 426 660 478 650 c 1,27,-1
 495 646 l 1,28,-1
 484 540 l 1,29,30
 411 548 411 548 349 552 c 1,31,-1
 329 391 l 1,32,33
 433 358 433 358 470.5 318.5 c 128,-1,34
 508 279 508 279 508 199 c 0,0,1
185 485 m 0,35,36
 185 461 185 461 200 446 c 128,-1,37
 215 431 215 431 258 415 c 1,38,-1
 275 554 l 1,39,40
 185 550 185 550 185 485 c 0,35,36
375 190 m 0,41,42
 375 214 375 214 361.5 229.5 c 128,-1,43
 348 245 348 245 313 259 c 1,44,-1
 294 106 l 1,45,46
 375 115 375 115 375 190 c 0,41,42
EndSplineSet
EndChar

StartChar: percent
Encoding: 37 37 8
Width: 560
GlyphClass: 2
Flags: W
LayerCount: 2
Fore
SplineSet
125 -8 m 1,0,-1
 360 699 l 1,1,-1
 433 673 l 1,2,-1
 198 -32 l 1,3,-1
 125 -8 l 1,0,-1
134 672 m 128,-1,5
 254 672 254 672 254 526.5 c 128,-1,6
 254 381 254 381 134 381 c 128,-1,7
 14 381 14 381 14 526.5 c 128,-1,4
 14 672 14 672 134 672 c 128,-1,5
112 527 m 128,-1,9
 112 491 112 491 116.5 476 c 128,-1,10
 121 461 121 461 134 461 c 128,-1,11
 147 461 147 461 151.5 476 c 128,-1,12
 156 491 156 491 156 527 c 128,-1,13
 156 563 156 563 151.5 577.5 c 128,-1,14
 147 592 147 592 134 592 c 128,-1,15
 121 592 121 592 116.5 577.5 c 128,-1,8
 112 563 112 563 112 527 c 128,-1,9
426 279 m 128,-1,17
 546 279 546 279 546 133.5 c 128,-1,18
 546 -12 546 -12 426 -12 c 128,-1,19
 306 -12 306 -12 306 133.5 c 128,-1,16
 306 279 306 279 426 279 c 128,-1,17
404 134 m 128,-1,21
 404 98 404 98 408.5 83 c 128,-1,22
 413 68 413 68 426 68 c 128,-1,23
 439 68 439 68 443.5 83 c 128,-1,24
 448 98 448 98 448 134 c 128,-1,25
 448 170 448 170 443.5 184.5 c 128,-1,26
 439 199 439 199 426 199 c 128,-1,27
 413 199 413 199 408.5 184.5 c 128,-1,20
 404 170 404 170 404 134 c 128,-1,21
EndSplineSet
EndChar

StartChar: ampersand
Encoding: 38 38 9
Width: 701
GlyphClass: 2
Flags: W
LayerCount: 2
Fore
SplineSet
167 671.5 m 128,-1,1
 223 712 223 712 318.5 712 c 128,-1,2
 414 712 414 712 467 670.5 c 128,-1,3
 520 629 520 629 520 557 c 128,-1,4
 520 485 520 485 490 444 c 128,-1,5
 460 403 460 403 383 349 c 1,6,-1
 481 251 l 1,7,8
 487 266 487 266 493 309 c 128,-1,9
 499 352 499 352 500 379 c 1,10,-1
 630 376 l 1,11,12
 615 260 615 260 579 173 c 1,13,-1
 691 75 l 1,14,-1
 615 -12 l 1,15,-1
 509 75 l 1,16,17
 474 37 474 37 419.5 12.5 c 128,-1,18
 365 -12 365 -12 304 -12 c 0,19,20
 158 -12 158 -12 96.5 40.5 c 128,-1,21
 35 93 35 93 35 196 c 0,22,23
 35 277 35 277 69 323.5 c 128,-1,24
 103 370 103 370 177 399 c 1,25,26
 136 449 136 449 123.5 480 c 128,-1,27
 111 511 111 511 111 561 c 0,28,0
 111 631 111 631 167 671.5 c 128,-1,1
287 108 m 0,29,30
 327 108 327 108 365 119 c 128,-1,31
 403 130 403 130 418 148 c 1,32,-1
 245 321 l 1,33,34
 171 285 171 285 171 207 c 0,35,36
 171 108 171 108 287 108 c 0,29,30
247 531 m 0,37,38
 247 491 247 491 292 443 c 2,39,-1
 309 425 l 1,40,41
 350 455 350 455 367 478.5 c 128,-1,42
 384 502 384 502 384 535 c 0,43,44
 384 598 384 598 315.5 598 c 128,-1,45
 247 598 247 598 247 531 c 0,37,38
EndSplineSet
EndChar

StartChar: quotesingle
Encoding: 39 39 10
Width: 239
GlyphClass: 2
Flags: W
LayerCount: 2
Fore
SplineSet
60 440 m 1,0,-1
 56 680 l 1,1,-1
 185 680 l 1,2,-1
 178 440 l 1,3,-1
 60 440 l 1,0,-1
EndSplineSet
EndChar

StartChar: parenleft
Encoding: 40 40 11
Width: 308
GlyphClass: 2
Flags: W
LayerCount: 2
Fore
SplineSet
186 301 m 128,-1,1
 186 213 186 213 210 106.5 c 128,-1,2
 234 0 234 0 258 -62 c 1,3,-1
 281 -125 l 1,4,-1
 154 -125 l 1,5,6
 140 -103 140 -103 117 -51 c 128,-1,7
 94 1 94 1 78.5 48 c 128,-1,8
 63 95 63 95 50.5 164.5 c 128,-1,9
 38 234 38 234 38 301 c 128,-1,10
 38 368 38 368 50 439 c 128,-1,11
 62 510 62 510 79 563 c 0,12,13
 115 675 115 675 142 727 c 2,14,-1
 154 750 l 1,15,-1
 281 750 l 1,16,17
 247 663 247 663 216.5 526 c 128,-1,0
 186 389 186 389 186 301 c 128,-1,1
EndSplineSet
Substitution2: "'case' Case-Sensitive Forms in Latin lookup 4 subtable" parenleft.cap
EndChar

StartChar: parenright
Encoding: 41 41 12
Width: 308
GlyphClass: 2
Flags: W
LayerCount: 2
Fore
SplineSet
270 301 m 128,-1,1
 270 234 270 234 258 165.5 c 128,-1,2
 246 97 246 97 229 47 c 0,3,4
 193 -58 193 -58 166 -104 c 2,5,-1
 154 -125 l 1,6,-1
 27 -125 l 1,7,8
 61 -48 61 -48 91.5 82.5 c 128,-1,9
 122 213 122 213 122 301 c 128,-1,10
 122 389 122 389 98.5 501.5 c 128,-1,11
 75 614 75 614 51 682 c 2,12,-1
 27 750 l 1,13,-1
 154 750 l 1,14,15
 168 725 168 725 191 668.5 c 128,-1,16
 214 612 214 612 229.5 562 c 128,-1,17
 245 512 245 512 257.5 440 c 128,-1,0
 270 368 270 368 270 301 c 128,-1,1
EndSplineSet
Substitution2: "'case' Case-Sensitive Forms in Latin lookup 4 subtable" parenright.cap
EndChar

StartChar: asterisk
Encoding: 42 42 13
Width: 425
GlyphClass: 2
Flags: W
LayerCount: 2
Fore
SplineSet
389 499 m 1,0,-1
 266 499 l 1,1,-1
 304 379 l 1,2,-1
 231 357 l 1,3,-1
 190 478 l 1,4,-1
 87 399 l 1,5,-1
 40 458 l 1,6,-1
 145 536 l 1,7,-1
 43 609 l 1,8,-1
 89 672 l 1,9,-1
 190 599 l 1,10,-1
 229 720 l 1,11,-1
 304 695 l 1,12,-1
 266 573 l 1,13,-1
 389 573 l 1,14,-1
 389 499 l 1,0,-1
EndSplineSet
EndChar

StartChar: plus
Encoding: 43 43 14
Width: 560
GlyphClass: 2
Flags: W
LayerCount: 2
Fore
SplineSet
50 191 m 1,0,-1
 50 311 l 1,1,-1
 219 311 l 1,2,-1
 219 479 l 1,3,-1
 339 479 l 1,4,-1
 339 311 l 1,5,-1
 510 311 l 1,6,-1
 510 191 l 1,7,-1
 339 191 l 1,8,-1
 339 21 l 1,9,-1
 219 21 l 1,10,-1
 219 191 l 1,11,-1
 50 191 l 1,0,-1
EndSplineSet
EndChar

StartChar: comma
Encoding: 44 44 15
Width: 263
GlyphClass: 2
Flags: W
LayerCount: 2
Fore
SplineSet
20 -123 m 1,0,-1
 70 137 l 1,1,-1
 218 137 l 1,2,-1
 128 -123 l 1,3,-1
 20 -123 l 1,0,-1
EndSplineSet
EndChar

StartChar: hyphen
Encoding: 45 45 16
Width: 408
GlyphClass: 2
Flags: W
LayerCount: 2
Fore
SplineSet
56 205 m 1,0,-1
 56 327 l 1,1,-1
 352 327 l 1,2,-1
 352 205 l 1,3,-1
 56 205 l 1,0,-1
EndSplineSet
EndChar

StartChar: period
Encoding: 46 46 17
Width: 256
GlyphClass: 2
Flags: W
LayerCount: 2
Fore
SplineSet
56 0 m 1,0,-1
 56 166 l 1,1,-1
 200 166 l 1,2,-1
 200 0 l 1,3,-1
 56 0 l 1,0,-1
EndSplineSet
EndChar

StartChar: slash
Encoding: 47 47 18
Width: 466
GlyphClass: 2
Flags: W
LayerCount: 2
Fore
SplineSet
31 8 m 1,0,-1
 319 718 l 1,1,-1
 437 676 l 1,2,-1
 149 -34 l 1,3,-1
 31 8 l 1,0,-1
EndSplineSet
Substitution2: "'frac' Diagonal Fractions in Latin lookup 3 subtable" fraction
EndChar

StartChar: zero
Encoding: 48 48 19
Width: 560
GlyphClass: 2
Flags: W
LayerCount: 2
Fore
SplineSet
280 672 m 128,-1,1
 407 672 407 672 471.5 590 c 128,-1,2
 536 508 536 508 536 326.5 c 128,-1,3
 536 145 536 145 472 66.5 c 128,-1,4
 408 -12 408 -12 280 -12 c 128,-1,5
 152 -12 152 -12 88 66.5 c 128,-1,6
 24 145 24 145 24 326.5 c 128,-1,7
 24 508 24 508 88.5 590 c 128,-1,0
 153 672 153 672 280 672 c 128,-1,1
368 502.5 m 128,-1,9
 342 552 342 552 280.5 552 c 128,-1,10
 219 552 219 552 192.5 502 c 128,-1,11
 166 452 166 452 166 329 c 128,-1,12
 166 206 166 206 193 157 c 128,-1,13
 220 108 220 108 281 108 c 128,-1,14
 342 108 342 108 368 157 c 128,-1,15
 394 206 394 206 394 329.5 c 128,-1,8
 394 453 394 453 368 502.5 c 128,-1,9
EndSplineSet
Substitution2: "'frac' Diagonal Fractions in Latin lookup 1 subtable" zerosuperior
EndChar

StartChar: one
Encoding: 49 49 20
Width: 560
GlyphClass: 2
Flags: W
LayerCount: 2
Fore
SplineSet
418 660 m 1,0,-1
 418 0 l 1,1,-1
 280 0 l 1,2,-1
 280 504 l 1,3,-1
 137 412 l 1,4,-1
 74 515 l 1,5,-1
 292 660 l 1,6,-1
 418 660 l 1,0,-1
EndSplineSet
Substitution2: "'frac' Diagonal Fractions in Latin lookup 1 subtable" onesuperior
EndChar

StartChar: two
Encoding: 50 50 21
Width: 560
GlyphClass: 2
Flags: W
LayerCount: 2
Fore
SplineSet
493 0 m 1,0,-1
 65 0 l 1,1,-1
 65 117 l 1,2,-1
 206 260 l 2,3,4
 281 337 281 337 310.5 378 c 128,-1,5
 340 419 340 419 340 465.5 c 128,-1,6
 340 512 340 512 315.5 531 c 128,-1,7
 291 550 291 550 246 550 c 0,8,9
 179 550 179 550 100 538 c 1,10,-1
 76 535 l 1,11,-1
 69 642 l 1,12,13
 167 672 167 672 272 672 c 0,14,15
 482 672 482 672 482 483 c 0,16,17
 482 409 482 409 450 355 c 128,-1,18
 418 301 418 301 334 224 c 2,19,-1
 219 120 l 1,20,-1
 493 120 l 1,21,-1
 493 0 l 1,0,-1
EndSplineSet
Substitution2: "'frac' Diagonal Fractions in Latin lookup 1 subtable" twosuperior
EndChar

StartChar: three
Encoding: 51 51 22
Width: 560
GlyphClass: 2
Flags: W
LayerCount: 2
Fore
SplineSet
62 636 m 1,0,1
 154 672 154 672 267.5 672 c 128,-1,2
 381 672 381 672 433 628.5 c 128,-1,3
 485 585 485 585 485 489 c 128,-1,4
 485 393 485 393 408 342 c 1,5,6
 456 316 456 316 476.5 288 c 128,-1,7
 497 260 497 260 497 199 c 0,8,9
 497 92 497 92 443.5 40 c 128,-1,10
 390 -12 390 -12 272 -12 c 0,11,12
 185 -12 185 -12 89 14 c 1,13,-1
 57 22 l 1,14,-1
 64 127 l 1,15,16
 176 108 176 108 252 108 c 0,17,18
 355 108 355 108 355 196 c 0,19,20
 355 233 355 233 328.5 255 c 128,-1,21
 302 277 302 277 259 277 c 2,22,-1
 126 277 l 1,23,-1
 126 391 l 1,24,-1
 259 391 l 2,25,26
 292 391 292 391 317.5 419 c 128,-1,27
 343 447 343 447 343 481 c 0,28,29
 343 552 343 552 244 552 c 0,30,31
 175 552 175 552 97 538 c 1,32,-1
 71 534 l 1,33,-1
 62 636 l 1,0,1
EndSplineSet
Substitution2: "'frac' Diagonal Fractions in Latin lookup 1 subtable" threesuperior
EndChar

StartChar: four
Encoding: 52 52 23
Width: 560
GlyphClass: 2
Flags: W
LayerCount: 2
Fore
SplineSet
320 0 m 1,0,-1
 320 109 l 1,1,-1
 40 109 l 1,2,-1
 40 214 l 1,3,-1
 203 660 l 1,4,-1
 355 660 l 1,5,-1
 178 229 l 1,6,-1
 320 229 l 1,7,-1
 320 414 l 1,8,-1
 458 414 l 1,9,-1
 458 229 l 1,10,-1
 521 229 l 1,11,-1
 521 109 l 1,12,-1
 458 109 l 1,13,-1
 458 0 l 1,14,-1
 320 0 l 1,0,-1
EndSplineSet
Substitution2: "'frac' Diagonal Fractions in Latin lookup 1 subtable" foursuperior
EndChar

StartChar: five
Encoding: 53 53 24
Width: 560
GlyphClass: 2
Flags: W
LayerCount: 2
Fore
SplineSet
490 660 m 1,0,-1
 490 540 l 1,1,-1
 195 540 l 1,2,-1
 178 397 l 1,3,4
 240 421 240 421 296 421 c 0,5,6
 510 421 510 421 510 222 c 0,7,8
 510 110 510 110 451 49 c 128,-1,9
 392 -12 392 -12 284 -12 c 0,10,11
 238 -12 238 -12 179.5 -3 c 128,-1,12
 121 6 121 6 86 16 c 1,13,-1
 50 25 l 1,14,-1
 65 127 l 1,15,16
 186 108 186 108 267 108 c 0,17,18
 316 108 316 108 342 134 c 128,-1,19
 368 160 368 160 368 208.5 c 128,-1,20
 368 257 368 257 346 279 c 128,-1,21
 324 301 324 301 284 301 c 0,22,23
 217 301 217 301 166 288 c 2,24,-1
 151 284 l 1,25,-1
 69 303 l 1,26,-1
 87 660 l 1,27,-1
 490 660 l 1,0,-1
EndSplineSet
Substitution2: "'frac' Diagonal Fractions in Latin lookup 1 subtable" fivesuperior
EndChar

StartChar: six
Encoding: 54 54 25
Width: 560
GlyphClass: 2
Flags: W
LayerCount: 2
Fore
SplineSet
496 537 m 1,0,1
 394 552 394 552 319 552 c 0,2,3
 177 552 177 552 177 398 c 1,4,-1
 198 404 l 2,5,6
 264 423 264 423 303 423 c 0,7,8
 416 423 416 423 473 371 c 128,-1,9
 530 319 530 319 530 209.5 c 128,-1,10
 530 100 530 100 466 44 c 128,-1,11
 402 -12 402 -12 280.5 -12 c 128,-1,12
 159 -12 159 -12 97 76.5 c 128,-1,13
 35 165 35 165 35 337 c 128,-1,14
 35 509 35 509 106 590.5 c 128,-1,15
 177 672 177 672 310 672 c 0,16,17
 388 672 388 672 477 650 c 1,18,-1
 508 643 l 1,19,-1
 496 537 l 1,0,1
291 303 m 0,20,21
 244 303 244 303 193 286 c 1,22,-1
 176 281 l 1,23,24
 176 108 176 108 288 108 c 0,25,26
 336 108 336 108 362 134.5 c 128,-1,27
 388 161 388 161 388 209 c 0,28,29
 388 303 388 303 291 303 c 0,20,21
EndSplineSet
Substitution2: "'frac' Diagonal Fractions in Latin lookup 1 subtable" sixsuperior
EndChar

StartChar: seven
Encoding: 55 55 26
Width: 560
GlyphClass: 2
Flags: W
LayerCount: 2
Fore
SplineSet
69 537 m 1,0,-1
 69 660 l 1,1,-1
 491 660 l 1,2,-1
 491 504 l 1,3,-1
 256 -12 l 1,4,-1
 128 24 l 1,5,-1
 353 505 l 1,6,-1
 353 537 l 1,7,-1
 69 537 l 1,0,-1
EndSplineSet
Substitution2: "'frac' Diagonal Fractions in Latin lookup 1 subtable" sevensuperior
EndChar

StartChar: eight
Encoding: 56 56 27
Width: 560
GlyphClass: 2
Flags: W
LayerCount: 2
Fore
SplineSet
278 672 m 128,-1,1
 387 672 387 672 454 624 c 128,-1,2
 521 576 521 576 521 491 c 0,3,4
 521 433 521 433 507 404 c 128,-1,5
 493 375 493 375 449 340 c 1,6,7
 493 303 493 303 512 270 c 128,-1,8
 531 237 531 237 531 179 c 0,9,10
 531 81 531 81 461 34.5 c 128,-1,11
 391 -12 391 -12 278 -12 c 0,12,13
 28 -12 28 -12 28 168 c 0,14,15
 28 232 28 232 47.5 267.5 c 128,-1,16
 67 303 67 303 111 340 c 1,17,18
 69 374 69 374 54 406.5 c 128,-1,19
 39 439 39 439 39 492 c 0,20,21
 39 577 39 577 104 624.5 c 128,-1,0
 169 672 169 672 278 672 c 128,-1,1
176 200 m 0,22,23
 176 112 176 112 279.5 112 c 128,-1,24
 383 112 383 112 383 200 c 0,25,26
 383 252 383 252 324 275 c 1,27,-1
 236 275 l 1,28,29
 176 252 176 252 176 200 c 0,22,23
280 548 m 0,30,31
 235 548 235 548 211 528 c 128,-1,32
 187 508 187 508 187 467 c 128,-1,33
 187 426 187 426 236 392 c 1,34,-1
 324 392 l 1,35,36
 373 426 373 426 373 470 c 0,37,38
 373 548 373 548 280 548 c 0,30,31
EndSplineSet
Substitution2: "'frac' Diagonal Fractions in Latin lookup 1 subtable" eightsuperior
EndChar

StartChar: nine
Encoding: 57 57 28
Width: 560
GlyphClass: 2
Flags: W
LayerCount: 2
Fore
SplineSet
248 108 m 0,0,1
 381 108 381 108 381 270 c 1,2,-1
 360 263 l 2,3,4
 291 240 291 240 255 240 c 0,5,6
 146 240 146 240 87 293 c 128,-1,7
 28 346 28 346 28 450.5 c 128,-1,8
 28 555 28 555 93 613.5 c 128,-1,9
 158 672 158 672 277.5 672 c 128,-1,10
 397 672 397 672 460 583.5 c 128,-1,11
 523 495 523 495 523 320.5 c 128,-1,12
 523 146 523 146 453 67 c 128,-1,13
 383 -12 383 -12 248 -12 c 0,14,15
 170 -12 170 -12 81 10 c 1,16,-1
 50 17 l 1,17,-1
 62 123 l 1,18,19
 164 108 164 108 248 108 c 0,0,1
267 360 m 0,20,21
 313 360 313 360 366 378 c 1,22,-1
 382 383 l 1,23,24
 382 552 382 552 270 552 c 0,25,26
 222 552 222 552 196 525.5 c 128,-1,27
 170 499 170 499 170 451 c 0,28,29
 170 360 170 360 267 360 c 0,20,21
EndSplineSet
Substitution2: "'frac' Diagonal Fractions in Latin lookup 1 subtable" ninesuperior
EndChar

StartChar: colon
Encoding: 58 58 29
Width: 256
GlyphClass: 2
Flags: W
LayerCount: 2
Fore
SplineSet
56 289 m 1,0,-1
 56 455 l 1,1,-1
 200 455 l 1,2,-1
 200 289 l 1,3,-1
 56 289 l 1,0,-1
56 0 m 1,4,-1
 56 166 l 1,5,-1
 200 166 l 1,6,-1
 200 0 l 1,7,-1
 56 0 l 1,4,-1
EndSplineSet
EndChar

StartChar: semicolon
Encoding: 59 59 30
Width: 279
GlyphClass: 2
Flags: W
LayerCount: 2
Fore
SplineSet
77 137 m 1,0,-1
 225 137 l 1,1,-1
 135 -123 l 1,2,-1
 27 -123 l 1,3,-1
 77 137 l 1,0,-1
69 289 m 1,4,-1
 69 455 l 1,5,-1
 213 455 l 1,6,-1
 213 289 l 1,7,-1
 69 289 l 1,4,-1
EndSplineSet
EndChar

StartChar: less
Encoding: 60 60 31
Width: 560
GlyphClass: 2
Flags: W
LayerCount: 2
Fore
SplineSet
472 353 m 1,0,-1
 211 254 l 1,1,-1
 472 146 l 1,2,-1
 472 10 l 1,3,-1
 66 196 l 1,4,-1
 66 306 l 1,5,-1
 472 489 l 1,6,-1
 472 353 l 1,0,-1
EndSplineSet
EndChar

StartChar: equal
Encoding: 61 61 32
Width: 560
GlyphClass: 2
Flags: W
LayerCount: 2
Fore
SplineSet
58 295 m 1,0,-1
 58 416 l 1,1,-1
 502 416 l 1,2,-1
 502 295 l 1,3,-1
 58 295 l 1,0,-1
58 87 m 1,4,-1
 58 208 l 1,5,-1
 502 208 l 1,6,-1
 502 87 l 1,7,-1
 58 87 l 1,4,-1
EndSplineSet
EndChar

StartChar: greater
Encoding: 62 62 33
Width: 560
GlyphClass: 2
Flags: W
LayerCount: 2
Fore
SplineSet
349 254 m 1,0,-1
 88 353 l 1,1,-1
 88 489 l 1,2,-1
 494 306 l 1,3,-1
 494 196 l 1,4,-1
 88 10 l 1,5,-1
 88 146 l 1,6,-1
 349 254 l 1,0,-1
EndSplineSet
EndChar

StartChar: question
Encoding: 63 63 34
Width: 437
GlyphClass: 2
Flags: W
LayerCount: 2
Fore
SplineSet
356.5 653 m 128,-1,1
 405 614 405 614 405 536 c 128,-1,2
 405 458 405 458 389.5 422.5 c 128,-1,3
 374 387 374 387 324 349.5 c 128,-1,4
 274 312 274 312 261 292 c 128,-1,5
 248 272 248 272 248 248 c 2,6,-1
 248 217 l 1,7,-1
 141 217 l 1,8,9
 110 251 110 251 110 308 c 0,10,11
 110 344 110 344 173.5 395 c 128,-1,12
 237 446 237 446 251.5 465.5 c 128,-1,13
 266 485 266 485 266 513 c 0,14,15
 266 572 266 572 181 572 c 0,16,17
 121 572 121 572 58 560 c 2,18,-1
 37 556 l 1,19,-1
 30 657 l 1,20,21
 116 692 116 692 212 692 c 128,-1,0
 308 692 308 692 356.5 653 c 128,-1,1
119 0 m 1,22,-1
 119 161 l 1,23,-1
 263 161 l 1,24,-1
 263 0 l 1,25,-1
 119 0 l 1,22,-1
EndSplineSet
EndChar

StartChar: at
Encoding: 64 64 35
Width: 973
GlyphClass: 2
Flags: W
LayerCount: 2
Fore
SplineSet
944 305 m 2,0,-1
 944 297 l 2,1,2
 944 143 944 143 895.5 71.5 c 128,-1,3
 847 0 847 0 751 0 c 0,4,5
 680 0 680 0 635 36 c 0,6,7
 625 44 625 44 618 56 c 1,8,9
 538 0 538 0 470 0 c 0,10,11
 376 0 376 0 329.5 58.5 c 128,-1,12
 283 117 283 117 283 247.5 c 128,-1,13
 283 378 283 378 326.5 439 c 128,-1,14
 370 500 370 500 474 500 c 0,15,16
 509 500 509 500 550 482 c 1,17,-1
 565 475 l 1,18,-1
 565 488 l 1,19,-1
 699 488 l 1,20,-1
 699 309 l 2,21,22
 699 171 699 171 704.5 151 c 128,-1,23
 710 131 710 131 716.5 123 c 128,-1,24
 723 115 723 115 730 113.5 c 128,-1,25
 737 112 737 112 749 112 c 0,26,27
 781 112 781 112 795.5 151 c 128,-1,28
 810 190 810 190 810 297 c 2,29,-1
 810 306 l 2,30,31
 810 466 810 466 736.5 538.5 c 128,-1,32
 663 611 663 611 502.5 611 c 128,-1,33
 342 611 342 611 257 519 c 128,-1,34
 172 427 172 427 172 251.5 c 128,-1,35
 172 76 172 76 248 -7.5 c 128,-1,36
 324 -91 324 -91 503 -91 c 1,37,-1
 646 -82 l 1,38,-1
 651 -199 l 1,39,40
 561 -209 561 -209 503 -209 c 0,41,42
 388 -209 388 -209 305 -186 c 128,-1,43
 222 -163 222 -163 160 -110 c 1,44,45
 38 -3 38 -3 38 261 c 0,46,47
 38 492 38 492 163 610.5 c 128,-1,48
 288 729 288 729 505 729 c 128,-1,49
 722 729 722 729 833 620.5 c 128,-1,50
 944 512 944 512 944 305 c 2,0,-1
481 118 m 0,51,52
 519 118 519 118 571 143 c 1,53,54
 565 179 565 179 565 249 c 2,55,-1
 565 372 l 1,56,57
 523 382 523 382 504 382 c 0,58,59
 452 382 452 382 435.5 353 c 128,-1,60
 419 324 419 324 419 251 c 0,61,62
 419 118 419 118 481 118 c 0,51,52
EndSplineSet
EndChar

StartChar: A
Encoding: 65 65 36
Width: 602
GlyphClass: 2
Flags: W
LayerCount: 2
Fore
SplineSet
17 0 m 1,0,-1
 170 680 l 1,1,-1
 432 680 l 1,2,-1
 585 0 l 1,3,-1
 447 0 l 1,4,-1
 420 123 l 1,5,-1
 182 123 l 1,6,-1
 155 0 l 1,7,-1
 17 0 l 1,0,-1
277 566 m 1,8,-1
 208 243 l 1,9,-1
 394 243 l 1,10,-1
 325 566 l 1,11,-1
 277 566 l 1,8,-1
EndSplineSet
Position2: "'cpsp' Capital Spacing in Latin lookup 0 subtable" dx=5 dy=0 dh=10 dv=0
EndChar

StartChar: B
Encoding: 66 66 37
Width: 609
GlyphClass: 2
Flags: W
LayerCount: 2
Fore
SplineSet
74 680 m 1,0,-1
 341 680 l 2,1,2
 447 680 447 680 500 637.5 c 128,-1,3
 553 595 553 595 553 500 c 0,4,5
 553 443 553 443 536 409.5 c 128,-1,6
 519 376 519 376 478 350 c 1,7,8
 523 331 523 331 544.5 295 c 128,-1,9
 566 259 566 259 566 195 c 0,10,11
 566 96 566 96 508 48 c 128,-1,12
 450 0 450 0 345 0 c 2,13,-1
 74 0 l 1,14,-1
 74 680 l 1,0,-1
338 284 m 2,15,-1
 212 284 l 1,16,-1
 212 118 l 1,17,-1
 338 118 l 2,18,19
 383 118 383 118 404.5 136 c 128,-1,20
 426 154 426 154 426 202 c 0,21,22
 426 284 426 284 338 284 c 2,15,-1
334 562 m 2,23,-1
 212 562 l 1,24,-1
 212 400 l 1,25,-1
 335 400 l 2,26,27
 413 400 413 400 413 481 c 128,-1,28
 413 562 413 562 334 562 c 2,23,-1
EndSplineSet
Position2: "'cpsp' Capital Spacing in Latin lookup 0 subtable" dx=5 dy=0 dh=10 dv=0
EndChar

StartChar: C
Encoding: 67 67 38
Width: 543
GlyphClass: 2
Flags: W
LayerCount: 2
Fore
SplineSet
505 11 m 1,0,1
 399 -12 399 -12 314 -12 c 128,-1,2
 229 -12 229 -12 178 9 c 128,-1,3
 127 30 127 30 98 76 c 128,-1,4
 69 122 69 122 58 184 c 128,-1,5
 47 246 47 246 47 340 c 0,6,7
 47 537 47 537 102.5 614.5 c 128,-1,8
 158 692 158 692 307 692 c 0,9,10
 393 692 393 692 506 665 c 1,11,-1
 502 555 l 1,12,13
 403 570 403 570 337.5 570 c 128,-1,14
 272 570 272 570 244 552.5 c 128,-1,15
 216 535 216 535 202.5 486 c 128,-1,16
 189 437 189 437 189 319 c 128,-1,17
 189 201 189 201 216.5 155.5 c 128,-1,18
 244 110 244 110 326.5 110 c 128,-1,19
 409 110 409 110 502 124 c 1,20,-1
 505 11 l 1,0,1
EndSplineSet
Position2: "'cpsp' Capital Spacing in Latin lookup 0 subtable" dx=5 dy=0 dh=10 dv=0
EndChar

StartChar: D
Encoding: 68 68 39
Width: 638
GlyphClass: 2
Flags: W
LayerCount: 2
Fore
SplineSet
303 0 m 2,0,-1
 74 0 l 1,1,-1
 74 680 l 1,2,-1
 303 680 l 2,3,4
 391 680 391 680 448 661.5 c 128,-1,5
 505 643 505 643 536.5 600.5 c 128,-1,6
 568 558 568 558 580 500.5 c 128,-1,7
 592 443 592 443 592 351 c 128,-1,8
 592 259 592 259 581 198.5 c 128,-1,9
 570 138 570 138 539.5 90.5 c 128,-1,10
 509 43 509 43 451 21.5 c 128,-1,11
 393 0 393 0 303 0 c 2,0,-1
448 270 m 0,12,13
 450 302 450 302 450 358.5 c 128,-1,14
 450 415 450 415 446 449 c 128,-1,15
 442 483 442 483 427 511 c 128,-1,16
 412 539 412 539 382.5 549.5 c 128,-1,17
 353 560 353 560 303 560 c 2,18,-1
 212 560 l 1,19,-1
 212 120 l 1,20,-1
 303 120 l 2,21,22
 378 120 378 120 412 158 c 0,23,24
 441 189 441 189 448 270 c 0,12,13
EndSplineSet
Position2: "'cpsp' Capital Spacing in Latin lookup 0 subtable" dx=5 dy=0 dh=10 dv=0
EndChar

StartChar: E
Encoding: 69 69 40
Width: 554
GlyphClass: 2
Flags: W
LayerCount: 2
Fore
SplineSet
74 0 m 1,0,-1
 74 680 l 1,1,-1
 514 680 l 1,2,-1
 514 560 l 1,3,-1
 212 560 l 1,4,-1
 212 401 l 1,5,-1
 454 401 l 1,6,-1
 454 283 l 1,7,-1
 212 283 l 1,8,-1
 212 120 l 1,9,-1
 514 120 l 1,10,-1
 514 0 l 1,11,-1
 74 0 l 1,0,-1
EndSplineSet
Position2: "'cpsp' Capital Spacing in Latin lookup 0 subtable" dx=5 dy=0 dh=10 dv=0
EndChar

StartChar: F
Encoding: 70 70 41
Width: 531
GlyphClass: 2
Flags: W
LayerCount: 2
Fore
SplineSet
74 0 m 1,0,-1
 74 680 l 1,1,-1
 508 680 l 1,2,-1
 508 560 l 1,3,-1
 212 560 l 1,4,-1
 212 360 l 1,5,-1
 454 360 l 1,6,-1
 454 240 l 1,7,-1
 212 240 l 1,8,-1
 212 0 l 1,9,-1
 74 0 l 1,0,-1
EndSplineSet
Position2: "'cpsp' Capital Spacing in Latin lookup 0 subtable" dx=5 dy=0 dh=10 dv=0
EndChar

StartChar: G
Encoding: 71 71 42
Width: 611
GlyphClass: 2
Flags: W
LayerCount: 2
Fore
SplineSet
357 244 m 1,0,-1
 357 364 l 1,1,-1
 555 364 l 1,2,-1
 555 11 l 1,3,4
 412 -12 412 -12 323 -12 c 0,5,6
 164 -12 164 -12 104.5 73 c 128,-1,7
 45 158 45 158 45 343 c 128,-1,8
 45 528 45 528 107 610 c 128,-1,9
 169 692 169 692 318 692 c 0,10,11
 411 692 411 692 519 671 c 2,12,-1
 555 664 l 1,13,-1
 551 557 l 1,14,15
 431 570 431 570 354.5 570 c 128,-1,16
 278 570 278 570 247 552 c 128,-1,17
 216 534 216 534 201.5 485.5 c 128,-1,18
 187 437 187 437 187 319.5 c 128,-1,19
 187 202 187 202 216 155 c 128,-1,20
 245 108 245 108 336 108 c 1,21,-1
 419 112 l 1,22,-1
 419 244 l 1,23,-1
 357 244 l 1,0,-1
EndSplineSet
Position2: "'cpsp' Capital Spacing in Latin lookup 0 subtable" dx=5 dy=0 dh=10 dv=0
EndChar

StartChar: H
Encoding: 72 72 43
Width: 677
GlyphClass: 2
Flags: W
LayerCount: 2
Fore
SplineSet
465 0 m 1,0,-1
 465 282 l 1,1,-1
 212 282 l 1,2,-1
 212 0 l 1,3,-1
 74 0 l 1,4,-1
 74 680 l 1,5,-1
 212 680 l 1,6,-1
 212 402 l 1,7,-1
 465 402 l 1,8,-1
 465 680 l 1,9,-1
 603 680 l 1,10,-1
 603 0 l 1,11,-1
 465 0 l 1,0,-1
EndSplineSet
Position2: "'cpsp' Capital Spacing in Latin lookup 0 subtable" dx=5 dy=0 dh=10 dv=0
EndChar

StartChar: I
Encoding: 73 73 44
Width: 286
GlyphClass: 2
Flags: W
LayerCount: 2
Fore
SplineSet
74 0 m 1,0,-1
 74 680 l 1,1,-1
 212 680 l 1,2,-1
 212 0 l 1,3,-1
 74 0 l 1,0,-1
EndSplineSet
Position2: "'cpsp' Capital Spacing in Latin lookup 0 subtable" dx=5 dy=0 dh=10 dv=0
EndChar

StartChar: J
Encoding: 74 74 45
Width: 302
GlyphClass: 2
Flags: W
LayerCount: 2
Fore
SplineSet
19 -70 m 1,0,-1
 19 50 l 1,1,2
 59 50 59 50 77 65 c 128,-1,3
 95 80 95 80 95 121 c 2,4,-1
 95 680 l 1,5,-1
 232 680 l 1,6,-1
 233 115 l 2,7,8
 233 6 233 6 184.5 -32 c 128,-1,9
 136 -70 136 -70 19 -70 c 1,0,-1
EndSplineSet
Position2: "'cpsp' Capital Spacing in Latin lookup 0 subtable" dx=5 dy=0 dh=10 dv=0
EndChar

StartChar: K
Encoding: 75 75 46
Width: 593
GlyphClass: 2
Flags: W
LayerCount: 2
Fore
SplineSet
212 0 m 1,0,-1
 74 0 l 1,1,-1
 74 680 l 1,2,-1
 212 680 l 1,3,-1
 212 381 l 1,4,-1
 304 391 l 1,5,-1
 416 680 l 1,6,-1
 573 680 l 1,7,-1
 425 339 l 1,8,-1
 577 0 l 1,9,-1
 418 0 l 1,10,-1
 304 271 l 1,11,-1
 212 261 l 1,12,-1
 212 0 l 1,0,-1
EndSplineSet
Position2: "'cpsp' Capital Spacing in Latin lookup 0 subtable" dx=5 dy=0 dh=10 dv=0
EndChar

StartChar: L
Encoding: 76 76 47
Width: 472
GlyphClass: 2
Flags: W
LayerCount: 2
Fore
SplineSet
461 0 m 1,0,-1
 74 0 l 1,1,-1
 74 680 l 1,2,-1
 212 680 l 1,3,-1
 212 122 l 1,4,-1
 461 122 l 1,5,-1
 461 0 l 1,0,-1
EndSplineSet
Position2: "'cpsp' Capital Spacing in Latin lookup 0 subtable" dx=5 dy=0 dh=10 dv=0
EndChar

StartChar: M
Encoding: 77 77 48
Width: 858
GlyphClass: 2
Flags: W
LayerCount: 2
Fore
SplineSet
74 0 m 1,0,-1
 74 680 l 1,1,-1
 309 680 l 1,2,-1
 429 184 l 1,3,-1
 549 680 l 1,4,-1
 784 680 l 1,5,-1
 784 0 l 1,6,-1
 646 0 l 1,7,-1
 646 526 l 1,8,-1
 631 526 l 1,9,-1
 498 30 l 1,10,-1
 360 30 l 1,11,-1
 227 526 l 1,12,-1
 212 526 l 1,13,-1
 212 0 l 1,14,-1
 74 0 l 1,0,-1
EndSplineSet
Position2: "'cpsp' Capital Spacing in Latin lookup 0 subtable" dx=5 dy=0 dh=10 dv=0
EndChar

StartChar: N
Encoding: 78 78 49
Width: 693
GlyphClass: 2
Flags: W
LayerCount: 2
Fore
SplineSet
74 0 m 1,0,-1
 74 680 l 1,1,-1
 307 680 l 1,2,-1
 471 120 l 1,3,-1
 481 120 l 1,4,-1
 481 680 l 1,5,-1
 619 680 l 1,6,-1
 619 0 l 1,7,-1
 392 0 l 1,8,-1
 222 560 l 1,9,-1
 212 560 l 1,10,-1
 212 0 l 1,11,-1
 74 0 l 1,0,-1
EndSplineSet
Position2: "'cpsp' Capital Spacing in Latin lookup 0 subtable" dx=5 dy=0 dh=10 dv=0
EndChar

StartChar: O
Encoding: 79 79 50
Width: 652
GlyphClass: 2
Flags: W
LayerCount: 2
Fore
SplineSet
326 108 m 128,-1,1
 407 108 407 108 436.5 160.5 c 128,-1,2
 466 213 466 213 466 336.5 c 128,-1,3
 466 460 466 460 436 516 c 128,-1,4
 406 572 406 572 326 572 c 128,-1,5
 246 572 246 572 216 516 c 128,-1,6
 186 460 186 460 186 336.5 c 128,-1,7
 186 213 186 213 215.5 160.5 c 128,-1,0
 245 108 245 108 326 108 c 128,-1,1
326 -12 m 128,-1,9
 171 -12 171 -12 107.5 72.5 c 128,-1,10
 44 157 44 157 44 337 c 128,-1,11
 44 517 44 517 107.5 604.5 c 128,-1,12
 171 692 171 692 326 692 c 128,-1,13
 481 692 481 692 544.5 604.5 c 128,-1,14
 608 517 608 517 608 337 c 128,-1,15
 608 157 608 157 544.5 72.5 c 128,-1,8
 481 -12 481 -12 326 -12 c 128,-1,9
EndSplineSet
Position2: "'cpsp' Capital Spacing in Latin lookup 0 subtable" dx=5 dy=0 dh=10 dv=0
EndChar

StartChar: P
Encoding: 80 80 51
Width: 589
GlyphClass: 2
Flags: W
LayerCount: 2
Fore
SplineSet
324 198 m 2,0,-1
 212 198 l 1,1,-1
 212 0 l 1,2,-1
 74 0 l 1,3,-1
 74 680 l 1,4,-1
 324 680 l 2,5,6
 566 680 566 680 566 444 c 0,7,8
 566 325 566 325 504.5 261.5 c 128,-1,9
 443 198 443 198 324 198 c 2,0,-1
212 316 m 1,10,-1
 323 316 l 2,11,12
 426 316 426 316 426 444 c 0,13,14
 426 507 426 507 401 534.5 c 128,-1,15
 376 562 376 562 323 562 c 2,16,-1
 212 562 l 1,17,-1
 212 316 l 1,10,-1
EndSplineSet
Position2: "'cpsp' Capital Spacing in Latin lookup 0 subtable" dx=5 dy=0 dh=10 dv=0
EndChar

StartChar: Q
Encoding: 81 81 52
Width: 652
GlyphClass: 2
Flags: W
LayerCount: 2
Fore
SplineSet
326 -12 m 0,0,1
 170 -12 170 -12 107 72 c 128,-1,2
 44 156 44 156 44 336.5 c 128,-1,3
 44 517 44 517 107.5 604.5 c 128,-1,4
 171 692 171 692 326 692 c 128,-1,5
 481 692 481 692 544.5 604.5 c 128,-1,6
 608 517 608 517 608 336 c 0,7,8
 608 114 608 114 503 37 c 1,9,-1
 586 -97 l 1,10,-1
 460 -156 l 1,11,-1
 370 -9 l 1,12,13
 360 -12 360 -12 326 -12 c 0,0,1
326 108 m 128,-1,15
 407 108 407 108 436.5 160 c 128,-1,16
 466 212 466 212 466 336 c 128,-1,17
 466 460 466 460 436 516 c 128,-1,18
 406 572 406 572 326 572 c 128,-1,19
 246 572 246 572 216 516 c 128,-1,20
 186 460 186 460 186 336 c 128,-1,21
 186 212 186 212 215.5 160 c 128,-1,14
 245 108 245 108 326 108 c 128,-1,15
EndSplineSet
Position2: "'cpsp' Capital Spacing in Latin lookup 0 subtable" dx=5 dy=0 dh=10 dv=0
EndChar

StartChar: R
Encoding: 82 82 53
Width: 620
GlyphClass: 2
Flags: W
LayerCount: 2
Fore
SplineSet
212 228 m 1,0,-1
 212 0 l 1,1,-1
 74 0 l 1,2,-1
 74 680 l 1,3,-1
 338 680 l 2,4,5
 578 680 578 680 578 456 c 0,6,7
 578 323 578 323 478 260 c 1,8,-1
 575 0 l 1,9,-1
 424 0 l 1,10,-1
 345 228 l 1,11,-1
 212 228 l 1,0,-1
413 376 m 128,-1,13
 437 406 437 406 437 455 c 128,-1,14
 437 504 437 504 411.5 533 c 128,-1,15
 386 562 386 562 338 562 c 2,16,-1
 212 562 l 1,17,-1
 212 346 l 1,18,-1
 340 346 l 2,19,12
 389 346 389 346 413 376 c 128,-1,13
EndSplineSet
Position2: "'cpsp' Capital Spacing in Latin lookup 0 subtable" dx=5 dy=0 dh=10 dv=0
EndChar

StartChar: S
Encoding: 83 83 54
Width: 544
GlyphClass: 2
Flags: W
LayerCount: 2
Fore
SplineSet
283 572 m 0,0,1
 174 572 174 572 174 500 c 0,2,3
 174 468 174 468 201 451 c 128,-1,4
 228 434 228 434 327.5 402 c 128,-1,5
 427 370 427 370 467 329.5 c 128,-1,6
 507 289 507 289 507 205 c 0,7,8
 507 98 507 98 442 43 c 128,-1,9
 377 -12 377 -12 272 -12 c 0,10,11
 194 -12 194 -12 81 12 c 1,12,-1
 45 19 l 1,13,-1
 59 126 l 1,14,15
 193 108 193 108 264 108 c 0,16,17
 370 108 370 108 370 196 c 0,18,19
 370 228 370 228 345.5 246 c 128,-1,20
 321 264 321 264 248 285 c 0,21,22
 132 318 132 318 84.5 363.5 c 128,-1,23
 37 409 37 409 37 490 c 0,24,25
 37 592 37 592 99 642 c 128,-1,26
 161 692 161 692 269 692 c 0,27,28
 343 692 343 692 457 672 c 1,29,-1
 493 665 l 1,30,-1
 482 556 l 1,31,32
 341 572 341 572 283 572 c 0,0,1
EndSplineSet
Position2: "'cpsp' Capital Spacing in Latin lookup 0 subtable" dx=5 dy=0 dh=10 dv=0
EndChar

StartChar: T
Encoding: 84 84 55
Width: 526
GlyphClass: 2
Flags: W
LayerCount: 2
Fore
SplineSet
13 558 m 1,0,-1
 13 680 l 1,1,-1
 513 680 l 1,2,-1
 513 558 l 1,3,-1
 333 558 l 1,4,-1
 333 0 l 1,5,-1
 195 0 l 1,6,-1
 195 558 l 1,7,-1
 13 558 l 1,0,-1
EndSplineSet
Position2: "'cpsp' Capital Spacing in Latin lookup 0 subtable" dx=5 dy=0 dh=10 dv=0
EndChar

StartChar: U
Encoding: 85 85 56
Width: 654
GlyphClass: 2
Flags: W
LayerCount: 2
Fore
SplineSet
206 227 m 2,0,1
 206 108 206 108 327 108 c 128,-1,2
 448 108 448 108 448 227 c 2,3,-1
 448 680 l 1,4,-1
 586 680 l 1,5,-1
 586 230 l 2,6,7
 586 105 586 105 521.5 46.5 c 128,-1,8
 457 -12 457 -12 327 -12 c 128,-1,9
 197 -12 197 -12 132.5 46.5 c 128,-1,10
 68 105 68 105 68 230 c 2,11,-1
 68 680 l 1,12,-1
 206 680 l 1,13,-1
 206 227 l 2,0,1
EndSplineSet
Position2: "'cpsp' Capital Spacing in Latin lookup 0 subtable" dx=5 dy=0 dh=10 dv=0
EndChar

StartChar: V
Encoding: 86 86 57
Width: 603
GlyphClass: 2
Flags: W
LayerCount: 2
Fore
SplineSet
442 680 m 1,0,-1
 587 680 l 1,1,-1
 429 0 l 1,2,-1
 174 0 l 1,3,-1
 16 680 l 1,4,-1
 161 680 l 1,5,-1
 279 120 l 1,6,-1
 324 120 l 1,7,-1
 442 680 l 1,0,-1
EndSplineSet
Position2: "'cpsp' Capital Spacing in Latin lookup 0 subtable" dx=5 dy=0 dh=10 dv=0
EndChar

StartChar: W
Encoding: 87 87 58
Width: 930
GlyphClass: 2
Flags: W
LayerCount: 2
Fore
SplineSet
19 680 m 1,0,-1
 164 680 l 1,1,-1
 248 118 l 1,2,-1
 263 118 l 1,3,-1
 385 680 l 1,4,-1
 545 680 l 1,5,-1
 667 118 l 1,6,-1
 682 118 l 1,7,-1
 766 680 l 1,8,-1
 911 680 l 1,9,-1
 781 0 l 1,10,-1
 572 0 l 1,11,-1
 465 517 l 1,12,-1
 358 0 l 1,13,-1
 149 0 l 1,14,-1
 19 680 l 1,0,-1
EndSplineSet
Position2: "'cpsp' Capital Spacing in Latin lookup 0 subtable" dx=5 dy=0 dh=10 dv=0
EndChar

StartChar: X
Encoding: 88 88 59
Width: 569
GlyphClass: 2
Flags: W
LayerCount: 2
Fore
SplineSet
162 680 m 1,0,-1
 288 430 l 1,1,-1
 417 680 l 1,2,-1
 560 680 l 1,3,-1
 364 333 l 1,4,-1
 560 0 l 1,5,-1
 407 0 l 1,6,-1
 281 235 l 1,7,-1
 152 0 l 1,8,-1
 9 0 l 1,9,-1
 205 326 l 1,10,-1
 9 680 l 1,11,-1
 162 680 l 1,0,-1
EndSplineSet
Position2: "'cpsp' Capital Spacing in Latin lookup 0 subtable" dx=5 dy=0 dh=10 dv=0
EndChar

StartChar: Y
Encoding: 89 89 60
Width: 557
GlyphClass: 2
Flags: W
LayerCount: 2
Fore
SplineSet
348 0 m 1,0,-1
 210 0 l 1,1,-1
 210 275 l 1,2,-1
 0 680 l 1,3,-1
 153 680 l 1,4,-1
 278 409 l 1,5,-1
 403 680 l 1,6,-1
 556 680 l 1,7,-1
 348 275 l 1,8,-1
 348 0 l 1,0,-1
EndSplineSet
Position2: "'cpsp' Capital Spacing in Latin lookup 0 subtable" dx=5 dy=0 dh=10 dv=0
EndChar

StartChar: Z
Encoding: 90 90 61
Width: 532
GlyphClass: 2
Flags: W
LayerCount: 2
Fore
SplineSet
41 560 m 1,0,-1
 41 680 l 1,1,-1
 491 680 l 1,2,-1
 491 560 l 1,3,-1
 207 138 l 1,4,-1
 207 120 l 1,5,-1
 491 120 l 1,6,-1
 491 0 l 1,7,-1
 41 0 l 1,8,-1
 41 119 l 1,9,-1
 325 542 l 1,10,-1
 325 560 l 1,11,-1
 41 560 l 1,0,-1
EndSplineSet
Position2: "'cpsp' Capital Spacing in Latin lookup 0 subtable" dx=5 dy=0 dh=10 dv=0
EndChar

StartChar: bracketleft
Encoding: 91 91 62
Width: 355
GlyphClass: 2
Flags: W
LayerCount: 2
Fore
SplineSet
320 749 m 1,0,-1
 320 629 l 1,1,-1
 205 629 l 1,2,-1
 205 -3 l 1,3,-1
 320 -3 l 1,4,-1
 320 -123 l 1,5,-1
 68 -123 l 1,6,-1
 68 749 l 1,7,-1
 320 749 l 1,0,-1
EndSplineSet
Substitution2: "'case' Case-Sensitive Forms in Latin lookup 4 subtable" bracketleft.cap
EndChar

StartChar: backslash
Encoding: 92 92 63
Width: 498
GlyphClass: 2
Flags: W
LayerCount: 2
Fore
SplineSet
466 13 m 1,0,-1
 350 -36 l 1,1,-1
 32 664 l 1,2,-1
 146 716 l 1,3,-1
 466 13 l 1,0,-1
EndSplineSet
EndChar

StartChar: bracketright
Encoding: 93 93 64
Width: 355
GlyphClass: 2
Flags: W
LayerCount: 2
Fore
SplineSet
35 629 m 1,0,-1
 35 749 l 1,1,-1
 287 749 l 1,2,-1
 287 -123 l 1,3,-1
 35 -123 l 1,4,-1
 35 -3 l 1,5,-1
 150 -3 l 1,6,-1
 150 629 l 1,7,-1
 35 629 l 1,0,-1
EndSplineSet
Substitution2: "'case' Case-Sensitive Forms in Latin lookup 4 subtable" bracketright.cap
EndChar

StartChar: asciicircum
Encoding: 94 94 65
Width: 560
GlyphClass: 2
Flags: W
LayerCount: 2
Fore
SplineSet
383 313 m 1,0,-1
 274 530 l 1,1,-1
 161 313 l 1,2,-1
 21 313 l 1,3,-1
 215 660 l 1,4,-1
 329 660 l 1,5,-1
 523 313 l 1,6,-1
 383 313 l 1,0,-1
EndSplineSet
EndChar

StartChar: underscore
Encoding: 95 95 66
Width: 620
GlyphClass: 2
Flags: W
LayerCount: 2
Fore
SplineSet
96 -73 m 1,0,-1
 524 -73 l 1,1,-1
 524 -187 l 1,2,-1
 96 -187 l 1,3,-1
 96 -73 l 1,0,-1
EndSplineSet
EndChar

StartChar: grave
Encoding: 96 96 67
Width: 268
GlyphClass: 2
Flags: W
LayerCount: 2
Fore
SplineSet
23 753 m 1,0,-1
 275 651 l 1,1,-1
 245 564 l 1,2,-1
 -17 638 l 1,3,-1
 23 753 l 1,0,-1
EndSplineSet
EndChar

StartChar: a
Encoding: 97 97 68
Width: 511
GlyphClass: 2
Flags: W
LayerCount: 2
Fore
SplineSet
445 344 m 2,0,-1
 445 136 l 1,1,2
 447 112 447 112 453 102.5 c 128,-1,3
 459 93 459 93 478 89 c 1,4,-1
 474 -12 l 1,5,6
 423 -12 423 -12 392.5 -5 c 128,-1,7
 362 2 362 2 331 23 c 1,8,9
 259 -12 259 -12 184 -12 c 0,10,11
 29 -12 29 -12 29 152 c 0,12,13
 29 232 29 232 72 265.5 c 128,-1,14
 115 299 115 299 204 305 c 2,15,-1
 311 313 l 1,16,-1
 311 344 l 2,17,18
 311 375 311 375 297 386.5 c 128,-1,19
 283 398 283 398 252 398 c 1,20,-1
 64 390 l 1,21,-1
 60 483 l 1,22,23
 167 512 167 512 263.5 512 c 128,-1,24
 360 512 360 512 402.5 472 c 128,-1,25
 445 432 445 432 445 344 c 2,0,-1
220 212 m 2,26,27
 164 207 164 207 164 152 c 128,-1,28
 164 97 164 97 213 97 c 0,29,30
 251 97 251 97 296 109 c 2,31,-1
 311 113 l 1,32,-1
 311 220 l 1,33,-1
 220 212 l 2,26,27
EndSplineSet
EndChar

StartChar: b
Encoding: 98 98 69
Width: 544
GlyphClass: 2
Flags: W
LayerCount: 2
Fore
SplineSet
304 512 m 0,0,1
 409 512 409 512 457.5 454.5 c 128,-1,2
 506 397 506 397 506 249 c 128,-1,3
 506 101 506 101 450 44.5 c 128,-1,4
 394 -12 394 -12 257 -12 c 0,5,6
 214 -12 214 -12 100 -2 c 1,7,-1
 62 2 l 1,8,-1
 62 700 l 1,9,-1
 196 700 l 1,10,-1
 196 485 l 1,11,12
 260 512 260 512 304 512 c 0,0,1
257 108 m 0,13,14
 324 108 324 108 347 140.5 c 128,-1,15
 370 173 370 173 370 257 c 0,16,17
 370 392 370 392 286 392 c 0,18,19
 246 392 246 392 210 382 c 1,20,-1
 196 379 l 1,21,-1
 196 112 l 1,22,23
 242 108 242 108 257 108 c 0,13,14
EndSplineSet
EndChar

StartChar: c
Encoding: 99 99 70
Width: 446
GlyphClass: 2
Flags: W
LayerCount: 2
Fore
SplineSet
249 512 m 0,0,1
 301 512 301 512 382 496 c 1,2,-1
 409 490 l 1,3,-1
 405 384 l 1,4,5
 326 392 326 392 288 392 c 0,6,7
 219 392 219 392 196.5 362.5 c 128,-1,8
 174 333 174 333 174 251 c 128,-1,9
 174 169 174 169 196.5 138.5 c 128,-1,10
 219 108 219 108 289 108 c 1,11,-1
 405 116 l 1,12,-1
 409 9 l 1,13,14
 302 -12 302 -12 246 -12 c 0,15,16
 135 -12 135 -12 86.5 50.5 c 128,-1,17
 38 113 38 113 38 251 c 128,-1,18
 38 389 38 389 88 450.5 c 128,-1,19
 138 512 138 512 249 512 c 0,0,1
EndSplineSet
EndChar

StartChar: d
Encoding: 100 100 71
Width: 549
GlyphClass: 2
Flags: W
LayerCount: 2
Fore
SplineSet
487 700 m 1,0,-1
 487 0 l 1,1,-1
 354 0 l 1,2,-1
 354 21 l 1,3,4
 284 -12 284 -12 233 -12 c 0,5,6
 124 -12 124 -12 81 51 c 128,-1,7
 38 114 38 114 38 250.5 c 128,-1,8
 38 387 38 387 89.5 449.5 c 128,-1,9
 141 512 141 512 245 512 c 0,10,11
 277 512 277 512 334 502 c 1,12,-1
 353 498 l 1,13,-1
 353 700 l 1,14,-1
 487 700 l 1,0,-1
339 120 m 1,15,-1
 353 123 l 1,16,-1
 353 386 l 1,17,18
 298 396 298 396 255 396 c 0,19,20
 174 396 174 396 174 252 c 0,21,22
 174 174 174 174 192 141 c 128,-1,23
 210 108 210 108 251.5 108 c 128,-1,24
 293 108 293 108 339 120 c 1,15,-1
EndSplineSet
EndChar

StartChar: e
Encoding: 101 101 72
Width: 510
GlyphClass: 2
Flags: W
LayerCount: 2
Fore
SplineSet
196.5 126.5 m 128,-1,1
 220 106 220 106 264 106 c 0,2,3
 357 106 357 106 430 112 c 1,4,-1
 458 115 l 1,5,-1
 460 16 l 1,6,7
 345 -12 345 -12 252 -12 c 0,8,9
 139 -12 139 -12 88 48 c 128,-1,10
 37 108 37 108 37 243 c 0,11,12
 37 512 37 512 258 512 c 0,13,14
 476 512 476 512 476 286 c 1,15,-1
 466 193 l 1,16,-1
 172 193 l 1,17,0
 173 147 173 147 196.5 126.5 c 128,-1,1
344 295 m 1,18,19
 344 355 344 355 325 378.5 c 128,-1,20
 306 402 306 402 258.5 402 c 128,-1,21
 211 402 211 402 191.5 377.5 c 128,-1,22
 172 353 172 353 171 295 c 1,23,-1
 344 295 l 1,18,19
EndSplineSet
EndChar

StartChar: f
Encoding: 102 102 73
Width: 357
GlyphClass: 2
Flags: W
LayerCount: 2
Fore
SplineSet
220 386 m 1,0,-1
 220 0 l 1,1,-1
 86 0 l 1,2,-1
 86 386 l 1,3,-1
 32 386 l 1,4,-1
 32 500 l 1,5,-1
 86 500 l 1,6,-1
 86 522 l 2,7,8
 86 630 86 630 118 671 c 128,-1,9
 150 712 150 712 232 712 c 0,10,11
 268 712 268 712 325 702 c 1,12,-1
 346 699 l 1,13,-1
 344 590 l 1,14,15
 300 592 300 592 270 592 c 128,-1,16
 240 592 240 592 230 576 c 128,-1,17
 220 560 220 560 220 521 c 2,18,-1
 220 500 l 1,19,-1
 341 500 l 1,20,-1
 341 386 l 1,21,-1
 220 386 l 1,0,-1
EndSplineSet
EndChar

StartChar: g
Encoding: 103 103 74
Width: 534
GlyphClass: 2
Flags: W
LayerCount: 2
Fore
SplineSet
449 -189 m 128,-1,1
 383 -230 383 -230 270.5 -230 c 128,-1,2
 158 -230 158 -230 97.5 -200 c 128,-1,3
 37 -170 37 -170 37 -91 c 0,4,5
 37 -28 37 -28 109 28 c 1,6,7
 72 53 72 53 72 104 c 0,8,9
 72 124 72 124 102 170 c 2,10,-1
 111 184 l 1,11,12
 43 233 43 233 43 328.5 c 128,-1,13
 43 424 43 424 100.5 467 c 128,-1,14
 158 510 158 510 253 510 c 0,15,16
 296 510 296 510 338 500 c 1,17,-1
 354 497 l 1,18,-1
 515 502 l 1,19,-1
 515 395 l 1,20,-1
 440 401 l 1,21,22
 462 367 462 367 462 333 c 0,23,24
 462 233 462 233 411 195 c 128,-1,25
 360 157 360 157 251 157 c 0,26,27
 228 157 228 157 210 161 c 1,28,29
 200 135 200 135 200 118.5 c 128,-1,30
 200 102 200 102 217 96 c 128,-1,31
 234 90 234 90 297 89 c 0,32,33
 423 88 423 88 469 55.5 c 128,-1,34
 515 23 515 23 515 -62.5 c 128,-1,0
 515 -148 515 -148 449 -189 c 128,-1,1
169 -77 m 0,35,36
 169 -120 169 -120 274.5 -120 c 128,-1,37
 380 -120 380 -120 380 -70 c 0,38,39
 380 -43 380 -43 362 -35.5 c 128,-1,40
 344 -28 344 -28 286 -27 c 1,41,-1
 196 -20 l 1,42,43
 169 -47 169 -47 169 -77 c 0,35,36
253.5 259 m 128,-1,45
 330 259 330 259 330 332.5 c 128,-1,46
 330 406 330 406 253.5 406 c 128,-1,47
 177 406 177 406 177 332.5 c 128,-1,44
 177 259 177 259 253.5 259 c 128,-1,45
EndSplineSet
EndChar

StartChar: h
Encoding: 104 104 75
Width: 553
GlyphClass: 2
Flags: W
LayerCount: 2
Fore
SplineSet
196 0 m 1,0,-1
 62 0 l 1,1,-1
 62 700 l 1,2,-1
 196 700 l 1,3,-1
 196 476 l 1,4,5
 265 512 265 512 320 512 c 0,6,7
 420 512 420 512 458 453 c 128,-1,8
 496 394 496 394 496 271 c 2,9,-1
 496 0 l 1,10,-1
 362 0 l 1,11,-1
 362 268 l 2,12,13
 362 331 362 331 347 361.5 c 128,-1,14
 332 392 332 392 287 392 c 0,15,16
 248 392 248 392 209 380 c 2,17,-1
 196 376 l 1,18,-1
 196 0 l 1,0,-1
EndSplineSet
EndChar

StartChar: i
Encoding: 105 105 76
Width: 258
GlyphClass: 2
Flags: W
LayerCount: 2
Fore
SplineSet
62 0 m 1,0,-1
 62 500 l 1,1,-1
 196 500 l 1,2,-1
 196 0 l 1,3,-1
 62 0 l 1,0,-1
62 564 m 1,4,-1
 62 700 l 1,5,-1
 196 700 l 1,6,-1
 196 564 l 1,7,-1
 62 564 l 1,4,-1
EndSplineSet
EndChar

StartChar: j
Encoding: 106 106 77
Width: 259
GlyphClass: 2
Flags: W
LayerCount: 2
Fore
SplineSet
63 24 m 2,0,-1
 63 500 l 1,1,-1
 197 500 l 1,2,-1
 197 23 l 2,3,4
 197 -79 197 -79 161.5 -127.5 c 128,-1,5
 126 -176 126 -176 19 -230 c 1,6,-1
 -34 -131 l 1,7,8
 11 -101 11 -101 29 -84 c 128,-1,9
 47 -67 47 -67 55 -43.5 c 128,-1,10
 63 -20 63 -20 63 24 c 2,0,-1
63 564 m 1,11,-1
 63 700 l 1,12,-1
 197 700 l 1,13,-1
 197 564 l 1,14,-1
 63 564 l 1,11,-1
EndSplineSet
EndChar

StartChar: k
Encoding: 107 107 78
Width: 515
GlyphClass: 2
Flags: W
LayerCount: 2
Fore
SplineSet
196 0 m 1,0,-1
 62 0 l 1,1,-1
 62 700 l 1,2,-1
 196 700 l 1,3,-1
 196 302 l 1,4,-1
 247 311 l 1,5,-1
 346 500 l 1,6,-1
 496 500 l 1,7,-1
 366 263 l 1,8,-1
 503 0 l 1,9,-1
 352 0 l 1,10,-1
 251 195 l 1,11,-1
 196 186 l 1,12,-1
 196 0 l 1,0,-1
EndSplineSet
EndChar

StartChar: l
Encoding: 108 108 79
Width: 270
GlyphClass: 2
Flags: W
LayerCount: 2
Fore
SplineSet
68 0 m 1,0,-1
 68 700 l 1,1,-1
 202 700 l 1,2,-1
 202 0 l 1,3,-1
 68 0 l 1,0,-1
EndSplineSet
EndChar

StartChar: m
Encoding: 109 109 80
Width: 839
GlyphClass: 2
Flags: W
LayerCount: 2
Fore
SplineSet
196 0 m 1,0,-1
 62 0 l 1,1,-1
 62 500 l 1,2,-1
 195 500 l 1,3,-1
 195 472 l 1,4,5
 264 512 264 512 313 512 c 0,6,7
 394 512 394 512 438 465 c 1,8,9
 530 512 530 512 606 512 c 0,10,11
 705 512 705 512 743.5 454.5 c 128,-1,12
 782 397 782 397 782 271 c 2,13,-1
 782 0 l 1,14,-1
 648 0 l 1,15,-1
 648 267 l 2,16,17
 648 331 648 331 634 361.5 c 128,-1,18
 620 392 620 392 578 392 c 0,19,20
 546 392 546 392 500 378 c 1,21,-1
 485 373 l 1,22,23
 489 298 489 298 489 259 c 2,24,-1
 489 0 l 1,25,-1
 355 0 l 1,26,-1
 355 257 l 2,27,28
 355 331 355 331 342 361.5 c 128,-1,29
 329 392 329 392 285 392 c 0,30,31
 246 392 246 392 208 378 c 1,32,-1
 196 374 l 1,33,-1
 196 0 l 1,0,-1
EndSplineSet
EndChar

StartChar: n
Encoding: 110 110 81
Width: 553
GlyphClass: 2
Flags: W
LayerCount: 2
Fore
SplineSet
196 0 m 1,0,-1
 62 0 l 1,1,-1
 62 500 l 1,2,-1
 195 500 l 1,3,-1
 195 472 l 1,4,5
 263 512 263 512 320 512 c 0,6,7
 420 512 420 512 458 453 c 128,-1,8
 496 394 496 394 496 271 c 2,9,-1
 496 0 l 1,10,-1
 362 0 l 1,11,-1
 362 267 l 2,12,13
 362 331 362 331 347 361.5 c 128,-1,14
 332 392 332 392 287 392 c 0,15,16
 246 392 246 392 208 378 c 1,17,-1
 196 374 l 1,18,-1
 196 0 l 1,0,-1
EndSplineSet
EndChar

StartChar: o
Encoding: 111 111 82
Width: 532
GlyphClass: 2
Flags: W
LayerCount: 2
Fore
SplineSet
266 512 m 128,-1,1
 390 512 390 512 443 443.5 c 128,-1,2
 496 375 496 375 496 251 c 0,3,4
 496 -12 496 -12 266 -12 c 128,-1,5
 36 -12 36 -12 36 251 c 0,6,7
 36 375 36 375 89 443.5 c 128,-1,0
 142 512 142 512 266 512 c 128,-1,1
266 102 m 128,-1,9
 319 102 319 102 339.5 138 c 128,-1,10
 360 174 360 174 360 251 c 128,-1,11
 360 328 360 328 339.5 363 c 128,-1,12
 319 398 319 398 266 398 c 128,-1,13
 213 398 213 398 192.5 363 c 128,-1,14
 172 328 172 328 172 251 c 128,-1,15
 172 174 172 174 192.5 138 c 128,-1,8
 213 102 213 102 266 102 c 128,-1,9
EndSplineSet
EndChar

StartChar: p
Encoding: 112 112 83
Width: 544
GlyphClass: 2
Flags: W
LayerCount: 2
Fore
SplineSet
62 -210 m 1,0,-1
 62 500 l 1,1,-1
 195 500 l 1,2,-1
 195 473 l 1,3,4
 260 512 260 512 309 512 c 0,5,6
 410 512 410 512 458 451.5 c 128,-1,7
 506 391 506 391 506 246 c 128,-1,8
 506 101 506 101 453 44.5 c 128,-1,9
 400 -12 400 -12 279 -12 c 0,10,11
 246 -12 246 -12 208 -6 c 2,12,-1
 196 -4 l 1,13,-1
 196 -210 l 1,14,-1
 62 -210 l 1,0,-1
283 392 m 0,15,16
 246 392 246 392 208 377 c 2,17,-1
 196 372 l 1,18,-1
 196 110 l 1,19,20
 241 104 241 104 269 104 c 0,21,22
 327 104 327 104 348.5 138 c 128,-1,23
 370 172 370 172 370 254 c 0,24,25
 370 392 370 392 283 392 c 0,15,16
EndSplineSet
EndChar

StartChar: q
Encoding: 113 113 84
Width: 543
GlyphClass: 2
Flags: W
LayerCount: 2
Fore
SplineSet
239 -12 m 0,0,1
 134 -12 134 -12 86 45.5 c 128,-1,2
 38 103 38 103 38 251.5 c 128,-1,3
 38 400 38 400 93.5 456 c 128,-1,4
 149 512 149 512 286 512 c 0,5,6
 347 512 347 512 445 502 c 1,7,-1
 481 499 l 1,8,-1
 481 -210 l 1,9,-1
 347 -210 l 1,10,-1
 347 15 l 1,11,12
 283 -12 283 -12 239 -12 c 0,0,1
286 396 m 0,13,14
 219 396 219 396 195.5 361.5 c 128,-1,15
 172 327 172 327 172 243 c 0,16,17
 172 108 172 108 257 108 c 0,18,19
 297 108 297 108 334 118 c 1,20,-1
 347 121 l 1,21,-1
 347 392 l 1,22,23
 310 396 310 396 286 396 c 0,13,14
EndSplineSet
EndChar

StartChar: r
Encoding: 114 114 85
Width: 372
GlyphClass: 2
Flags: W
LayerCount: 2
Fore
SplineSet
62 0 m 1,0,-1
 62 500 l 1,1,-1
 195 500 l 1,2,-1
 195 447 l 1,3,4
 279 497 279 497 355 512 c 1,5,-1
 355 377 l 1,6,7
 274 360 274 360 216 342 c 1,8,-1
 196 335 l 1,9,-1
 196 0 l 1,10,-1
 62 0 l 1,0,-1
EndSplineSet
EndChar

StartChar: s
Encoding: 115 115 86
Width: 472
GlyphClass: 2
Flags: W
LayerCount: 2
Fore
SplineSet
421 375 m 1,0,1
 297 391 297 391 247.5 391 c 128,-1,2
 198 391 198 391 183.5 382 c 128,-1,3
 169 373 169 373 169 353.5 c 128,-1,4
 169 334 169 334 188.5 326.5 c 128,-1,5
 208 319 208 319 288.5 304.5 c 128,-1,6
 369 290 369 290 403 257 c 128,-1,7
 437 224 437 224 437 150 c 0,8,9
 437 -12 437 -12 236 -12 c 0,10,11
 170 -12 170 -12 76 6 c 2,12,-1
 44 12 l 1,13,-1
 48 124 l 1,14,15
 172 108 172 108 220.5 108 c 128,-1,16
 269 108 269 108 286.5 117.5 c 128,-1,17
 304 127 304 127 304 146 c 128,-1,18
 304 165 304 165 285.5 174 c 128,-1,19
 267 183 267 183 189.5 196 c 128,-1,20
 112 209 112 209 74 240 c 128,-1,21
 36 271 36 271 36 350.5 c 128,-1,22
 36 430 36 430 90 470.5 c 128,-1,23
 144 511 144 511 229 511 c 0,24,25
 288 511 288 511 390 492 c 2,26,-1
 423 486 l 1,27,-1
 421 375 l 1,0,1
EndSplineSet
EndChar

StartChar: t
Encoding: 116 116 87
Width: 364
GlyphClass: 2
Flags: W
LayerCount: 2
Fore
SplineSet
339 386 m 1,0,-1
 216 386 l 1,1,-1
 216 181 l 2,2,3
 216 151 216 151 217.5 138.5 c 128,-1,4
 219 126 219 126 228.5 117 c 128,-1,5
 238 108 238 108 258 108 c 2,6,-1
 334 110 l 1,7,-1
 340 3 l 1,8,9
 273 -12 273 -12 238 -12 c 0,10,11
 148 -12 148 -12 115 28.5 c 128,-1,12
 82 69 82 69 82 178 c 2,13,-1
 82 386 l 1,14,-1
 23 386 l 1,15,-1
 23 500 l 1,16,-1
 82 500 l 1,17,-1
 82 639 l 1,18,-1
 216 639 l 1,19,-1
 216 500 l 1,20,-1
 339 500 l 1,21,-1
 339 386 l 1,0,-1
EndSplineSet
EndChar

StartChar: u
Encoding: 117 117 88
Width: 553
GlyphClass: 2
Flags: W
LayerCount: 2
Fore
SplineSet
357 500 m 1,0,-1
 491 500 l 1,1,-1
 491 0 l 1,2,-1
 358 0 l 1,3,-1
 358 28 l 1,4,5
 286 -12 286 -12 233 -12 c 0,6,7
 129 -12 129 -12 93 45.5 c 128,-1,8
 57 103 57 103 57 238 c 2,9,-1
 57 500 l 1,10,-1
 191 500 l 1,11,-1
 191 236 l 2,12,13
 191 162 191 162 203 135 c 128,-1,14
 215 108 215 108 261 108 c 0,15,16
 305 108 305 108 344 122 c 1,17,-1
 357 126 l 1,18,-1
 357 500 l 1,0,-1
EndSplineSet
EndChar

StartChar: v
Encoding: 118 118 89
Width: 498
GlyphClass: 2
Flags: W
LayerCount: 2
Fore
SplineSet
15 500 m 1,0,-1
 155 500 l 1,1,-1
 235 114 l 1,2,-1
 263 114 l 1,3,-1
 347 500 l 1,4,-1
 483 500 l 1,5,-1
 363 0 l 1,6,-1
 135 0 l 1,7,-1
 15 500 l 1,0,-1
EndSplineSet
EndChar

StartChar: w
Encoding: 119 119 90
Width: 772
GlyphClass: 2
Flags: W
LayerCount: 2
Fore
SplineSet
24 500 m 1,0,-1
 156 500 l 1,1,-1
 217 114 l 1,2,-1
 241 114 l 1,3,-1
 317 490 l 1,4,-1
 455 490 l 1,5,-1
 531 114 l 1,6,-1
 555 114 l 1,7,-1
 616 500 l 1,8,-1
 748 500 l 1,9,-1
 653 0 l 1,10,-1
 443 0 l 1,11,-1
 386 306 l 1,12,-1
 329 0 l 1,13,-1
 119 0 l 1,14,-1
 24 500 l 1,0,-1
EndSplineSet
EndChar

StartChar: x
Encoding: 120 120 91
Width: 474
GlyphClass: 2
Flags: W
LayerCount: 2
Fore
SplineSet
14 500 m 1,0,-1
 157 500 l 1,1,-1
 237 345 l 1,2,-1
 318 500 l 1,3,-1
 461 500 l 1,4,-1
 319 255 l 1,5,-1
 461 0 l 1,6,-1
 318 0 l 1,7,-1
 237 153 l 1,8,-1
 157 0 l 1,9,-1
 14 0 l 1,10,-1
 151 251 l 1,11,-1
 14 500 l 1,0,-1
EndSplineSet
EndChar

StartChar: y
Encoding: 121 121 92
Width: 500
GlyphClass: 2
Flags: W
LayerCount: 2
Fore
SplineSet
16 500 m 1,0,-1
 148 500 l 1,1,-1
 239 114 l 1,2,-1
 262 114 l 1,3,-1
 353 500 l 1,4,-1
 485 500 l 1,5,-1
 309 -210 l 1,6,-1
 178 -210 l 1,7,-1
 233 0 l 1,8,-1
 139 0 l 1,9,-1
 16 500 l 1,0,-1
EndSplineSet
EndChar

StartChar: z
Encoding: 122 122 93
Width: 454
GlyphClass: 2
Flags: W
LayerCount: 2
Fore
SplineSet
41 380 m 1,0,-1
 41 500 l 1,1,-1
 412 500 l 1,2,-1
 412 380 l 1,3,-1
 202 120 l 1,4,-1
 412 120 l 1,5,-1
 412 0 l 1,6,-1
 41 0 l 1,7,-1
 41 120 l 1,8,-1
 251 380 l 1,9,-1
 41 380 l 1,0,-1
EndSplineSet
EndChar

StartChar: braceleft
Encoding: 123 123 94
Width: 361
GlyphClass: 2
Flags: W
LayerCount: 2
Fore
SplineSet
251 576 m 1,0,-1
 258 448 l 1,1,2
 258 385 258 385 237.5 358 c 128,-1,3
 217 331 217 331 146 314 c 1,4,5
 216 297 216 297 237.5 266.5 c 128,-1,6
 259 236 259 236 259 172 c 1,7,-1
 252 55 l 1,8,9
 252 21 252 21 266.5 2 c 128,-1,10
 281 -17 281 -17 323 -20 c 1,11,-1
 323 -134 l 1,12,13
 212 -130 212 -130 166.5 -91 c 128,-1,14
 121 -52 121 -52 121 38 c 1,15,-1
 128 159 l 1,16,17
 128 232 128 232 16 261 c 1,18,-1
 16 365 l 1,19,20
 128 391 128 391 128 459 c 1,21,-1
 121 586 l 1,22,23
 121 681 121 681 166.5 719 c 128,-1,24
 212 757 212 757 325 761 c 1,25,-1
 325 647 l 1,26,27
 282 643 282 643 266.5 626 c 128,-1,28
 251 609 251 609 251 576 c 1,0,-1
EndSplineSet
Substitution2: "'case' Case-Sensitive Forms in Latin lookup 4 subtable" braceleft.cap
EndChar

StartChar: bar
Encoding: 124 124 95
Width: 268
GlyphClass: 2
Flags: W
LayerCount: 2
Fore
SplineSet
67 -210 m 1,0,-1
 67 700 l 1,1,-1
 201 700 l 1,2,-1
 201 -210 l 1,3,-1
 67 -210 l 1,0,-1
EndSplineSet
EndChar

StartChar: braceright
Encoding: 125 125 96
Width: 361
GlyphClass: 2
Flags: W
LayerCount: 2
Fore
SplineSet
109 55 m 1,0,-1
 102 172 l 1,1,2
 102 236 102 236 123.5 266.5 c 128,-1,3
 145 297 145 297 215 314 c 1,4,5
 144 331 144 331 123.5 358 c 128,-1,6
 103 385 103 385 103 448 c 1,7,-1
 110 576 l 1,8,9
 110 609 110 609 94.5 626 c 128,-1,10
 79 643 79 643 36 647 c 1,11,-1
 36 761 l 1,12,13
 149 757 149 757 194.5 719 c 128,-1,14
 240 681 240 681 240 586 c 1,15,-1
 233 459 l 1,16,17
 233 391 233 391 345 365 c 1,18,-1
 345 261 l 1,19,20
 233 232 233 232 233 159 c 1,21,-1
 240 38 l 1,22,23
 240 -52 240 -52 194.5 -91 c 128,-1,24
 149 -130 149 -130 38 -134 c 1,25,-1
 38 -20 l 1,26,27
 80 -17 80 -17 94.5 2 c 128,-1,28
 109 21 109 21 109 55 c 1,0,-1
EndSplineSet
Substitution2: "'case' Case-Sensitive Forms in Latin lookup 4 subtable" braceright.cap
EndChar

StartChar: asciitilde
Encoding: 126 126 97
Width: 560
GlyphClass: 2
Flags: W
LayerCount: 2
Fore
SplineSet
383 170 m 128,-1,1
 355 170 355 170 276 192 c 128,-1,2
 197 214 197 214 178 214 c 128,-1,3
 159 214 159 214 131.5 204 c 128,-1,4
 104 194 104 194 88 184 c 1,5,-1
 71 175 l 1,6,-1
 61 282 l 1,7,8
 124 334 124 334 184 334 c 0,9,10
 212 334 212 334 288 312 c 128,-1,11
 364 290 364 290 384 290 c 0,12,13
 421 290 421 290 472 318 c 1,14,-1
 489 328 l 1,15,-1
 497 221 l 1,16,17
 478 202 478 202 444.5 186 c 128,-1,0
 411 170 411 170 383 170 c 128,-1,1
EndSplineSet
EndChar

StartChar: exclamdown
Encoding: 161 161 99
Width: 264
GlyphClass: 2
Flags: W
LayerCount: 2
Fore
SplineSet
204 500 m 1,0,-1
 204 339 l 1,1,-1
 60 339 l 1,2,-1
 60 500 l 1,3,-1
 204 500 l 1,0,-1
191 250 m 1,4,-1
 204 -180 l 1,5,-1
 59 -180 l 1,6,-1
 73 250 l 1,7,-1
 191 250 l 1,4,-1
EndSplineSet
Substitution2: "'case' Case-Sensitive Forms in Latin lookup 4 subtable" exclamdown.cap
EndChar

StartChar: cent
Encoding: 162 162 100
Width: 560
GlyphClass: 2
Flags: W
LayerCount: 2
Fore
SplineSet
270 -75 m 1,0,-1
 270 29 l 1,1,2
 88 42 88 42 88 248.5 c 128,-1,3
 88 455 88 455 270 470 c 1,4,-1
 270 571 l 1,5,-1
 380 571 l 1,6,-1
 380 466 l 1,7,-1
 459 453 l 1,8,-1
 455 353 l 1,9,10
 376 356 376 356 325.5 356 c 128,-1,11
 275 356 275 356 249.5 331.5 c 128,-1,12
 224 307 224 307 224 250 c 128,-1,13
 224 193 224 193 250 168 c 128,-1,14
 276 143 276 143 339 143 c 1,15,-1
 455 147 l 1,16,-1
 459 47 l 1,17,18
 420 37 420 37 380 34 c 1,19,-1
 380 -75 l 1,20,-1
 270 -75 l 1,0,-1
EndSplineSet
EndChar

StartChar: sterling
Encoding: 163 163 101
Width: 560
GlyphClass: 2
Flags: W
LayerCount: 2
Fore
SplineSet
333 551 m 0,0,1
 281 551 281 551 281 486 c 2,2,-1
 281 433 l 1,3,-1
 434 433 l 1,4,-1
 434 319 l 1,5,-1
 281 319 l 1,6,-1
 281 114 l 1,7,-1
 405 114 l 1,8,-1
 474 130 l 1,9,-1
 495 18 l 1,10,-1
 414 0 l 1,11,-1
 75 0 l 1,12,-1
 75 114 l 1,13,-1
 149 114 l 1,14,-1
 149 319 l 1,15,-1
 85 319 l 1,16,-1
 85 433 l 1,17,-1
 149 433 l 1,18,-1
 149 492 l 2,19,20
 149 596 149 596 189 633.5 c 128,-1,21
 229 671 229 671 315 671 c 0,22,23
 382 671 382 671 446 653 c 2,24,-1
 468 647 l 1,25,-1
 464 543 l 1,26,27
 396 551 396 551 333 551 c 0,0,1
EndSplineSet
EndChar

StartChar: currency
Encoding: 164 164 102
Width: 560
GlyphClass: 2
Flags: W
LayerCount: 2
Fore
SplineSet
280 55 m 128,-1,1
 235 55 235 55 195 75 c 1,2,-1
 122 2 l 1,3,-1
 30 94 l 1,4,-1
 102 166 l 1,5,6
 83 207 83 207 83 251.5 c 128,-1,7
 83 296 83 296 102 337 c 1,8,-1
 30 410 l 1,9,-1
 122 502 l 1,10,-1
 194 429 l 1,11,12
 234 449 234 449 279.5 449 c 128,-1,13
 325 449 325 449 365 429 c 1,14,-1
 438 502 l 1,15,-1
 530 410 l 1,16,-1
 457 337 l 1,17,18
 477 297 477 297 477 251.5 c 128,-1,19
 477 206 477 206 457 166 c 1,20,-1
 530 94 l 1,21,-1
 438 2 l 1,22,-1
 365 75 l 1,23,0
 325 55 325 55 280 55 c 128,-1,1
280 166 m 128,-1,25
 315 166 315 166 340.5 191.5 c 128,-1,26
 366 217 366 217 366 252 c 128,-1,27
 366 287 366 287 340.5 312.5 c 128,-1,28
 315 338 315 338 280 338 c 128,-1,29
 245 338 245 338 219.5 312.5 c 128,-1,30
 194 287 194 287 194 252 c 128,-1,31
 194 217 194 217 219.5 191.5 c 128,-1,24
 245 166 245 166 280 166 c 128,-1,25
EndSplineSet
EndChar

StartChar: yen
Encoding: 165 165 103
Width: 560
GlyphClass: 2
Flags: W
LayerCount: 2
Fore
SplineSet
58 291 m 1,0,-1
 58 403 l 1,1,-1
 150 403 l 1,2,-1
 5 660 l 1,3,-1
 158 660 l 1,4,-1
 281 449 l 1,5,-1
 403 660 l 1,6,-1
 556 660 l 1,7,-1
 413 403 l 1,8,-1
 502 403 l 1,9,-1
 502 291 l 1,10,-1
 351 291 l 1,11,-1
 351 246 l 1,12,-1
 502 246 l 1,13,-1
 502 134 l 1,14,-1
 351 134 l 1,15,-1
 351 0 l 1,16,-1
 213 0 l 1,17,-1
 213 134 l 1,18,-1
 58 134 l 1,19,-1
 58 246 l 1,20,-1
 213 246 l 1,21,-1
 213 291 l 1,22,-1
 58 291 l 1,0,-1
EndSplineSet
EndChar

StartChar: brokenbar
Encoding: 166 166 104
Width: 272
GlyphClass: 2
Flags: W
LayerCount: 2
Fore
SplineSet
69 700 m 1,0,-1
 203 700 l 1,1,-1
 203 328 l 1,2,-1
 69 328 l 1,3,-1
 69 700 l 1,0,-1
69 170 m 1,4,-1
 203 170 l 1,5,-1
 203 -210 l 1,6,-1
 69 -210 l 1,7,-1
 69 170 l 1,4,-1
EndSplineSet
EndChar

StartChar: section
Encoding: 167 167 105
Width: 517
GlyphClass: 2
Flags: W
LayerCount: 2
Fore
SplineSet
444 506 m 1,0,1
 331 522 331 522 278 522 c 128,-1,2
 225 522 225 522 206 508 c 128,-1,3
 187 494 187 494 187 457 c 0,4,5
 187 435 187 435 214 423.5 c 128,-1,6
 241 412 241 412 327 391 c 128,-1,7
 413 370 413 370 444 341 c 128,-1,8
 475 312 475 312 475 242.5 c 128,-1,9
 475 173 475 173 425 102 c 1,10,11
 445 83 445 83 454 61 c 128,-1,12
 463 39 463 39 463 -7 c 0,13,14
 463 -104 463 -104 411.5 -147 c 128,-1,15
 360 -190 360 -190 246 -190 c 0,16,17
 190 -190 190 -190 91 -172 c 1,18,-1
 60 -167 l 1,19,-1
 73 -59 l 1,20,21
 181 -74 181 -74 234.5 -74 c 128,-1,22
 288 -74 288 -74 311.5 -60.5 c 128,-1,23
 335 -47 335 -47 335 -18.5 c 128,-1,24
 335 10 335 10 310 22 c 128,-1,25
 285 34 285 34 195 56.5 c 128,-1,26
 105 79 105 79 71 110.5 c 128,-1,27
 37 142 37 142 37 213 c 0,28,29
 37 248 37 248 57 287.5 c 128,-1,30
 77 327 77 327 101 347 c 1,31,32
 57 379 57 379 57 455 c 0,33,34
 57 638 57 638 274 638 c 0,35,36
 338 638 338 638 422 620 c 2,37,-1
 450 614 l 1,38,-1
 444 506 l 1,0,1
189 302 m 1,39,40
 172 276 172 276 172 242.5 c 128,-1,41
 172 209 172 209 183.5 198 c 128,-1,42
 195 187 195 187 234.5 176 c 128,-1,43
 274 165 274 165 321 149 c 1,44,45
 339 172 339 172 339 222 c 0,46,47
 339 247 339 247 323 259.5 c 128,-1,48
 307 272 307 272 278.5 279.5 c 128,-1,49
 250 287 250 287 225 293 c 128,-1,50
 200 299 200 299 189 302 c 1,39,40
EndSplineSet
EndChar

StartChar: dieresis
Encoding: 168 168 106
Width: 268
GlyphClass: 2
Flags: W
LayerCount: 2
Fore
SplineSet
-30 596 m 1,0,-1
 -30 728 l 1,1,-1
 98 728 l 1,2,-1
 98 596 l 1,3,-1
 -30 596 l 1,0,-1
186 596 m 1,4,-1
 186 728 l 1,5,-1
 314 728 l 1,6,-1
 314 596 l 1,7,-1
 186 596 l 1,4,-1
EndSplineSet
EndChar

StartChar: copyright
Encoding: 169 169 107
Width: 643
GlyphClass: 2
Flags: W
LayerCount: 2
Fore
SplineSet
124.5 232 m 128,-1,1
 46 314 46 314 46 435.5 c 128,-1,2
 46 557 46 557 124 637.5 c 128,-1,3
 202 718 202 718 323.5 718 c 128,-1,4
 445 718 445 718 521 635.5 c 128,-1,5
 597 553 597 553 597 432 c 128,-1,6
 597 311 597 311 521 230.5 c 128,-1,7
 445 150 445 150 324 150 c 128,-1,0
 203 150 203 150 124.5 232 c 128,-1,1
108 434 m 128,-1,9
 108 341 108 341 169 275.5 c 128,-1,10
 230 210 230 210 321.5 210 c 128,-1,11
 413 210 413 210 474 275 c 128,-1,12
 535 340 535 340 535 433 c 128,-1,13
 535 526 535 526 473.5 592 c 128,-1,14
 412 658 412 658 321.5 658 c 128,-1,15
 231 658 231 658 169.5 592.5 c 128,-1,8
 108 527 108 527 108 434 c 128,-1,9
414 287 m 1,16,17
 386 269 386 269 323.5 269 c 128,-1,18
 261 269 261 269 231.5 305 c 128,-1,19
 202 341 202 341 202 434.5 c 128,-1,20
 202 528 202 528 232.5 563 c 128,-1,21
 263 598 263 598 334 598 c 0,22,23
 373 598 373 598 404 586 c 1,24,-1
 414 583 l 1,25,-1
 407 497 l 1,26,27
 372 503 372 503 346 503 c 128,-1,28
 320 503 320 503 312.5 489 c 128,-1,29
 305 475 305 475 305 439 c 0,30,31
 305 364 305 364 340 364 c 1,32,-1
 407 369 l 1,33,-1
 414 287 l 1,16,17
EndSplineSet
EndChar

StartChar: ordfeminine
Encoding: 170 170 108
Width: 416
GlyphClass: 2
Flags: W
LayerCount: 2
Fore
SplineSet
351 544 m 2,0,-1
 351 403 l 1,1,2
 359 397 359 397 369 395 c 1,3,-1
 367 313 l 1,4,5
 299 313 299 313 275.5 320.5 c 128,-1,6
 252 328 252 328 240 346 c 1,7,8
 198 314 198 314 148 314 c 128,-1,9
 98 314 98 314 70 343.5 c 128,-1,10
 42 373 42 373 42 424 c 0,11,12
 42 519 42 519 169 525 c 2,13,-1
 236 528 l 1,14,-1
 236 550 l 2,15,16
 236 565 236 565 192 565 c 1,17,-1
 61 558 l 1,18,-1
 58 633 l 1,19,20
 128 659 128 659 202 659 c 128,-1,21
 276 659 276 659 313.5 634.5 c 128,-1,22
 351 610 351 610 351 544 c 2,0,-1
188 402 m 0,23,24
 206 402 206 402 236 418 c 1,25,-1
 236 458 l 1,26,-1
 189 455 l 2,27,28
 157 452 157 452 157 428 c 0,29,30
 157 402 157 402 188 402 c 0,23,24
EndSplineSet
EndChar

StartChar: guillemotleft
Encoding: 171 171 109
Width: 601
GlyphClass: 2
Flags: W
LayerCount: 2
Fore
SplineSet
263 319 m 1,0,-1
 154 244 l 1,1,-1
 263 158 l 1,2,-1
 263 23 l 1,3,-1
 40 194 l 1,4,-1
 40 290 l 1,5,-1
 263 454 l 1,6,-1
 263 319 l 1,0,-1
546 319 m 1,7,-1
 437 244 l 1,8,-1
 546 158 l 1,9,-1
 546 23 l 1,10,-1
 323 194 l 1,11,-1
 323 290 l 1,12,-1
 546 454 l 1,13,-1
 546 319 l 1,7,-1
EndSplineSet
EndChar

StartChar: logicalnot
Encoding: 172 172 110
Width: 560
GlyphClass: 2
Flags: W
LayerCount: 2
Fore
SplineSet
57 358 m 1,0,-1
 493 358 l 1,1,-1
 493 104 l 1,2,-1
 373 104 l 1,3,-1
 373 238 l 1,4,-1
 57 238 l 1,5,-1
 57 358 l 1,0,-1
EndSplineSet
EndChar

StartChar: registered
Encoding: 174 174 111
Width: 643
GlyphClass: 2
Flags: W
LayerCount: 2
Fore
SplineSet
124.5 231.5 m 128,-1,1
 46 313 46 313 46 435 c 128,-1,2
 46 557 46 557 124 637.5 c 128,-1,3
 202 718 202 718 323 718 c 128,-1,4
 444 718 444 718 520.5 635.5 c 128,-1,5
 597 553 597 553 597 432 c 128,-1,6
 597 311 597 311 521.5 230.5 c 128,-1,7
 446 150 446 150 324.5 150 c 128,-1,0
 203 150 203 150 124.5 231.5 c 128,-1,1
108 434 m 128,-1,9
 108 342 108 342 170 276 c 128,-1,10
 232 210 232 210 322.5 210 c 128,-1,11
 413 210 413 210 474 275.5 c 128,-1,12
 535 341 535 341 535 433.5 c 128,-1,13
 535 526 535 526 473.5 592 c 128,-1,14
 412 658 412 658 321.5 658 c 128,-1,15
 231 658 231 658 169.5 592 c 128,-1,8
 108 526 108 526 108 434 c 128,-1,9
297 369 m 1,16,-1
 297 276 l 1,17,-1
 201 276 l 1,18,-1
 201 591 l 1,19,-1
 337 591 l 2,20,21
 389 591 389 591 420 565.5 c 128,-1,22
 451 540 451 540 451 493.5 c 128,-1,23
 451 447 451 447 443 425.5 c 128,-1,24
 435 404 435 404 413 386 c 1,25,-1
 454 276 l 1,26,-1
 354 276 l 1,27,-1
 326 369 l 1,28,-1
 297 369 l 1,16,-1
296 519 m 1,29,-1
 296 440 l 1,30,-1
 324 440 l 2,31,32
 358 440 358 440 358 479.5 c 128,-1,33
 358 519 358 519 323 519 c 2,34,-1
 296 519 l 1,29,-1
EndSplineSet
EndChar

StartChar: macron
Encoding: 175 175 112
Width: 268
GlyphClass: 2
Flags: W
LayerCount: 2
Fore
SplineSet
-5 597 m 1,0,-1
 -5 697 l 1,1,-1
 282 697 l 1,2,-1
 282 597 l 1,3,-1
 -5 597 l 1,0,-1
EndSplineSet
EndChar

StartChar: degree
Encoding: 176 176 113
Width: 560
GlyphClass: 2
Flags: W
LayerCount: 2
Fore
SplineSet
130 542 m 128,-1,1
 130 609 130 609 171.5 650.5 c 128,-1,2
 213 692 213 692 280 692 c 128,-1,3
 347 692 347 692 388.5 650.5 c 128,-1,4
 430 609 430 609 430 542 c 128,-1,5
 430 475 430 475 388.5 434 c 128,-1,6
 347 393 347 393 280 393 c 128,-1,7
 213 393 213 393 171.5 434 c 128,-1,0
 130 475 130 475 130 542 c 128,-1,1
205 542 m 128,-1,9
 205 508 205 508 225.5 487 c 128,-1,10
 246 466 246 466 280 466 c 128,-1,11
 314 466 314 466 335.5 487 c 128,-1,12
 357 508 357 508 357 542 c 128,-1,13
 357 576 357 576 335.5 597.5 c 128,-1,14
 314 619 314 619 280 619 c 128,-1,15
 246 619 246 619 225.5 597.5 c 128,-1,8
 205 576 205 576 205 542 c 128,-1,9
EndSplineSet
EndChar

StartChar: plusminus
Encoding: 177 177 114
Width: 560
GlyphClass: 2
Flags: W
LayerCount: 2
Fore
SplineSet
50 270 m 1,0,-1
 50 390 l 1,1,-1
 219 390 l 1,2,-1
 219 498 l 1,3,-1
 339 498 l 1,4,-1
 339 390 l 1,5,-1
 510 390 l 1,6,-1
 510 270 l 1,7,-1
 339 270 l 1,8,-1
 339 170 l 1,9,-1
 219 170 l 1,10,-1
 219 270 l 1,11,-1
 50 270 l 1,0,-1
50 139 m 1,12,-1
 510 139 l 1,13,-1
 510 19 l 1,14,-1
 50 19 l 1,15,-1
 50 139 l 1,12,-1
EndSplineSet
EndChar

StartChar: twosuperior
Encoding: 178 178 115
Width: 280
GlyphClass: 2
Flags: W
LayerCount: 2
Fore
SplineSet
252 478 m 1,0,-1
 21 478 l 1,1,-1
 21 568 l 1,2,-1
 94 627 l 2,3,4
 140 664 140 664 140 684 c 0,5,6
 140 699 140 699 103 699 c 1,7,-1
 27 693 l 1,8,-1
 23 792 l 1,9,10
 96 801 96 801 149 801 c 128,-1,11
 202 801 202 801 227 778 c 128,-1,12
 252 755 252 755 252 711.5 c 128,-1,13
 252 668 252 668 239 645.5 c 128,-1,14
 226 623 226 623 196 601 c 2,15,-1
 158 573 l 1,16,-1
 252 573 l 1,17,-1
 252 478 l 1,0,-1
EndSplineSet
Substitution2: "Single Substitution lookup 5 subtable" twoinferior
EndChar

StartChar: threesuperior
Encoding: 179 179 116
Width: 280
GlyphClass: 2
Flags: W
LayerCount: 2
Fore
SplineSet
132 801 m 0,0,1
 253 801 253 801 253 712 c 0,2,3
 253 659 253 659 224 642 c 1,4,5
 259 627 259 627 259 572 c 0,6,7
 259 467 259 467 141 467 c 1,8,-1
 20 475 l 1,9,-1
 26 568 l 1,10,11
 87 562 87 562 118 562 c 128,-1,12
 149 562 149 562 149 578 c 0,13,14
 149 592 149 592 123 592 c 2,15,-1
 57 592 l 1,16,-1
 57 677 l 1,17,-1
 121 677 l 2,18,19
 141 677 141 677 141 691.5 c 128,-1,20
 141 706 141 706 114 706 c 1,21,-1
 30 701 l 1,22,-1
 24 792 l 1,23,24
 92 801 92 801 132 801 c 0,0,1
EndSplineSet
Substitution2: "Single Substitution lookup 5 subtable" threeinferior
EndChar

StartChar: acute
Encoding: 180 180 117
Width: 268
GlyphClass: 2
Flags: W
LayerCount: 2
Fore
SplineSet
5 651 m 1,0,-1
 257 753 l 1,1,-1
 297 638 l 1,2,-1
 35 564 l 1,3,-1
 5 651 l 1,0,-1
EndSplineSet
EndChar

StartChar: mu
Encoding: 181 181 118
Width: 560
GlyphClass: 2
Flags: W
LayerCount: 2
Fore
SplineSet
363 500 m 1,0,-1
 497 500 l 1,1,-1
 497 0 l 1,2,-1
 364 0 l 1,3,-1
 364 28 l 1,4,5
 292 -12 292 -12 239 -12 c 0,6,7
 216 -12 216 -12 197 -9 c 1,8,-1
 197 -210 l 1,9,-1
 63 -210 l 1,10,-1
 63 500 l 1,11,-1
 197 500 l 1,12,-1
 197 211 l 1,13,14
 198 153 198 153 211 130.5 c 128,-1,15
 224 108 224 108 267 108 c 0,16,17
 311 108 311 108 350 122 c 1,18,-1
 363 126 l 1,19,-1
 363 500 l 1,0,-1
EndSplineSet
EndChar

StartChar: paragraph
Encoding: 182 182 119
Width: 599
GlyphClass: 2
Flags: W
LayerCount: 2
Fore
SplineSet
397 0 m 1,0,-1
 397 566 l 1,1,-1
 335 566 l 1,2,-1
 335 0 l 1,3,-1
 221 0 l 1,4,-1
 221 286 l 1,5,-1
 214 286 l 2,6,7
 130 286 130 286 79 340.5 c 128,-1,8
 28 395 28 395 28 482 c 128,-1,9
 28 569 28 569 80 624.5 c 128,-1,10
 132 680 132 680 216 680 c 2,11,-1
 547 680 l 1,12,-1
 547 566 l 1,13,-1
 511 566 l 1,14,-1
 511 0 l 1,15,-1
 397 0 l 1,0,-1
EndSplineSet
EndChar

StartChar: periodcentered
Encoding: 183 183 120
Width: 256
GlyphClass: 2
Flags: W
LayerCount: 2
Fore
SplineSet
56 167 m 1,0,-1
 56 333 l 1,1,-1
 200 333 l 1,2,-1
 200 167 l 1,3,-1
 56 167 l 1,0,-1
EndSplineSet
Substitution2: "'case' Case-Sensitive Forms in Latin lookup 4 subtable" periodcentered.cap
EndChar

StartChar: cedilla
Encoding: 184 184 121
Width: 264
GlyphClass: 2
Flags: W
LayerCount: 2
Fore
SplineSet
204.5 -56 m 128,-1,1
 234 -74 234 -74 234 -129 c 128,-1,2
 234 -184 234 -184 205 -212.5 c 128,-1,3
 176 -241 176 -241 123 -241 c 0,4,5
 79 -241 79 -241 44 -233 c 2,6,-1
 30 -230 l 1,7,-1
 34 -152 l 1,8,9
 65 -153 65 -153 82 -153 c 0,10,11
 120 -153 120 -153 120 -127 c 0,12,13
 120 -105 120 -105 82 -105 c 2,14,-1
 58 -105 l 1,15,-1
 58 1 l 1,16,-1
 111 1 l 1,17,-1
 111 -37 l 1,18,0
 175 -38 175 -38 204.5 -56 c 128,-1,1
EndSplineSet
EndChar

StartChar: onesuperior
Encoding: 185 185 122
Width: 280
GlyphClass: 2
Flags: W
LayerCount: 2
Fore
SplineSet
212 790 m 1,0,-1
 212 478 l 1,1,-1
 106 478 l 1,2,-1
 106 673 l 1,3,-1
 59 641 l 1,4,-1
 10 715 l 1,5,-1
 116 790 l 1,6,-1
 212 790 l 1,0,-1
EndSplineSet
Substitution2: "Single Substitution lookup 5 subtable" oneinferior
EndChar

StartChar: ordmasculine
Encoding: 186 186 123
Width: 420
GlyphClass: 2
Flags: W
LayerCount: 2
Fore
SplineSet
211 659 m 0,0,1
 380 659 380 659 380 486.5 c 128,-1,2
 380 314 380 314 211 314 c 0,3,4
 40 314 40 314 40 486.5 c 128,-1,5
 40 659 40 659 211 659 c 0,0,1
211 419 m 128,-1,7
 240 419 240 419 249.5 435 c 128,-1,8
 259 451 259 451 259 488 c 128,-1,9
 259 525 259 525 249.5 540 c 128,-1,10
 240 555 240 555 211 555 c 128,-1,11
 182 555 182 555 171 539.5 c 128,-1,12
 160 524 160 524 160 488 c 128,-1,13
 160 452 160 452 171 435.5 c 128,-1,6
 182 419 182 419 211 419 c 128,-1,7
EndSplineSet
EndChar

StartChar: guillemotright
Encoding: 187 187 124
Width: 603
GlyphClass: 2
Flags: W
LayerCount: 2
Fore
SplineSet
447 244 m 1,0,-1
 338 319 l 1,1,-1
 338 454 l 1,2,-1
 561 290 l 1,3,-1
 561 194 l 1,4,-1
 338 23 l 1,5,-1
 338 158 l 1,6,-1
 447 244 l 1,0,-1
164 244 m 1,7,-1
 55 319 l 1,8,-1
 55 454 l 1,9,-1
 278 290 l 1,10,-1
 278 194 l 1,11,-1
 55 23 l 1,12,-1
 55 158 l 1,13,-1
 164 244 l 1,7,-1
EndSplineSet
EndChar

StartChar: onequarter
Encoding: 188 188 125
Width: 548
GlyphClass: 2
Flags: W
LayerCount: 2
Fore
SplineSet
220 790 m 1,0,-1
 220 478 l 1,1,-1
 114 478 l 1,2,-1
 114 673 l 1,3,-1
 67 641 l 1,4,-1
 18 715 l 1,5,-1
 124 790 l 1,6,-1
 220 790 l 1,0,-1
29 29 m 1,7,-1
 422 661 l 1,8,-1
 475 626 l 1,9,-1
 82 -7 l 1,10,-1
 29 29 l 1,7,-1
409 -100 m 1,11,-1
 409 -65 l 1,12,-1
 277 -65 l 1,13,-1
 277 23 l 1,14,-1
 316 212 l 1,15,-1
 434 212 l 1,16,-1
 382 30 l 1,17,-1
 409 30 l 1,18,-1
 423 120 l 1,19,-1
 514 120 l 1,20,-1
 514 30 l 1,21,-1
 525 30 l 1,22,-1
 525 -65 l 1,23,-1
 514 -65 l 1,24,-1
 514 -100 l 1,25,-1
 409 -100 l 1,11,-1
EndSplineSet
EndChar

StartChar: onehalf
Encoding: 189 189 126
Width: 542
GlyphClass: 2
Flags: W
LayerCount: 2
Fore
SplineSet
220 790 m 1,0,-1
 220 478 l 1,1,-1
 114 478 l 1,2,-1
 114 673 l 1,3,-1
 67 641 l 1,4,-1
 18 715 l 1,5,-1
 124 790 l 1,6,-1
 220 790 l 1,0,-1
29 29 m 1,7,-1
 422 661 l 1,8,-1
 475 626 l 1,9,-1
 82 -7 l 1,10,-1
 29 29 l 1,7,-1
512 -100 m 1,11,-1
 281 -100 l 1,12,-1
 281 -10 l 1,13,-1
 354 49 l 2,14,15
 400 86 400 86 400 106 c 0,16,17
 400 121 400 121 363 121 c 1,18,-1
 287 115 l 1,19,-1
 283 214 l 1,20,21
 356 223 356 223 409 223 c 128,-1,22
 462 223 462 223 487 200 c 128,-1,23
 512 177 512 177 512 133.5 c 128,-1,24
 512 90 512 90 499 67.5 c 128,-1,25
 486 45 486 45 456 23 c 2,26,-1
 418 -5 l 1,27,-1
 512 -5 l 1,28,-1
 512 -100 l 1,11,-1
EndSplineSet
EndChar

StartChar: threequarters
Encoding: 190 190 127
Width: 561
GlyphClass: 2
Flags: W
LayerCount: 2
Fore
SplineSet
148 801 m 0,0,1
 269 801 269 801 269 712 c 0,2,3
 269 659 269 659 240 642 c 1,4,5
 275 627 275 627 275 572 c 0,6,7
 275 467 275 467 157 467 c 1,8,-1
 36 475 l 1,9,-1
 42 568 l 1,10,11
 103 562 103 562 134 562 c 128,-1,12
 165 562 165 562 165 578 c 0,13,14
 165 592 165 592 139 592 c 2,15,-1
 73 592 l 1,16,-1
 73 677 l 1,17,-1
 137 677 l 2,18,19
 157 677 157 677 157 691.5 c 128,-1,20
 157 706 157 706 130 706 c 1,21,-1
 46 701 l 1,22,-1
 40 792 l 1,23,24
 108 801 108 801 148 801 c 0,0,1
43 29 m 1,25,-1
 436 661 l 1,26,-1
 489 626 l 1,27,-1
 96 -7 l 1,28,-1
 43 29 l 1,25,-1
423 -100 m 1,29,-1
 423 -65 l 1,30,-1
 291 -65 l 1,31,-1
 291 23 l 1,32,-1
 330 212 l 1,33,-1
 448 212 l 1,34,-1
 396 30 l 1,35,-1
 423 30 l 1,36,-1
 437 120 l 1,37,-1
 528 120 l 1,38,-1
 528 30 l 1,39,-1
 539 30 l 1,40,-1
 539 -65 l 1,41,-1
 528 -65 l 1,42,-1
 528 -100 l 1,43,-1
 423 -100 l 1,29,-1
EndSplineSet
EndChar

StartChar: questiondown
Encoding: 191 191 128
Width: 433
GlyphClass: 2
Flags: W
LayerCount: 2
Fore
SplineSet
77.5 -153 m 128,-1,1
 29 -114 29 -114 29 -36 c 128,-1,2
 29 42 29 42 44.5 77.5 c 128,-1,3
 60 113 60 113 110 150.5 c 128,-1,4
 160 188 160 188 173 208 c 128,-1,5
 186 228 186 228 186 252 c 2,6,-1
 186 283 l 1,7,-1
 293 283 l 1,8,9
 324 249 324 249 324 192 c 0,10,11
 324 156 324 156 260.5 105 c 128,-1,12
 197 54 197 54 182.5 34.5 c 128,-1,13
 168 15 168 15 168 -13 c 0,14,15
 168 -72 168 -72 253 -72 c 0,16,17
 313 -72 313 -72 376 -60 c 2,18,-1
 397 -56 l 1,19,-1
 404 -157 l 1,20,21
 318 -192 318 -192 222 -192 c 128,-1,0
 126 -192 126 -192 77.5 -153 c 128,-1,1
315 500 m 1,22,-1
 315 339 l 1,23,-1
 171 339 l 1,24,-1
 171 500 l 1,25,-1
 315 500 l 1,22,-1
EndSplineSet
Substitution2: "'case' Case-Sensitive Forms in Latin lookup 4 subtable" questiondown.cap
EndChar

StartChar: Agrave
Encoding: 192 192 129
Width: 602
GlyphClass: 2
Flags: W
LayerCount: 2
Fore
SplineSet
17 0 m 1,0,-1
 170 680 l 1,1,-1
 432 680 l 1,2,-1
 585 0 l 1,3,-1
 447 0 l 1,4,-1
 420 123 l 1,5,-1
 182 123 l 1,6,-1
 155 0 l 1,7,-1
 17 0 l 1,0,-1
277 566 m 1,8,-1
 208 243 l 1,9,-1
 394 243 l 1,10,-1
 325 566 l 1,11,-1
 277 566 l 1,8,-1
183 945 m 1,12,-1
 435 839 l 1,13,-1
 402 746 l 1,14,-1
 142 825 l 1,15,-1
 183 945 l 1,12,-1
EndSplineSet
Position2: "'cpsp' Capital Spacing in Latin lookup 0 subtable" dx=5 dy=0 dh=10 dv=0
EndChar

StartChar: Aacute
Encoding: 193 193 130
Width: 602
GlyphClass: 2
Flags: W
LayerCount: 2
Fore
SplineSet
17 0 m 1,0,-1
 170 680 l 1,1,-1
 432 680 l 1,2,-1
 585 0 l 1,3,-1
 447 0 l 1,4,-1
 420 123 l 1,5,-1
 182 123 l 1,6,-1
 155 0 l 1,7,-1
 17 0 l 1,0,-1
277 566 m 1,8,-1
 208 243 l 1,9,-1
 394 243 l 1,10,-1
 325 566 l 1,11,-1
 277 566 l 1,8,-1
162 839 m 1,12,-1
 414 945 l 1,13,-1
 455 825 l 1,14,-1
 195 746 l 1,15,-1
 162 839 l 1,12,-1
EndSplineSet
Position2: "'cpsp' Capital Spacing in Latin lookup 0 subtable" dx=5 dy=0 dh=10 dv=0
EndChar

StartChar: Acircumflex
Encoding: 194 194 131
Width: 602
GlyphClass: 2
Flags: W
LayerCount: 2
Fore
SplineSet
17 0 m 1,0,-1
 170 680 l 1,1,-1
 432 680 l 1,2,-1
 585 0 l 1,3,-1
 447 0 l 1,4,-1
 420 123 l 1,5,-1
 182 123 l 1,6,-1
 155 0 l 1,7,-1
 17 0 l 1,0,-1
277 566 m 1,8,-1
 208 243 l 1,9,-1
 394 243 l 1,10,-1
 325 566 l 1,11,-1
 277 566 l 1,8,-1
107 765 m 1,12,-1
 241 914 l 1,13,-1
 358 914 l 1,14,-1
 492 765 l 1,15,-1
 350 765 l 1,16,-1
 301 821 l 1,17,-1
 249 765 l 1,18,-1
 107 765 l 1,12,-1
EndSplineSet
Position2: "'cpsp' Capital Spacing in Latin lookup 0 subtable" dx=5 dy=0 dh=10 dv=0
EndChar

StartChar: Atilde
Encoding: 195 195 132
Width: 602
GlyphClass: 2
Flags: W
LayerCount: 2
Fore
SplineSet
17 0 m 1,0,-1
 170 680 l 1,1,-1
 432 680 l 1,2,-1
 585 0 l 1,3,-1
 447 0 l 1,4,-1
 420 123 l 1,5,-1
 182 123 l 1,6,-1
 155 0 l 1,7,-1
 17 0 l 1,0,-1
277 566 m 1,8,-1
 208 243 l 1,9,-1
 394 243 l 1,10,-1
 325 566 l 1,11,-1
 277 566 l 1,8,-1
377 758 m 128,-1,13
 351 758 351 758 287.5 781 c 128,-1,14
 224 804 224 804 211 804 c 0,15,16
 186 804 186 804 144 772 c 1,17,-1
 130 762 l 1,18,-1
 101 858 l 1,19,20
 121 882 121 882 152.5 902 c 128,-1,21
 184 922 184 922 213.5 922 c 128,-1,22
 243 922 243 922 304 899 c 128,-1,23
 365 876 365 876 376 876 c 0,24,25
 399 876 399 876 442 908 c 1,26,-1
 457 918 l 1,27,-1
 486 821 l 1,28,29
 465 797 465 797 434 777.5 c 128,-1,12
 403 758 403 758 377 758 c 128,-1,13
EndSplineSet
Position2: "'cpsp' Capital Spacing in Latin lookup 0 subtable" dx=5 dy=0 dh=10 dv=0
EndChar

StartChar: Adieresis
Encoding: 196 196 133
Width: 602
GlyphClass: 2
Flags: W
LayerCount: 2
Fore
SplineSet
17 0 m 1,0,-1
 170 680 l 1,1,-1
 432 680 l 1,2,-1
 585 0 l 1,3,-1
 447 0 l 1,4,-1
 420 123 l 1,5,-1
 182 123 l 1,6,-1
 155 0 l 1,7,-1
 17 0 l 1,0,-1
277 566 m 1,8,-1
 208 243 l 1,9,-1
 394 243 l 1,10,-1
 325 566 l 1,11,-1
 277 566 l 1,8,-1
129 764 m 1,12,-1
 129 896 l 1,13,-1
 257 896 l 1,14,-1
 257 764 l 1,15,-1
 129 764 l 1,12,-1
343 764 m 1,16,-1
 343 896 l 1,17,-1
 471 896 l 1,18,-1
 471 764 l 1,19,-1
 343 764 l 1,16,-1
EndSplineSet
Position2: "'cpsp' Capital Spacing in Latin lookup 0 subtable" dx=5 dy=0 dh=10 dv=0
EndChar

StartChar: Aring
Encoding: 197 197 134
Width: 602
GlyphClass: 2
Flags: W
LayerCount: 2
Fore
SplineSet
451 721 m 0,0,1
 451 690 451 690 436 662 c 1,2,-1
 585 0 l 1,3,-1
 447 0 l 1,4,-1
 420 123 l 1,5,-1
 182 123 l 1,6,-1
 155 0 l 1,7,-1
 17 0 l 1,8,-1
 166 662 l 1,9,10
 151 688 151 688 151 721 c 0,11,12
 151 780 151 780 194 813.5 c 128,-1,13
 237 847 237 847 301 847 c 128,-1,14
 365 847 365 847 408 813.5 c 128,-1,15
 451 780 451 780 451 721 c 0,0,1
277 566 m 1,16,-1
 208 243 l 1,17,-1
 394 243 l 1,18,-1
 325 566 l 1,19,-1
 277 566 l 1,16,-1
258 751 m 128,-1,21
 242 740 242 740 242 721.5 c 128,-1,22
 242 703 242 703 256 692 c 128,-1,23
 270 681 270 681 295 680 c 1,24,-1
 301 680 l 2,25,26
 328 680 328 680 344 691 c 128,-1,27
 360 702 360 702 360 721 c 128,-1,28
 360 740 360 740 344 751 c 128,-1,29
 328 762 328 762 301 762 c 128,-1,20
 274 762 274 762 258 751 c 128,-1,21
EndSplineSet
Position2: "'cpsp' Capital Spacing in Latin lookup 0 subtable" dx=5 dy=0 dh=10 dv=0
EndChar

StartChar: AE
Encoding: 198 198 135
Width: 871
GlyphClass: 2
Flags: W
LayerCount: 2
Fore
SplineSet
392 0 m 1,0,-1
 392 116 l 1,1,-1
 179 116 l 1,2,-1
 150 0 l 1,3,-1
 12 0 l 1,4,-1
 196 690 l 1,5,-1
 830 690 l 1,6,-1
 830 558 l 1,7,-1
 528 558 l 1,8,-1
 528 415 l 1,9,-1
 770 415 l 1,10,-1
 770 284 l 1,11,-1
 528 284 l 1,12,-1
 528 132 l 1,13,-1
 830 132 l 1,14,-1
 830 0 l 1,15,-1
 392 0 l 1,0,-1
293 558 m 1,16,-1
 213 249 l 1,17,-1
 392 249 l 1,18,-1
 393 558 l 1,19,-1
 293 558 l 1,16,-1
EndSplineSet
Position2: "'cpsp' Capital Spacing in Latin lookup 0 subtable" dx=5 dy=0 dh=10 dv=0
EndChar

StartChar: Ccedilla
Encoding: 199 199 136
Width: 543
GlyphClass: 2
Flags: W
LayerCount: 2
Fore
SplineSet
408.5 -56 m 128,-1,1
 438 -74 438 -74 438 -129 c 128,-1,2
 438 -184 438 -184 409 -212.5 c 128,-1,3
 380 -241 380 -241 327 -241 c 0,4,5
 284 -241 284 -241 248 -233 c 2,6,-1
 234 -230 l 1,7,-1
 238 -152 l 1,8,9
 269 -153 269 -153 286 -153 c 0,10,11
 324 -153 324 -153 324 -127 c 0,12,13
 324 -105 324 -105 286 -105 c 2,14,-1
 262 -105 l 1,15,-1
 262 -10 l 1,16,17
 138 2 138 2 92.5 84 c 128,-1,18
 47 166 47 166 47 351.5 c 128,-1,19
 47 537 47 537 102.5 614.5 c 128,-1,20
 158 692 158 692 307 692 c 0,21,22
 393 692 393 692 506 665 c 1,23,-1
 502 555 l 1,24,25
 403 570 403 570 337.5 570 c 128,-1,26
 272 570 272 570 244 552.5 c 128,-1,27
 216 535 216 535 202.5 486 c 128,-1,28
 189 437 189 437 189 319 c 128,-1,29
 189 201 189 201 216.5 155.5 c 128,-1,30
 244 110 244 110 326.5 110 c 128,-1,31
 409 110 409 110 502 124 c 1,32,-1
 505 11 l 1,33,34
 411 -10 411 -10 315 -12 c 1,35,-1
 315 -37 l 1,36,0
 379 -38 379 -38 408.5 -56 c 128,-1,1
EndSplineSet
Position2: "'cpsp' Capital Spacing in Latin lookup 0 subtable" dx=5 dy=0 dh=10 dv=0
EndChar

StartChar: Egrave
Encoding: 200 200 137
Width: 554
GlyphClass: 2
Flags: W
LayerCount: 2
Fore
SplineSet
74 0 m 1,0,-1
 74 680 l 1,1,-1
 514 680 l 1,2,-1
 514 560 l 1,3,-1
 212 560 l 1,4,-1
 212 401 l 1,5,-1
 454 401 l 1,6,-1
 454 283 l 1,7,-1
 212 283 l 1,8,-1
 212 120 l 1,9,-1
 514 120 l 1,10,-1
 514 0 l 1,11,-1
 74 0 l 1,0,-1
180 945 m 1,12,-1
 432 839 l 1,13,-1
 399 746 l 1,14,-1
 139 825 l 1,15,-1
 180 945 l 1,12,-1
EndSplineSet
Position2: "'cpsp' Capital Spacing in Latin lookup 0 subtable" dx=5 dy=0 dh=10 dv=0
EndChar

StartChar: Eacute
Encoding: 201 201 138
Width: 554
GlyphClass: 2
Flags: W
LayerCount: 2
Fore
SplineSet
74 0 m 1,0,-1
 74 680 l 1,1,-1
 514 680 l 1,2,-1
 514 560 l 1,3,-1
 212 560 l 1,4,-1
 212 401 l 1,5,-1
 454 401 l 1,6,-1
 454 283 l 1,7,-1
 212 283 l 1,8,-1
 212 120 l 1,9,-1
 514 120 l 1,10,-1
 514 0 l 1,11,-1
 74 0 l 1,0,-1
154 839 m 1,12,-1
 406 945 l 1,13,-1
 447 825 l 1,14,-1
 187 746 l 1,15,-1
 154 839 l 1,12,-1
EndSplineSet
Position2: "'cpsp' Capital Spacing in Latin lookup 0 subtable" dx=5 dy=0 dh=10 dv=0
EndChar

StartChar: Ecircumflex
Encoding: 202 202 139
Width: 554
GlyphClass: 2
Flags: W
LayerCount: 2
Fore
SplineSet
74 0 m 1,0,-1
 74 680 l 1,1,-1
 514 680 l 1,2,-1
 514 560 l 1,3,-1
 212 560 l 1,4,-1
 212 401 l 1,5,-1
 454 401 l 1,6,-1
 454 283 l 1,7,-1
 212 283 l 1,8,-1
 212 120 l 1,9,-1
 514 120 l 1,10,-1
 514 0 l 1,11,-1
 74 0 l 1,0,-1
105 765 m 1,12,-1
 239 914 l 1,13,-1
 356 914 l 1,14,-1
 490 765 l 1,15,-1
 348 765 l 1,16,-1
 299 821 l 1,17,-1
 247 765 l 1,18,-1
 105 765 l 1,12,-1
EndSplineSet
Position2: "'cpsp' Capital Spacing in Latin lookup 0 subtable" dx=5 dy=0 dh=10 dv=0
EndChar

StartChar: Edieresis
Encoding: 203 203 140
Width: 554
GlyphClass: 2
Flags: W
LayerCount: 2
Fore
SplineSet
74 0 m 1,0,-1
 74 680 l 1,1,-1
 514 680 l 1,2,-1
 514 560 l 1,3,-1
 212 560 l 1,4,-1
 212 401 l 1,5,-1
 454 401 l 1,6,-1
 454 283 l 1,7,-1
 212 283 l 1,8,-1
 212 120 l 1,9,-1
 514 120 l 1,10,-1
 514 0 l 1,11,-1
 74 0 l 1,0,-1
123 764 m 1,12,-1
 123 896 l 1,13,-1
 251 896 l 1,14,-1
 251 764 l 1,15,-1
 123 764 l 1,12,-1
337 764 m 1,16,-1
 337 896 l 1,17,-1
 465 896 l 1,18,-1
 465 764 l 1,19,-1
 337 764 l 1,16,-1
EndSplineSet
Position2: "'cpsp' Capital Spacing in Latin lookup 0 subtable" dx=5 dy=0 dh=10 dv=0
EndChar

StartChar: Igrave
Encoding: 204 204 141
Width: 286
GlyphClass: 2
Flags: W
LayerCount: 2
Fore
SplineSet
74 0 m 1,0,-1
 74 680 l 1,1,-1
 212 680 l 1,2,-1
 212 0 l 1,3,-1
 74 0 l 1,0,-1
17 945 m 1,4,-1
 269 839 l 1,5,-1
 236 746 l 1,6,-1
 -24 825 l 1,7,-1
 17 945 l 1,4,-1
EndSplineSet
Position2: "'cpsp' Capital Spacing in Latin lookup 0 subtable" dx=5 dy=0 dh=10 dv=0
EndChar

StartChar: Iacute
Encoding: 205 205 142
Width: 286
GlyphClass: 2
Flags: W
LayerCount: 2
Fore
SplineSet
74 0 m 1,0,-1
 74 680 l 1,1,-1
 212 680 l 1,2,-1
 212 0 l 1,3,-1
 74 0 l 1,0,-1
7 839 m 1,4,-1
 259 945 l 1,5,-1
 300 825 l 1,6,-1
 40 746 l 1,7,-1
 7 839 l 1,4,-1
EndSplineSet
Position2: "'cpsp' Capital Spacing in Latin lookup 0 subtable" dx=5 dy=0 dh=10 dv=0
EndChar

StartChar: Icircumflex
Encoding: 206 206 143
Width: 286
GlyphClass: 2
Flags: W
LayerCount: 2
Fore
SplineSet
74 0 m 1,0,-1
 74 680 l 1,1,-1
 212 680 l 1,2,-1
 212 0 l 1,3,-1
 74 0 l 1,0,-1
-50 765 m 1,4,-1
 84 914 l 1,5,-1
 201 914 l 1,6,-1
 335 765 l 1,7,-1
 193 765 l 1,8,-1
 144 821 l 1,9,-1
 92 765 l 1,10,-1
 -50 765 l 1,4,-1
EndSplineSet
Position2: "'cpsp' Capital Spacing in Latin lookup 0 subtable" dx=5 dy=0 dh=10 dv=0
EndChar

StartChar: Idieresis
Encoding: 207 207 144
Width: 286
GlyphClass: 2
Flags: W
LayerCount: 2
Fore
SplineSet
74 0 m 1,0,-1
 74 680 l 1,1,-1
 212 680 l 1,2,-1
 212 0 l 1,3,-1
 74 0 l 1,0,-1
-28 764 m 1,4,-1
 -28 896 l 1,5,-1
 100 896 l 1,6,-1
 100 764 l 1,7,-1
 -28 764 l 1,4,-1
186 764 m 1,8,-1
 186 896 l 1,9,-1
 314 896 l 1,10,-1
 314 764 l 1,11,-1
 186 764 l 1,8,-1
EndSplineSet
Position2: "'cpsp' Capital Spacing in Latin lookup 0 subtable" dx=5 dy=0 dh=10 dv=0
EndChar

StartChar: Eth
Encoding: 208 208 145
Width: 642
GlyphClass: 2
Flags: W
LayerCount: 2
Fore
SplineSet
25 277 m 1,0,-1
 25 409 l 1,1,-1
 79 409 l 1,2,-1
 79 690 l 1,3,-1
 306 690 l 2,4,5
 394 690 394 690 451 671 c 128,-1,6
 508 652 508 652 539.5 608.5 c 128,-1,7
 571 565 571 565 583 506.5 c 128,-1,8
 595 448 595 448 595 355.5 c 128,-1,9
 595 263 595 263 584 202 c 128,-1,10
 573 141 573 141 542.5 92.5 c 128,-1,11
 512 44 512 44 454 22 c 128,-1,12
 396 0 396 0 306 0 c 2,13,-1
 79 0 l 1,14,-1
 79 277 l 1,15,-1
 25 277 l 1,0,-1
453 354 m 0,16,17
 453 397 453 397 451.5 422 c 128,-1,18
 450 447 450 447 445 472 c 128,-1,19
 440 497 440 497 430 511.5 c 128,-1,20
 420 526 420 526 404 538 c 0,21,22
 373 559 373 559 306 559 c 2,23,-1
 215 559 l 1,24,-1
 215 409 l 1,25,-1
 345 409 l 1,26,-1
 345 277 l 1,27,-1
 215 277 l 1,28,-1
 215 131 l 1,29,-1
 306 131 l 2,30,31
 381 131 381 131 416 169 c 0,32,33
 453 210 453 210 453 354 c 0,16,17
EndSplineSet
Position2: "'cpsp' Capital Spacing in Latin lookup 0 subtable" dx=5 dy=0 dh=10 dv=0
EndChar

StartChar: Ntilde
Encoding: 209 209 146
Width: 693
GlyphClass: 2
Flags: W
LayerCount: 2
Fore
SplineSet
74 0 m 1,0,-1
 74 680 l 1,1,-1
 307 680 l 1,2,-1
 471 120 l 1,3,-1
 481 120 l 1,4,-1
 481 680 l 1,5,-1
 619 680 l 1,6,-1
 619 0 l 1,7,-1
 392 0 l 1,8,-1
 222 560 l 1,9,-1
 212 560 l 1,10,-1
 212 0 l 1,11,-1
 74 0 l 1,0,-1
425 758 m 128,-1,13
 399 758 399 758 335.5 781 c 128,-1,14
 272 804 272 804 259 804 c 0,15,16
 234 804 234 804 192 772 c 1,17,-1
 178 762 l 1,18,-1
 149 858 l 1,19,20
 169 882 169 882 200.5 902 c 128,-1,21
 232 922 232 922 261.5 922 c 128,-1,22
 291 922 291 922 352 899 c 128,-1,23
 413 876 413 876 424 876 c 0,24,25
 447 876 447 876 490 908 c 1,26,-1
 505 918 l 1,27,-1
 534 821 l 1,28,29
 513 797 513 797 482 777.5 c 128,-1,12
 451 758 451 758 425 758 c 128,-1,13
EndSplineSet
Position2: "'cpsp' Capital Spacing in Latin lookup 0 subtable" dx=5 dy=0 dh=10 dv=0
EndChar

StartChar: Ograve
Encoding: 210 210 147
Width: 652
GlyphClass: 2
Flags: W
LayerCount: 2
Fore
SplineSet
326 108 m 128,-1,1
 407 108 407 108 436.5 160.5 c 128,-1,2
 466 213 466 213 466 336.5 c 128,-1,3
 466 460 466 460 436 516 c 128,-1,4
 406 572 406 572 326 572 c 128,-1,5
 246 572 246 572 216 516 c 128,-1,6
 186 460 186 460 186 336.5 c 128,-1,7
 186 213 186 213 215.5 160.5 c 128,-1,0
 245 108 245 108 326 108 c 128,-1,1
326 -12 m 128,-1,9
 171 -12 171 -12 107.5 72.5 c 128,-1,10
 44 157 44 157 44 337 c 128,-1,11
 44 517 44 517 107.5 604.5 c 128,-1,12
 171 692 171 692 326 692 c 128,-1,13
 481 692 481 692 544.5 604.5 c 128,-1,14
 608 517 608 517 608 337 c 128,-1,15
 608 157 608 157 544.5 72.5 c 128,-1,8
 481 -12 481 -12 326 -12 c 128,-1,9
204 945 m 1,16,-1
 456 839 l 1,17,-1
 423 746 l 1,18,-1
 163 825 l 1,19,-1
 204 945 l 1,16,-1
EndSplineSet
Position2: "'cpsp' Capital Spacing in Latin lookup 0 subtable" dx=5 dy=0 dh=10 dv=0
EndChar

StartChar: Oacute
Encoding: 211 211 148
Width: 652
GlyphClass: 2
Flags: W
LayerCount: 2
Fore
SplineSet
326 108 m 128,-1,1
 407 108 407 108 436.5 160.5 c 128,-1,2
 466 213 466 213 466 336.5 c 128,-1,3
 466 460 466 460 436 516 c 128,-1,4
 406 572 406 572 326 572 c 128,-1,5
 246 572 246 572 216 516 c 128,-1,6
 186 460 186 460 186 336.5 c 128,-1,7
 186 213 186 213 215.5 160.5 c 128,-1,0
 245 108 245 108 326 108 c 128,-1,1
326 -12 m 128,-1,9
 171 -12 171 -12 107.5 72.5 c 128,-1,10
 44 157 44 157 44 337 c 128,-1,11
 44 517 44 517 107.5 604.5 c 128,-1,12
 171 692 171 692 326 692 c 128,-1,13
 481 692 481 692 544.5 604.5 c 128,-1,14
 608 517 608 517 608 337 c 128,-1,15
 608 157 608 157 544.5 72.5 c 128,-1,8
 481 -12 481 -12 326 -12 c 128,-1,9
167 839 m 1,16,-1
 419 945 l 1,17,-1
 460 825 l 1,18,-1
 200 746 l 1,19,-1
 167 839 l 1,16,-1
EndSplineSet
Position2: "'cpsp' Capital Spacing in Latin lookup 0 subtable" dx=5 dy=0 dh=10 dv=0
EndChar

StartChar: Ocircumflex
Encoding: 212 212 149
Width: 652
GlyphClass: 2
Flags: W
LayerCount: 2
Fore
SplineSet
326 108 m 128,-1,1
 407 108 407 108 436.5 160.5 c 128,-1,2
 466 213 466 213 466 336.5 c 128,-1,3
 466 460 466 460 436 516 c 128,-1,4
 406 572 406 572 326 572 c 128,-1,5
 246 572 246 572 216 516 c 128,-1,6
 186 460 186 460 186 336.5 c 128,-1,7
 186 213 186 213 215.5 160.5 c 128,-1,0
 245 108 245 108 326 108 c 128,-1,1
326 -12 m 128,-1,9
 171 -12 171 -12 107.5 72.5 c 128,-1,10
 44 157 44 157 44 337 c 128,-1,11
 44 517 44 517 107.5 604.5 c 128,-1,12
 171 692 171 692 326 692 c 128,-1,13
 481 692 481 692 544.5 604.5 c 128,-1,14
 608 517 608 517 608 337 c 128,-1,15
 608 157 608 157 544.5 72.5 c 128,-1,8
 481 -12 481 -12 326 -12 c 128,-1,9
135 765 m 1,16,-1
 269 914 l 1,17,-1
 386 914 l 1,18,-1
 520 765 l 1,19,-1
 378 765 l 1,20,-1
 329 821 l 1,21,-1
 277 765 l 1,22,-1
 135 765 l 1,16,-1
EndSplineSet
Position2: "'cpsp' Capital Spacing in Latin lookup 0 subtable" dx=5 dy=0 dh=10 dv=0
EndChar

StartChar: Otilde
Encoding: 213 213 150
Width: 652
GlyphClass: 2
Flags: W
LayerCount: 2
Fore
SplineSet
326 108 m 128,-1,1
 407 108 407 108 436.5 160.5 c 128,-1,2
 466 213 466 213 466 336.5 c 128,-1,3
 466 460 466 460 436 516 c 128,-1,4
 406 572 406 572 326 572 c 128,-1,5
 246 572 246 572 216 516 c 128,-1,6
 186 460 186 460 186 336.5 c 128,-1,7
 186 213 186 213 215.5 160.5 c 128,-1,0
 245 108 245 108 326 108 c 128,-1,1
326 -12 m 128,-1,9
 171 -12 171 -12 107.5 72.5 c 128,-1,10
 44 157 44 157 44 337 c 128,-1,11
 44 517 44 517 107.5 604.5 c 128,-1,12
 171 692 171 692 326 692 c 128,-1,13
 481 692 481 692 544.5 604.5 c 128,-1,14
 608 517 608 517 608 337 c 128,-1,15
 608 157 608 157 544.5 72.5 c 128,-1,8
 481 -12 481 -12 326 -12 c 128,-1,9
409 758 m 128,-1,17
 383 758 383 758 319.5 781 c 128,-1,18
 256 804 256 804 243 804 c 0,19,20
 218 804 218 804 176 772 c 1,21,-1
 162 762 l 1,22,-1
 133 858 l 1,23,24
 153 882 153 882 184.5 902 c 128,-1,25
 216 922 216 922 245.5 922 c 128,-1,26
 275 922 275 922 336 899 c 128,-1,27
 397 876 397 876 408 876 c 0,28,29
 431 876 431 876 474 908 c 1,30,-1
 489 918 l 1,31,-1
 518 821 l 1,32,33
 497 797 497 797 466 777.5 c 128,-1,16
 435 758 435 758 409 758 c 128,-1,17
EndSplineSet
Position2: "'cpsp' Capital Spacing in Latin lookup 0 subtable" dx=5 dy=0 dh=10 dv=0
EndChar

StartChar: Odieresis
Encoding: 214 214 151
Width: 652
GlyphClass: 2
Flags: W
LayerCount: 2
Fore
SplineSet
326 108 m 128,-1,1
 407 108 407 108 436.5 160.5 c 128,-1,2
 466 213 466 213 466 336.5 c 128,-1,3
 466 460 466 460 436 516 c 128,-1,4
 406 572 406 572 326 572 c 128,-1,5
 246 572 246 572 216 516 c 128,-1,6
 186 460 186 460 186 336.5 c 128,-1,7
 186 213 186 213 215.5 160.5 c 128,-1,0
 245 108 245 108 326 108 c 128,-1,1
326 -12 m 128,-1,9
 171 -12 171 -12 107.5 72.5 c 128,-1,10
 44 157 44 157 44 337 c 128,-1,11
 44 517 44 517 107.5 604.5 c 128,-1,12
 171 692 171 692 326 692 c 128,-1,13
 481 692 481 692 544.5 604.5 c 128,-1,14
 608 517 608 517 608 337 c 128,-1,15
 608 157 608 157 544.5 72.5 c 128,-1,8
 481 -12 481 -12 326 -12 c 128,-1,9
155 764 m 1,16,-1
 155 896 l 1,17,-1
 283 896 l 1,18,-1
 283 764 l 1,19,-1
 155 764 l 1,16,-1
369 764 m 1,20,-1
 369 896 l 1,21,-1
 497 896 l 1,22,-1
 497 764 l 1,23,-1
 369 764 l 1,20,-1
EndSplineSet
Position2: "'cpsp' Capital Spacing in Latin lookup 0 subtable" dx=5 dy=0 dh=10 dv=0
EndChar

StartChar: multiply
Encoding: 215 215 152
Width: 560
GlyphClass: 2
Flags: W
LayerCount: 2
Fore
SplineSet
142 473 m 1,0,-1
 280 332 l 1,1,-1
 420 475 l 1,2,-1
 504 390 l 1,3,-1
 361 250 l 1,4,-1
 504 111 l 1,5,-1
 419 26 l 1,6,-1
 280 168 l 1,7,-1
 141 27 l 1,8,-1
 56 111 l 1,9,-1
 198 250 l 1,10,-1
 57 388 l 1,11,-1
 142 473 l 1,0,-1
EndSplineSet
EndChar

StartChar: Oslash
Encoding: 216 216 153
Width: 652
GlyphClass: 2
Flags: W
LayerCount: 2
Fore
SplineSet
326 -12 m 0,0,1
 277 -12 277 -12 230 -2 c 1,2,-1
 172 -127 l 1,3,-1
 74 -78 l 1,4,-1
 132 46 l 1,5,6
 44 124 44 124 44 336 c 0,7,8
 44 517 44 517 107.5 604.5 c 128,-1,9
 171 692 171 692 326 692 c 0,10,11
 384 692 384 692 427 680 c 1,12,-1
 488 810 l 1,13,-1
 588 767 l 1,14,-1
 523 627 l 1,15,16
 608 545 608 545 608 336 c 0,17,18
 608 157 608 157 544.5 72.5 c 128,-1,19
 481 -12 481 -12 326 -12 c 0,0,1
216 516 m 128,-1,21
 186 460 186 460 186 351.5 c 128,-1,22
 186 243 186 243 201 194 c 1,23,-1
 374 565 l 1,24,25
 350 572 350 572 326 572 c 0,26,20
 246 572 246 572 216 516 c 128,-1,21
326 108 m 0,27,28
 407 108 407 108 436.5 160.5 c 128,-1,29
 466 213 466 213 466 319 c 128,-1,30
 466 425 466 425 452 475 c 1,31,-1
 283 112 l 1,32,33
 300 108 300 108 326 108 c 0,27,28
EndSplineSet
Position2: "'cpsp' Capital Spacing in Latin lookup 0 subtable" dx=5 dy=0 dh=10 dv=0
EndChar

StartChar: Ugrave
Encoding: 217 217 154
Width: 654
GlyphClass: 2
Flags: W
LayerCount: 2
Fore
SplineSet
206 227 m 2,0,1
 206 108 206 108 327 108 c 128,-1,2
 448 108 448 108 448 227 c 2,3,-1
 448 680 l 1,4,-1
 586 680 l 1,5,-1
 586 230 l 2,6,7
 586 105 586 105 521.5 46.5 c 128,-1,8
 457 -12 457 -12 327 -12 c 128,-1,9
 197 -12 197 -12 132.5 46.5 c 128,-1,10
 68 105 68 105 68 230 c 2,11,-1
 68 680 l 1,12,-1
 206 680 l 1,13,-1
 206 227 l 2,0,1
216 945 m 1,14,-1
 468 839 l 1,15,-1
 435 746 l 1,16,-1
 175 825 l 1,17,-1
 216 945 l 1,14,-1
EndSplineSet
Position2: "'cpsp' Capital Spacing in Latin lookup 0 subtable" dx=5 dy=0 dh=10 dv=0
EndChar

StartChar: Uacute
Encoding: 218 218 155
Width: 654
GlyphClass: 2
Flags: W
LayerCount: 2
Fore
SplineSet
206 227 m 2,0,1
 206 108 206 108 327 108 c 128,-1,2
 448 108 448 108 448 227 c 2,3,-1
 448 680 l 1,4,-1
 586 680 l 1,5,-1
 586 230 l 2,6,7
 586 105 586 105 521.5 46.5 c 128,-1,8
 457 -12 457 -12 327 -12 c 128,-1,9
 197 -12 197 -12 132.5 46.5 c 128,-1,10
 68 105 68 105 68 230 c 2,11,-1
 68 680 l 1,12,-1
 206 680 l 1,13,-1
 206 227 l 2,0,1
175 839 m 1,14,-1
 427 945 l 1,15,-1
 468 825 l 1,16,-1
 208 746 l 1,17,-1
 175 839 l 1,14,-1
EndSplineSet
Position2: "'cpsp' Capital Spacing in Latin lookup 0 subtable" dx=5 dy=0 dh=10 dv=0
EndChar

StartChar: Ucircumflex
Encoding: 219 219 156
Width: 654
GlyphClass: 2
Flags: W
LayerCount: 2
Fore
SplineSet
206 227 m 2,0,1
 206 108 206 108 327 108 c 128,-1,2
 448 108 448 108 448 227 c 2,3,-1
 448 680 l 1,4,-1
 586 680 l 1,5,-1
 586 230 l 2,6,7
 586 105 586 105 521.5 46.5 c 128,-1,8
 457 -12 457 -12 327 -12 c 128,-1,9
 197 -12 197 -12 132.5 46.5 c 128,-1,10
 68 105 68 105 68 230 c 2,11,-1
 68 680 l 1,12,-1
 206 680 l 1,13,-1
 206 227 l 2,0,1
135 765 m 1,14,-1
 269 914 l 1,15,-1
 386 914 l 1,16,-1
 520 765 l 1,17,-1
 378 765 l 1,18,-1
 329 821 l 1,19,-1
 277 765 l 1,20,-1
 135 765 l 1,14,-1
EndSplineSet
Position2: "'cpsp' Capital Spacing in Latin lookup 0 subtable" dx=5 dy=0 dh=10 dv=0
EndChar

StartChar: Udieresis
Encoding: 220 220 157
Width: 654
GlyphClass: 2
Flags: W
LayerCount: 2
Fore
SplineSet
206 227 m 2,0,1
 206 108 206 108 327 108 c 128,-1,2
 448 108 448 108 448 227 c 2,3,-1
 448 680 l 1,4,-1
 586 680 l 1,5,-1
 586 230 l 2,6,7
 586 105 586 105 521.5 46.5 c 128,-1,8
 457 -12 457 -12 327 -12 c 128,-1,9
 197 -12 197 -12 132.5 46.5 c 128,-1,10
 68 105 68 105 68 230 c 2,11,-1
 68 680 l 1,12,-1
 206 680 l 1,13,-1
 206 227 l 2,0,1
156 764 m 1,14,-1
 156 896 l 1,15,-1
 284 896 l 1,16,-1
 284 764 l 1,17,-1
 156 764 l 1,14,-1
370 764 m 1,18,-1
 370 896 l 1,19,-1
 498 896 l 1,20,-1
 498 764 l 1,21,-1
 370 764 l 1,18,-1
EndSplineSet
Position2: "'cpsp' Capital Spacing in Latin lookup 0 subtable" dx=5 dy=0 dh=10 dv=0
EndChar

StartChar: Yacute
Encoding: 221 221 158
Width: 557
GlyphClass: 2
Flags: W
LayerCount: 2
Fore
SplineSet
348 0 m 1,0,-1
 210 0 l 1,1,-1
 210 275 l 1,2,-1
 0 680 l 1,3,-1
 153 680 l 1,4,-1
 278 409 l 1,5,-1
 403 680 l 1,6,-1
 556 680 l 1,7,-1
 348 275 l 1,8,-1
 348 0 l 1,0,-1
133 839 m 1,9,-1
 385 945 l 1,10,-1
 426 825 l 1,11,-1
 166 746 l 1,12,-1
 133 839 l 1,9,-1
EndSplineSet
Position2: "'cpsp' Capital Spacing in Latin lookup 0 subtable" dx=5 dy=0 dh=10 dv=0
EndChar

StartChar: Thorn
Encoding: 222 222 159
Width: 596
GlyphClass: 2
Flags: W
LayerCount: 2
Fore
SplineSet
323 233 m 2,0,1
 374 233 374 233 401 264.5 c 128,-1,2
 428 296 428 296 428 353 c 0,3,4
 428 460 428 460 323 460 c 2,5,-1
 212 460 l 1,6,-1
 212 233 l 1,7,-1
 323 233 l 2,0,1
324 99 m 2,8,-1
 212 99 l 1,9,-1
 212 0 l 1,10,-1
 74 0 l 1,11,-1
 74 690 l 1,12,-1
 212 690 l 1,13,-1
 212 592 l 1,14,-1
 324 592 l 2,15,16
 568 592 568 592 568 353 c 0,17,18
 568 232 568 232 505.5 165.5 c 128,-1,19
 443 99 443 99 324 99 c 2,8,-1
EndSplineSet
Position2: "'cpsp' Capital Spacing in Latin lookup 0 subtable" dx=5 dy=0 dh=10 dv=0
EndChar

StartChar: germandbls
Encoding: 223 223 160
Width: 611
GlyphClass: 2
Flags: W
LayerCount: 2
Fore
SplineSet
196 0 m 1,0,-1
 62 0 l 1,1,-1
 62 522 l 2,2,3
 62 624 62 624 115.5 668 c 128,-1,4
 169 712 169 712 289 712 c 128,-1,5
 409 712 409 712 466 675 c 128,-1,6
 523 638 523 638 523 555 c 0,7,8
 523 501 523 501 501.5 476 c 128,-1,9
 480 451 480 451 436 431.5 c 128,-1,10
 392 412 392 412 381 403 c 128,-1,11
 370 394 370 394 370 380 c 128,-1,12
 370 366 370 366 386 354 c 128,-1,13
 402 342 402 342 468.5 311.5 c 128,-1,14
 535 281 535 281 561.5 251.5 c 128,-1,15
 588 222 588 222 588 164 c 0,16,17
 588 63 588 63 542.5 25.5 c 128,-1,18
 497 -12 497 -12 386 -12 c 0,19,20
 332 -12 332 -12 256 6 c 1,21,-1
 232 11 l 1,22,-1
 236 118 l 1,23,24
 333 106 333 106 370 106 c 0,25,26
 450 106 450 106 450 144 c 0,27,28
 450 167 450 167 435 179 c 128,-1,29
 420 191 420 191 354 219 c 128,-1,30
 288 247 288 247 260 280.5 c 128,-1,31
 232 314 232 314 232 365 c 128,-1,32
 232 416 232 416 250 444 c 128,-1,33
 268 472 268 472 312 490 c 128,-1,34
 356 508 356 508 370.5 519 c 128,-1,35
 385 530 385 530 385 551 c 128,-1,36
 385 572 385 572 365 583 c 128,-1,37
 345 594 345 594 291.5 594 c 128,-1,38
 238 594 238 594 217 576.5 c 128,-1,39
 196 559 196 559 196 519 c 2,40,-1
 196 0 l 1,0,-1
EndSplineSet
EndChar

StartChar: agrave
Encoding: 224 224 161
Width: 511
GlyphClass: 2
Flags: W
LayerCount: 2
Fore
SplineSet
445 344 m 2,0,-1
 445 136 l 1,1,2
 447 112 447 112 453 102.5 c 128,-1,3
 459 93 459 93 478 89 c 1,4,-1
 474 -12 l 1,5,6
 423 -12 423 -12 392.5 -5 c 128,-1,7
 362 2 362 2 331 23 c 1,8,9
 259 -12 259 -12 184 -12 c 0,10,11
 29 -12 29 -12 29 152 c 0,12,13
 29 232 29 232 72 265.5 c 128,-1,14
 115 299 115 299 204 305 c 2,15,-1
 311 313 l 1,16,-1
 311 344 l 2,17,18
 311 375 311 375 297 386.5 c 128,-1,19
 283 398 283 398 252 398 c 1,20,-1
 64 390 l 1,21,-1
 60 483 l 1,22,23
 167 512 167 512 263.5 512 c 128,-1,24
 360 512 360 512 402.5 472 c 128,-1,25
 445 432 445 432 445 344 c 2,0,-1
220 212 m 2,26,27
 164 207 164 207 164 152 c 128,-1,28
 164 97 164 97 213 97 c 0,29,30
 251 97 251 97 296 109 c 2,31,-1
 311 113 l 1,32,-1
 311 220 l 1,33,-1
 220 212 l 2,26,27
143 753 m 1,34,-1
 395 651 l 1,35,-1
 365 564 l 1,36,-1
 103 638 l 1,37,-1
 143 753 l 1,34,-1
EndSplineSet
EndChar

StartChar: aacute
Encoding: 225 225 162
Width: 511
GlyphClass: 2
Flags: W
LayerCount: 2
Fore
SplineSet
445 344 m 2,0,-1
 445 136 l 1,1,2
 447 112 447 112 453 102.5 c 128,-1,3
 459 93 459 93 478 89 c 1,4,-1
 474 -12 l 1,5,6
 423 -12 423 -12 392.5 -5 c 128,-1,7
 362 2 362 2 331 23 c 1,8,9
 259 -12 259 -12 184 -12 c 0,10,11
 29 -12 29 -12 29 152 c 0,12,13
 29 232 29 232 72 265.5 c 128,-1,14
 115 299 115 299 204 305 c 2,15,-1
 311 313 l 1,16,-1
 311 344 l 2,17,18
 311 375 311 375 297 386.5 c 128,-1,19
 283 398 283 398 252 398 c 1,20,-1
 64 390 l 1,21,-1
 60 483 l 1,22,23
 167 512 167 512 263.5 512 c 128,-1,24
 360 512 360 512 402.5 472 c 128,-1,25
 445 432 445 432 445 344 c 2,0,-1
220 212 m 2,26,27
 164 207 164 207 164 152 c 128,-1,28
 164 97 164 97 213 97 c 0,29,30
 251 97 251 97 296 109 c 2,31,-1
 311 113 l 1,32,-1
 311 220 l 1,33,-1
 220 212 l 2,26,27
96 651 m 1,34,-1
 348 753 l 1,35,-1
 388 638 l 1,36,-1
 126 564 l 1,37,-1
 96 651 l 1,34,-1
EndSplineSet
EndChar

StartChar: acircumflex
Encoding: 226 226 163
Width: 511
GlyphClass: 2
Flags: W
LayerCount: 2
Fore
SplineSet
445 344 m 2,0,-1
 445 136 l 1,1,2
 447 112 447 112 453 102.5 c 128,-1,3
 459 93 459 93 478 89 c 1,4,-1
 474 -12 l 1,5,6
 423 -12 423 -12 392.5 -5 c 128,-1,7
 362 2 362 2 331 23 c 1,8,9
 259 -12 259 -12 184 -12 c 0,10,11
 29 -12 29 -12 29 152 c 0,12,13
 29 232 29 232 72 265.5 c 128,-1,14
 115 299 115 299 204 305 c 2,15,-1
 311 313 l 1,16,-1
 311 344 l 2,17,18
 311 375 311 375 297 386.5 c 128,-1,19
 283 398 283 398 252 398 c 1,20,-1
 64 390 l 1,21,-1
 60 483 l 1,22,23
 167 512 167 512 263.5 512 c 128,-1,24
 360 512 360 512 402.5 472 c 128,-1,25
 445 432 445 432 445 344 c 2,0,-1
220 212 m 2,26,27
 164 207 164 207 164 152 c 128,-1,28
 164 97 164 97 213 97 c 0,29,30
 251 97 251 97 296 109 c 2,31,-1
 311 113 l 1,32,-1
 311 220 l 1,33,-1
 220 212 l 2,26,27
83 580 m 1,34,-1
 209 731 l 1,35,-1
 293 731 l 1,36,-1
 421 580 l 1,37,-1
 298 580 l 1,38,-1
 252 647 l 1,39,-1
 206 580 l 1,40,-1
 83 580 l 1,34,-1
EndSplineSet
EndChar

StartChar: atilde
Encoding: 227 227 164
Width: 511
GlyphClass: 2
Flags: W
LayerCount: 2
Fore
SplineSet
445 344 m 2,0,-1
 445 136 l 1,1,2
 447 112 447 112 453 102.5 c 128,-1,3
 459 93 459 93 478 89 c 1,4,-1
 474 -12 l 1,5,6
 423 -12 423 -12 392.5 -5 c 128,-1,7
 362 2 362 2 331 23 c 1,8,9
 259 -12 259 -12 184 -12 c 0,10,11
 29 -12 29 -12 29 152 c 0,12,13
 29 232 29 232 72 265.5 c 128,-1,14
 115 299 115 299 204 305 c 2,15,-1
 311 313 l 1,16,-1
 311 344 l 2,17,18
 311 375 311 375 297 386.5 c 128,-1,19
 283 398 283 398 252 398 c 1,20,-1
 64 390 l 1,21,-1
 60 483 l 1,22,23
 167 512 167 512 263.5 512 c 128,-1,24
 360 512 360 512 402.5 472 c 128,-1,25
 445 432 445 432 445 344 c 2,0,-1
220 212 m 2,26,27
 164 207 164 207 164 152 c 128,-1,28
 164 97 164 97 213 97 c 0,29,30
 251 97 251 97 296 109 c 2,31,-1
 311 113 l 1,32,-1
 311 220 l 1,33,-1
 220 212 l 2,26,27
340 602 m 128,-1,35
 312 585 312 585 289.5 585 c 128,-1,36
 267 585 267 585 221 603 c 128,-1,37
 175 621 175 621 162 621 c 0,38,39
 133 621 133 621 96 598 c 2,40,-1
 83 590 l 1,41,-1
 54 665 l 1,42,43
 74 688 74 688 104.5 706.5 c 128,-1,44
 135 725 135 725 157.5 725 c 128,-1,45
 180 725 180 725 226.5 707 c 128,-1,46
 273 689 273 689 285 689 c 0,47,48
 309 689 309 689 351 714 c 1,49,-1
 365 723 l 1,50,-1
 394 647 l 1,51,52
 388 640 388 640 378 629.5 c 128,-1,34
 368 619 368 619 340 602 c 128,-1,35
EndSplineSet
EndChar

StartChar: adieresis
Encoding: 228 228 165
Width: 511
GlyphClass: 2
Flags: W
LayerCount: 2
Fore
SplineSet
445 344 m 2,0,-1
 445 136 l 1,1,2
 447 112 447 112 453 102.5 c 128,-1,3
 459 93 459 93 478 89 c 1,4,-1
 474 -12 l 1,5,6
 423 -12 423 -12 392.5 -5 c 128,-1,7
 362 2 362 2 331 23 c 1,8,9
 259 -12 259 -12 184 -12 c 0,10,11
 29 -12 29 -12 29 152 c 0,12,13
 29 232 29 232 72 265.5 c 128,-1,14
 115 299 115 299 204 305 c 2,15,-1
 311 313 l 1,16,-1
 311 344 l 2,17,18
 311 375 311 375 297 386.5 c 128,-1,19
 283 398 283 398 252 398 c 1,20,-1
 64 390 l 1,21,-1
 60 483 l 1,22,23
 167 512 167 512 263.5 512 c 128,-1,24
 360 512 360 512 402.5 472 c 128,-1,25
 445 432 445 432 445 344 c 2,0,-1
220 212 m 2,26,27
 164 207 164 207 164 152 c 128,-1,28
 164 97 164 97 213 97 c 0,29,30
 251 97 251 97 296 109 c 2,31,-1
 311 113 l 1,32,-1
 311 220 l 1,33,-1
 220 212 l 2,26,27
65 596 m 1,34,-1
 65 728 l 1,35,-1
 193 728 l 1,36,-1
 193 596 l 1,37,-1
 65 596 l 1,34,-1
281 596 m 1,38,-1
 281 728 l 1,39,-1
 409 728 l 1,40,-1
 409 596 l 1,41,-1
 281 596 l 1,38,-1
EndSplineSet
EndChar

StartChar: aring
Encoding: 229 229 166
Width: 511
GlyphClass: 2
Flags: W
LayerCount: 2
Fore
SplineSet
445 344 m 2,0,-1
 445 136 l 1,1,2
 447 112 447 112 453 102.5 c 128,-1,3
 459 93 459 93 478 89 c 1,4,-1
 474 -12 l 1,5,6
 423 -12 423 -12 392.5 -5 c 128,-1,7
 362 2 362 2 331 23 c 1,8,9
 259 -12 259 -12 184 -12 c 0,10,11
 29 -12 29 -12 29 152 c 0,12,13
 29 232 29 232 72 265.5 c 128,-1,14
 115 299 115 299 204 305 c 2,15,-1
 311 313 l 1,16,-1
 311 344 l 2,17,18
 311 375 311 375 297 386.5 c 128,-1,19
 283 398 283 398 252 398 c 1,20,-1
 64 390 l 1,21,-1
 60 483 l 1,22,23
 167 512 167 512 263.5 512 c 128,-1,24
 360 512 360 512 402.5 472 c 128,-1,25
 445 432 445 432 445 344 c 2,0,-1
220 212 m 2,26,27
 164 207 164 207 164 152 c 128,-1,28
 164 97 164 97 213 97 c 0,29,30
 251 97 251 97 296 109 c 2,31,-1
 311 113 l 1,32,-1
 311 220 l 1,33,-1
 220 212 l 2,26,27
181.5 554.5 m 128,-1,35
 148 588 148 588 148 637.5 c 128,-1,36
 148 687 148 687 181.5 721 c 128,-1,37
 215 755 215 755 264.5 755 c 128,-1,38
 314 755 314 755 348 721 c 128,-1,39
 382 687 382 687 382 637.5 c 128,-1,40
 382 588 382 588 348 554.5 c 128,-1,41
 314 521 314 521 264.5 521 c 128,-1,34
 215 521 215 521 181.5 554.5 c 128,-1,35
220 638 m 128,-1,43
 220 618 220 618 233 605 c 128,-1,44
 246 592 246 592 266 592 c 128,-1,45
 286 592 286 592 298.5 605 c 128,-1,46
 311 618 311 618 311 638 c 128,-1,47
 311 658 311 658 298.5 670.5 c 128,-1,48
 286 683 286 683 266 683 c 128,-1,49
 246 683 246 683 233 670.5 c 128,-1,42
 220 658 220 658 220 638 c 128,-1,43
EndSplineSet
EndChar

StartChar: ae
Encoding: 230 230 167
Width: 784
GlyphClass: 2
Flags: W
LayerCount: 2
Fore
SplineSet
469 130 m 128,-1,1
 492 111 492 111 537 111 c 0,2,3
 605 111 605 111 703 118 c 2,4,-1
 731 120 l 1,5,-1
 733 16 l 1,6,7
 618 -12 618 -12 520.5 -12 c 128,-1,8
 423 -12 423 -12 372 36 c 1,9,-1
 349 25 l 1,10,11
 265 -12 265 -12 185 -12 c 128,-1,12
 105 -12 105 -12 67 31.5 c 128,-1,13
 29 75 29 75 29 153.5 c 128,-1,14
 29 232 29 232 72.5 266.5 c 128,-1,15
 116 301 116 301 203 306 c 2,16,-1
 311 313 l 1,17,-1
 311 338 l 2,18,19
 311 358 311 358 297 370.5 c 128,-1,20
 283 383 283 383 256 383 c 0,21,22
 184 383 184 383 99 375 c 2,23,-1
 67 372 l 1,24,-1
 63 489 l 1,25,26
 196 511 196 511 275.5 511 c 128,-1,27
 355 511 355 511 398 474 c 1,28,29
 450 511 450 511 531 511 c 0,30,31
 749 511 749 511 749 286 c 1,32,-1
 739 192 l 1,33,-1
 445 192 l 1,34,0
 446 149 446 149 469 130 c 128,-1,1
311 118 m 1,35,-1
 310 211 l 1,36,-1
 220 207 l 2,37,38
 164 204 164 204 164 156 c 0,39,40
 164 103 164 103 205 103 c 0,41,42
 245 103 245 103 294 114 c 2,43,-1
 311 118 l 1,35,-1
445 295 m 1,44,-1
 617 295 l 1,45,46
 617 348 617 348 597.5 370 c 128,-1,47
 578 392 578 392 530.5 392 c 128,-1,48
 483 392 483 392 464 369 c 128,-1,49
 445 346 445 346 445 295 c 1,44,-1
EndSplineSet
EndChar

StartChar: ccedilla
Encoding: 231 231 168
Width: 446
GlyphClass: 2
Flags: W
LayerCount: 2
Fore
SplineSet
348.5 -56 m 128,-1,1
 378 -74 378 -74 378 -129 c 128,-1,2
 378 -184 378 -184 349 -212.5 c 128,-1,3
 320 -241 320 -241 267 -241 c 0,4,5
 224 -241 224 -241 188 -233 c 2,6,-1
 174 -230 l 1,7,-1
 178 -152 l 1,8,9
 209 -153 209 -153 226 -153 c 0,10,11
 264 -153 264 -153 264 -127 c 0,12,13
 264 -105 264 -105 226 -105 c 2,14,-1
 202 -105 l 1,15,-1
 202 -9 l 1,16,17
 115 2 115 2 76.5 65 c 128,-1,18
 38 128 38 128 38 258.5 c 128,-1,19
 38 389 38 389 88 450.5 c 128,-1,20
 138 512 138 512 249 512 c 0,21,22
 301 512 301 512 382 496 c 1,23,-1
 409 490 l 1,24,-1
 405 384 l 1,25,26
 326 392 326 392 288 392 c 0,27,28
 219 392 219 392 196.5 362.5 c 128,-1,29
 174 333 174 333 174 251 c 128,-1,30
 174 169 174 169 196.5 138.5 c 128,-1,31
 219 108 219 108 289 108 c 1,32,-1
 405 116 l 1,33,-1
 409 9 l 1,34,35
 312 -10 312 -10 255 -12 c 1,36,-1
 255 -37 l 1,37,0
 319 -38 319 -38 348.5 -56 c 128,-1,1
EndSplineSet
EndChar

StartChar: egrave
Encoding: 232 232 169
Width: 510
GlyphClass: 2
Flags: W
LayerCount: 2
Fore
SplineSet
196.5 126.5 m 128,-1,1
 220 106 220 106 264 106 c 0,2,3
 357 106 357 106 430 112 c 1,4,-1
 458 115 l 1,5,-1
 460 16 l 1,6,7
 345 -12 345 -12 252 -12 c 0,8,9
 139 -12 139 -12 88 48 c 128,-1,10
 37 108 37 108 37 243 c 0,11,12
 37 512 37 512 258 512 c 0,13,14
 476 512 476 512 476 286 c 1,15,-1
 466 193 l 1,16,-1
 172 193 l 1,17,0
 173 147 173 147 196.5 126.5 c 128,-1,1
344 295 m 1,18,19
 344 355 344 355 325 378.5 c 128,-1,20
 306 402 306 402 258.5 402 c 128,-1,21
 211 402 211 402 191.5 377.5 c 128,-1,22
 172 353 172 353 171 295 c 1,23,-1
 344 295 l 1,18,19
150 753 m 1,24,-1
 402 651 l 1,25,-1
 372 564 l 1,26,-1
 110 638 l 1,27,-1
 150 753 l 1,24,-1
EndSplineSet
EndChar

StartChar: eacute
Encoding: 233 233 170
Width: 510
GlyphClass: 2
Flags: W
LayerCount: 2
Fore
SplineSet
196.5 126.5 m 128,-1,1
 220 106 220 106 264 106 c 0,2,3
 357 106 357 106 430 112 c 1,4,-1
 458 115 l 1,5,-1
 460 16 l 1,6,7
 345 -12 345 -12 252 -12 c 0,8,9
 139 -12 139 -12 88 48 c 128,-1,10
 37 108 37 108 37 243 c 0,11,12
 37 512 37 512 258 512 c 0,13,14
 476 512 476 512 476 286 c 1,15,-1
 466 193 l 1,16,-1
 172 193 l 1,17,0
 173 147 173 147 196.5 126.5 c 128,-1,1
344 295 m 1,18,19
 344 355 344 355 325 378.5 c 128,-1,20
 306 402 306 402 258.5 402 c 128,-1,21
 211 402 211 402 191.5 377.5 c 128,-1,22
 172 353 172 353 171 295 c 1,23,-1
 344 295 l 1,18,19
105 651 m 1,24,-1
 357 753 l 1,25,-1
 397 638 l 1,26,-1
 135 564 l 1,27,-1
 105 651 l 1,24,-1
EndSplineSet
EndChar

StartChar: ecircumflex
Encoding: 234 234 171
Width: 510
GlyphClass: 2
Flags: W
LayerCount: 2
Fore
SplineSet
196.5 126.5 m 128,-1,1
 220 106 220 106 264 106 c 0,2,3
 357 106 357 106 430 112 c 1,4,-1
 458 115 l 1,5,-1
 460 16 l 1,6,7
 345 -12 345 -12 252 -12 c 0,8,9
 139 -12 139 -12 88 48 c 128,-1,10
 37 108 37 108 37 243 c 0,11,12
 37 512 37 512 258 512 c 0,13,14
 476 512 476 512 476 286 c 1,15,-1
 466 193 l 1,16,-1
 172 193 l 1,17,0
 173 147 173 147 196.5 126.5 c 128,-1,1
344 295 m 1,18,19
 344 355 344 355 325 378.5 c 128,-1,20
 306 402 306 402 258.5 402 c 128,-1,21
 211 402 211 402 191.5 377.5 c 128,-1,22
 172 353 172 353 171 295 c 1,23,-1
 344 295 l 1,18,19
89 580 m 1,24,-1
 215 731 l 1,25,-1
 299 731 l 1,26,-1
 427 580 l 1,27,-1
 304 580 l 1,28,-1
 258 647 l 1,29,-1
 212 580 l 1,30,-1
 89 580 l 1,24,-1
EndSplineSet
EndChar

StartChar: edieresis
Encoding: 235 235 172
Width: 510
GlyphClass: 2
Flags: W
LayerCount: 2
Fore
SplineSet
196.5 126.5 m 128,-1,1
 220 106 220 106 264 106 c 0,2,3
 357 106 357 106 430 112 c 1,4,-1
 458 115 l 1,5,-1
 460 16 l 1,6,7
 345 -12 345 -12 252 -12 c 0,8,9
 139 -12 139 -12 88 48 c 128,-1,10
 37 108 37 108 37 243 c 0,11,12
 37 512 37 512 258 512 c 0,13,14
 476 512 476 512 476 286 c 1,15,-1
 466 193 l 1,16,-1
 172 193 l 1,17,0
 173 147 173 147 196.5 126.5 c 128,-1,1
344 295 m 1,18,19
 344 355 344 355 325 378.5 c 128,-1,20
 306 402 306 402 258.5 402 c 128,-1,21
 211 402 211 402 191.5 377.5 c 128,-1,22
 172 353 172 353 171 295 c 1,23,-1
 344 295 l 1,18,19
84 596 m 1,24,-1
 84 728 l 1,25,-1
 212 728 l 1,26,-1
 212 596 l 1,27,-1
 84 596 l 1,24,-1
300 596 m 1,28,-1
 300 728 l 1,29,-1
 428 728 l 1,30,-1
 428 596 l 1,31,-1
 300 596 l 1,28,-1
EndSplineSet
EndChar

StartChar: igrave
Encoding: 236 236 173
Width: 258
GlyphClass: 2
Flags: W
LayerCount: 2
Fore
SplineSet
62 0 m 1,0,-1
 62 500 l 1,1,-1
 196 500 l 1,2,-1
 196 0 l 1,3,-1
 62 0 l 1,0,-1
-19 753 m 1,4,-1
 233 651 l 1,5,-1
 203 564 l 1,6,-1
 -59 638 l 1,7,-1
 -19 753 l 1,4,-1
EndSplineSet
EndChar

StartChar: iacute
Encoding: 237 237 174
Width: 258
GlyphClass: 2
Flags: W
LayerCount: 2
Fore
SplineSet
31 651 m 1,0,-1
 283 753 l 1,1,-1
 323 638 l 1,2,-1
 61 564 l 1,3,-1
 31 651 l 1,0,-1
62 500 m 1,4,-1
 196 500 l 1,5,-1
 196 0 l 1,6,-1
 62 0 l 1,7,-1
 62 500 l 1,4,-1
EndSplineSet
EndChar

StartChar: icircumflex
Encoding: 238 238 175
Width: 258
GlyphClass: 2
Flags: W
LayerCount: 2
Fore
SplineSet
62 500 m 1,0,-1
 196 500 l 1,1,-1
 196 0 l 1,2,-1
 62 0 l 1,3,-1
 62 500 l 1,0,-1
-45 580 m 1,4,-1
 81 731 l 1,5,-1
 165 731 l 1,6,-1
 293 580 l 1,7,-1
 170 580 l 1,8,-1
 124 647 l 1,9,-1
 78 580 l 1,10,-1
 -45 580 l 1,4,-1
EndSplineSet
EndChar

StartChar: idieresis
Encoding: 239 239 176
Width: 258
GlyphClass: 2
Flags: W
LayerCount: 2
Fore
SplineSet
62 500 m 1,0,-1
 196 500 l 1,1,-1
 196 0 l 1,2,-1
 62 0 l 1,3,-1
 62 500 l 1,0,-1
-48 596 m 1,4,-1
 -48 728 l 1,5,-1
 80 728 l 1,6,-1
 80 596 l 1,7,-1
 -48 596 l 1,4,-1
168 596 m 1,8,-1
 168 728 l 1,9,-1
 296 728 l 1,10,-1
 296 596 l 1,11,-1
 168 596 l 1,8,-1
EndSplineSet
EndChar

StartChar: eth
Encoding: 240 240 177
Width: 567
GlyphClass: 2
Flags: W
LayerCount: 2
Fore
SplineSet
405 625 m 1,0,1
 528 537 528 537 528 350.5 c 128,-1,2
 528 164 528 164 468 77.5 c 128,-1,3
 408 -9 408 -9 273 -9 c 0,4,5
 38 -9 38 -9 38 216 c 0,6,7
 38 320 38 320 92.5 379 c 128,-1,8
 147 438 147 438 256 438 c 0,9,10
 318 438 318 438 369 420 c 2,11,-1
 386 414 l 1,12,13
 381 461 381 461 361 494.5 c 128,-1,14
 341 528 341 528 297 553 c 1,15,-1
 168 467 l 1,16,-1
 114 543 l 1,17,-1
 190 594 l 1,18,19
 144 606 144 606 82 618 c 1,20,-1
 100 712 l 1,21,22
 221 703 221 703 309 673 c 1,23,-1
 405 737 l 1,24,-1
 459 661 l 1,25,-1
 405 625 l 1,0,1
264 320 m 0,26,27
 223 320 223 320 201.5 289.5 c 128,-1,28
 180 259 180 259 180 216 c 0,29,30
 180 111 180 111 273 111 c 0,31,32
 329 111 329 111 357.5 155 c 128,-1,33
 386 199 386 199 386 298 c 1,34,35
 336 320 336 320 264 320 c 0,26,27
EndSplineSet
EndChar

StartChar: ntilde
Encoding: 241 241 178
Width: 553
GlyphClass: 2
Flags: W
LayerCount: 2
Fore
SplineSet
62 0 m 1,0,-1
 62 500 l 1,1,-1
 195 500 l 1,2,-1
 195 472 l 1,3,-1
 214 482 l 2,4,5
 232 492 232 492 263.5 502 c 128,-1,6
 295 512 295 512 320 512 c 0,7,8
 420 512 420 512 458 453 c 128,-1,9
 496 394 496 394 496 271 c 2,10,11
 496 271 496 271 496 0 c 1,12,-1
 362 0 l 1,13,-1
 362 267 l 2,14,15
 362 331 362 331 347 361.5 c 128,-1,16
 332 392 332 392 286 392 c 128,-1,17
 240 392 240 392 196 374 c 1,18,-1
 196 0 l 1,19,-1
 62 0 l 1,0,-1
397 602 m 128,-1,21
 369 585 369 585 346.5 585 c 128,-1,22
 324 585 324 585 278 603 c 128,-1,23
 232 621 232 621 218 621 c 0,24,25
 190 621 190 621 153 598 c 2,26,-1
 140 590 l 1,27,-1
 111 665 l 1,28,29
 131 688 131 688 161.5 706.5 c 128,-1,30
 192 725 192 725 214.5 725 c 128,-1,31
 237 725 237 725 283.5 707 c 128,-1,32
 330 689 330 689 342 689 c 0,33,34
 366 689 366 689 408 714 c 1,35,-1
 422 723 l 1,36,-1
 451 647 l 1,37,38
 445 640 445 640 435 629.5 c 128,-1,20
 425 619 425 619 397 602 c 128,-1,21
EndSplineSet
EndChar

StartChar: ograve
Encoding: 242 242 179
Width: 532
GlyphClass: 2
Flags: W
LayerCount: 2
Fore
SplineSet
266 512 m 128,-1,1
 390 512 390 512 443 443.5 c 128,-1,2
 496 375 496 375 496 251 c 0,3,4
 496 -12 496 -12 266 -12 c 128,-1,5
 36 -12 36 -12 36 251 c 0,6,7
 36 375 36 375 89 443.5 c 128,-1,0
 142 512 142 512 266 512 c 128,-1,1
266 102 m 128,-1,9
 319 102 319 102 339.5 138 c 128,-1,10
 360 174 360 174 360 251 c 128,-1,11
 360 328 360 328 339.5 363 c 128,-1,12
 319 398 319 398 266 398 c 128,-1,13
 213 398 213 398 192.5 363 c 128,-1,14
 172 328 172 328 172 251 c 128,-1,15
 172 174 172 174 192.5 138 c 128,-1,8
 213 102 213 102 266 102 c 128,-1,9
163 753 m 1,16,-1
 415 651 l 1,17,-1
 385 564 l 1,18,-1
 123 638 l 1,19,-1
 163 753 l 1,16,-1
EndSplineSet
EndChar

StartChar: oacute
Encoding: 243 243 180
Width: 532
GlyphClass: 2
Flags: W
LayerCount: 2
Fore
SplineSet
266 512 m 128,-1,1
 390 512 390 512 443 443.5 c 128,-1,2
 496 375 496 375 496 251 c 0,3,4
 496 -12 496 -12 266 -12 c 128,-1,5
 36 -12 36 -12 36 251 c 0,6,7
 36 375 36 375 89 443.5 c 128,-1,0
 142 512 142 512 266 512 c 128,-1,1
266 102 m 128,-1,9
 319 102 319 102 339.5 138 c 128,-1,10
 360 174 360 174 360 251 c 128,-1,11
 360 328 360 328 339.5 363 c 128,-1,12
 319 398 319 398 266 398 c 128,-1,13
 213 398 213 398 192.5 363 c 128,-1,14
 172 328 172 328 172 251 c 128,-1,15
 172 174 172 174 192.5 138 c 128,-1,8
 213 102 213 102 266 102 c 128,-1,9
116 651 m 1,16,-1
 368 753 l 1,17,-1
 408 638 l 1,18,-1
 146 564 l 1,19,-1
 116 651 l 1,16,-1
EndSplineSet
EndChar

StartChar: ocircumflex
Encoding: 244 244 181
Width: 532
GlyphClass: 2
Flags: W
LayerCount: 2
Fore
SplineSet
266 512 m 128,-1,1
 390 512 390 512 443 443.5 c 128,-1,2
 496 375 496 375 496 251 c 0,3,4
 496 -12 496 -12 266 -12 c 128,-1,5
 36 -12 36 -12 36 251 c 0,6,7
 36 375 36 375 89 443.5 c 128,-1,0
 142 512 142 512 266 512 c 128,-1,1
266 102 m 128,-1,9
 319 102 319 102 339.5 138 c 128,-1,10
 360 174 360 174 360 251 c 128,-1,11
 360 328 360 328 339.5 363 c 128,-1,12
 319 398 319 398 266 398 c 128,-1,13
 213 398 213 398 192.5 363 c 128,-1,14
 172 328 172 328 172 251 c 128,-1,15
 172 174 172 174 192.5 138 c 128,-1,8
 213 102 213 102 266 102 c 128,-1,9
91 580 m 1,16,-1
 217 731 l 1,17,-1
 301 731 l 1,18,-1
 429 580 l 1,19,-1
 306 580 l 1,20,-1
 260 647 l 1,21,-1
 214 580 l 1,22,-1
 91 580 l 1,16,-1
EndSplineSet
EndChar

StartChar: otilde
Encoding: 245 245 182
Width: 532
GlyphClass: 2
Flags: W
LayerCount: 2
Fore
SplineSet
266 512 m 128,-1,1
 390 512 390 512 443 443.5 c 128,-1,2
 496 375 496 375 496 251 c 0,3,4
 496 -12 496 -12 266 -12 c 128,-1,5
 36 -12 36 -12 36 251 c 0,6,7
 36 375 36 375 89 443.5 c 128,-1,0
 142 512 142 512 266 512 c 128,-1,1
266 102 m 128,-1,9
 319 102 319 102 339.5 138 c 128,-1,10
 360 174 360 174 360 251 c 128,-1,11
 360 328 360 328 339.5 363 c 128,-1,12
 319 398 319 398 266 398 c 128,-1,13
 213 398 213 398 192.5 363 c 128,-1,14
 172 328 172 328 172 251 c 128,-1,15
 172 174 172 174 192.5 138 c 128,-1,8
 213 102 213 102 266 102 c 128,-1,9
377 602 m 128,-1,17
 349 585 349 585 326.5 585 c 128,-1,18
 304 585 304 585 258 603 c 128,-1,19
 212 621 212 621 198 621 c 0,20,21
 170 621 170 621 133 598 c 2,22,-1
 120 590 l 1,23,-1
 91 665 l 1,24,25
 111 688 111 688 141.5 706.5 c 128,-1,26
 172 725 172 725 194.5 725 c 128,-1,27
 217 725 217 725 263.5 707 c 128,-1,28
 310 689 310 689 322 689 c 0,29,30
 346 689 346 689 388 714 c 1,31,-1
 402 723 l 1,32,-1
 431 647 l 1,33,34
 425 640 425 640 415 629.5 c 128,-1,16
 405 619 405 619 377 602 c 128,-1,17
EndSplineSet
EndChar

StartChar: odieresis
Encoding: 246 246 183
Width: 532
GlyphClass: 2
Flags: W
LayerCount: 2
Fore
SplineSet
266 512 m 128,-1,1
 390 512 390 512 443 443.5 c 128,-1,2
 496 375 496 375 496 251 c 0,3,4
 496 -12 496 -12 266 -12 c 128,-1,5
 36 -12 36 -12 36 251 c 0,6,7
 36 375 36 375 89 443.5 c 128,-1,0
 142 512 142 512 266 512 c 128,-1,1
266 102 m 128,-1,9
 319 102 319 102 339.5 138 c 128,-1,10
 360 174 360 174 360 251 c 128,-1,11
 360 328 360 328 339.5 363 c 128,-1,12
 319 398 319 398 266 398 c 128,-1,13
 213 398 213 398 192.5 363 c 128,-1,14
 172 328 172 328 172 251 c 128,-1,15
 172 174 172 174 192.5 138 c 128,-1,8
 213 102 213 102 266 102 c 128,-1,9
93 596 m 1,16,-1
 93 728 l 1,17,-1
 221 728 l 1,18,-1
 221 596 l 1,19,-1
 93 596 l 1,16,-1
309 596 m 1,20,-1
 309 728 l 1,21,-1
 437 728 l 1,22,-1
 437 596 l 1,23,-1
 309 596 l 1,20,-1
EndSplineSet
EndChar

StartChar: divide
Encoding: 247 247 184
Width: 560
GlyphClass: 2
Flags: W
LayerCount: 2
Fore
SplineSet
213 352 m 1,0,-1
 213 484 l 1,1,-1
 345 484 l 1,2,-1
 345 352 l 1,3,-1
 213 352 l 1,0,-1
50 191 m 1,4,-1
 50 311 l 1,5,-1
 510 311 l 1,6,-1
 510 191 l 1,7,-1
 50 191 l 1,4,-1
213 17 m 1,8,-1
 213 149 l 1,9,-1
 345 149 l 1,10,-1
 345 17 l 1,11,-1
 213 17 l 1,8,-1
EndSplineSet
EndChar

StartChar: oslash
Encoding: 248 248 185
Width: 532
GlyphClass: 2
Flags: W
LayerCount: 2
Fore
SplineSet
266 512 m 0,0,1
 294 512 294 512 322 507 c 1,2,-1
 362 607 l 1,3,-1
 443 577 l 1,4,-1
 402 479 l 1,5,6
 496 420 496 420 496 251 c 0,7,8
 496 -12 496 -12 266 -12 c 0,9,10
 232 -12 232 -12 203 -6 c 1,11,-1
 162 -108 l 1,12,-1
 82 -78 l 1,13,-1
 125 25 l 1,14,15
 36 85 36 85 36 251 c 0,16,17
 36 375 36 375 89 443.5 c 128,-1,18
 142 512 142 512 266 512 c 0,0,1
266 102 m 0,19,20
 319 102 319 102 339.5 138 c 128,-1,21
 360 174 360 174 360 245 c 128,-1,22
 360 316 360 316 346 350 c 1,23,-1
 246 103 l 1,24,25
 252 102 252 102 266 102 c 0,19,20
279 397 m 1,26,-1
 266 398 l 1,27,28
 213 398 213 398 192.5 363 c 128,-1,29
 172 328 172 328 172 258 c 128,-1,30
 172 188 172 188 184 156 c 1,31,-1
 279 397 l 1,26,-1
EndSplineSet
EndChar

StartChar: ugrave
Encoding: 249 249 186
Width: 553
GlyphClass: 2
Flags: W
LayerCount: 2
Fore
SplineSet
357 500 m 1,0,-1
 491 500 l 1,1,-1
 491 0 l 1,2,-1
 358 0 l 1,3,-1
 358 28 l 1,4,5
 286 -12 286 -12 233 -12 c 0,6,7
 129 -12 129 -12 93 45.5 c 128,-1,8
 57 103 57 103 57 238 c 2,9,-1
 57 500 l 1,10,-1
 191 500 l 1,11,-1
 191 236 l 2,12,13
 191 162 191 162 203 135 c 128,-1,14
 215 108 215 108 261 108 c 0,15,16
 305 108 305 108 344 122 c 1,17,-1
 357 126 l 1,18,-1
 357 500 l 1,0,-1
138 753 m 1,19,-1
 390 651 l 1,20,-1
 360 564 l 1,21,-1
 98 638 l 1,22,-1
 138 753 l 1,19,-1
EndSplineSet
EndChar

StartChar: uacute
Encoding: 250 250 187
Width: 553
GlyphClass: 2
Flags: W
LayerCount: 2
Fore
SplineSet
491 500 m 1,0,-1
 491 0 l 1,1,-1
 358 0 l 1,2,-1
 358 28 l 1,3,-1
 338 18 l 2,4,5
 319 8 319 8 288 -2 c 128,-1,6
 257 -12 257 -12 233 -12 c 0,7,8
 129 -12 129 -12 93 45.5 c 128,-1,9
 57 103 57 103 57 238 c 2,10,11
 57 238 57 238 57 500 c 1,12,-1
 191 500 l 1,13,-1
 191 236 l 2,14,15
 191 162 191 162 203 135 c 128,-1,16
 215 108 215 108 263 108 c 128,-1,17
 311 108 311 108 357 126 c 1,18,-1
 357 500 l 1,19,-1
 491 500 l 1,0,-1
130 651 m 1,20,-1
 382 753 l 1,21,-1
 422 638 l 1,22,-1
 160 564 l 1,23,-1
 130 651 l 1,20,-1
EndSplineSet
EndChar

StartChar: ucircumflex
Encoding: 251 251 188
Width: 553
GlyphClass: 2
Flags: W
LayerCount: 2
Fore
SplineSet
491 500 m 1,0,-1
 491 0 l 1,1,-1
 358 0 l 1,2,-1
 358 28 l 1,3,-1
 338 18 l 2,4,5
 319 8 319 8 288 -2 c 128,-1,6
 257 -12 257 -12 233 -12 c 0,7,8
 129 -12 129 -12 93 45.5 c 128,-1,9
 57 103 57 103 57 238 c 2,10,11
 57 238 57 238 57 500 c 1,12,-1
 191 500 l 1,13,-1
 191 236 l 2,14,15
 191 162 191 162 203 135 c 128,-1,16
 215 108 215 108 263 108 c 128,-1,17
 311 108 311 108 357 126 c 1,18,-1
 357 500 l 1,19,-1
 491 500 l 1,0,-1
82 580 m 1,20,-1
 208 731 l 1,21,-1
 292 731 l 1,22,-1
 420 580 l 1,23,-1
 297 580 l 1,24,-1
 251 647 l 1,25,-1
 205 580 l 1,26,-1
 82 580 l 1,20,-1
EndSplineSet
EndChar

StartChar: udieresis
Encoding: 252 252 189
Width: 553
GlyphClass: 2
Flags: W
LayerCount: 2
Fore
SplineSet
491 500 m 1,0,-1
 491 0 l 1,1,-1
 358 0 l 1,2,-1
 358 28 l 1,3,-1
 338 18 l 2,4,5
 319 8 319 8 288 -2 c 128,-1,6
 257 -12 257 -12 233 -12 c 0,7,8
 129 -12 129 -12 93 45.5 c 128,-1,9
 57 103 57 103 57 238 c 2,10,11
 57 238 57 238 57 500 c 1,12,-1
 191 500 l 1,13,-1
 191 236 l 2,14,15
 191 162 191 162 203 135 c 128,-1,16
 215 108 215 108 263 108 c 128,-1,17
 311 108 311 108 357 126 c 1,18,-1
 357 500 l 1,19,-1
 491 500 l 1,0,-1
106 596 m 1,20,-1
 106 728 l 1,21,-1
 234 728 l 1,22,-1
 234 596 l 1,23,-1
 106 596 l 1,20,-1
322 596 m 1,24,-1
 322 728 l 1,25,-1
 450 728 l 1,26,-1
 450 596 l 1,27,-1
 322 596 l 1,24,-1
EndSplineSet
EndChar

StartChar: yacute
Encoding: 253 253 190
Width: 500
GlyphClass: 2
Flags: W
LayerCount: 2
Fore
SplineSet
16 500 m 1,0,-1
 148 500 l 1,1,-1
 239 114 l 1,2,-1
 262 114 l 1,3,-1
 353 500 l 1,4,-1
 485 500 l 1,5,-1
 309 -210 l 1,6,-1
 178 -210 l 1,7,-1
 233 0 l 1,8,-1
 139 0 l 1,9,-1
 16 500 l 1,0,-1
122 651 m 1,10,-1
 374 753 l 1,11,-1
 414 638 l 1,12,-1
 152 564 l 1,13,-1
 122 651 l 1,10,-1
EndSplineSet
EndChar

StartChar: thorn
Encoding: 254 254 191
Width: 544
GlyphClass: 2
Flags: W
LayerCount: 2
Fore
SplineSet
269 104 m 0,0,1
 327 104 327 104 348.5 138 c 128,-1,2
 370 172 370 172 370 255 c 0,3,4
 370 392 370 392 286 392 c 0,5,6
 246 392 246 392 210 382 c 1,7,-1
 196 379 l 1,8,-1
 196 110 l 1,9,10
 241 104 241 104 269 104 c 0,0,1
304 512 m 0,11,12
 409 512 409 512 457.5 454.5 c 128,-1,13
 506 397 506 397 506 249 c 128,-1,14
 506 101 506 101 453 44.5 c 128,-1,15
 400 -12 400 -12 279 -12 c 0,16,17
 246 -12 246 -12 208 -6 c 2,18,-1
 196 -4 l 1,19,-1
 196 -210 l 1,20,-1
 62 -210 l 1,21,-1
 62 700 l 1,22,-1
 196 700 l 1,23,-1
 196 485 l 1,24,25
 260 512 260 512 304 512 c 0,11,12
EndSplineSet
EndChar

StartChar: ydieresis
Encoding: 255 255 192
Width: 500
GlyphClass: 2
Flags: W
LayerCount: 2
Fore
SplineSet
16 500 m 1,0,-1
 148 500 l 1,1,-1
 239 114 l 1,2,-1
 262 114 l 1,3,-1
 353 500 l 1,4,-1
 485 500 l 1,5,-1
 309 -210 l 1,6,-1
 178 -210 l 1,7,-1
 233 0 l 1,8,-1
 139 0 l 1,9,-1
 16 500 l 1,0,-1
79 596 m 1,10,-1
 79 728 l 1,11,-1
 207 728 l 1,12,-1
 207 596 l 1,13,-1
 79 596 l 1,10,-1
295 596 m 1,14,-1
 295 728 l 1,15,-1
 423 728 l 1,16,-1
 423 596 l 1,17,-1
 295 596 l 1,14,-1
EndSplineSet
EndChar

StartChar: Amacron
Encoding: 256 256 193
Width: 602
GlyphClass: 2
Flags: W
LayerCount: 2
Fore
SplineSet
17 0 m 1,0,-1
 170 680 l 1,1,-1
 432 680 l 1,2,-1
 585 0 l 1,3,-1
 447 0 l 1,4,-1
 420 123 l 1,5,-1
 182 123 l 1,6,-1
 155 0 l 1,7,-1
 17 0 l 1,0,-1
277 566 m 1,8,-1
 208 243 l 1,9,-1
 394 243 l 1,10,-1
 325 566 l 1,11,-1
 277 566 l 1,8,-1
124 782 m 1,12,-1
 124 880 l 1,13,-1
 471 880 l 1,14,-1
 471 782 l 1,15,-1
 124 782 l 1,12,-1
EndSplineSet
Position2: "'cpsp' Capital Spacing in Latin lookup 0 subtable" dx=5 dy=0 dh=10 dv=0
EndChar

StartChar: amacron
Encoding: 257 257 194
Width: 511
GlyphClass: 2
Flags: W
LayerCount: 2
Fore
SplineSet
445 344 m 2,0,-1
 445 136 l 1,1,2
 447 112 447 112 453 102.5 c 128,-1,3
 459 93 459 93 478 89 c 1,4,-1
 474 -12 l 1,5,6
 423 -12 423 -12 392.5 -5 c 128,-1,7
 362 2 362 2 331 23 c 1,8,9
 259 -12 259 -12 184 -12 c 0,10,11
 29 -12 29 -12 29 152 c 0,12,13
 29 232 29 232 72 265.5 c 128,-1,14
 115 299 115 299 204 305 c 2,15,-1
 311 313 l 1,16,-1
 311 344 l 2,17,18
 311 375 311 375 297 386.5 c 128,-1,19
 283 398 283 398 252 398 c 1,20,-1
 64 390 l 1,21,-1
 60 483 l 1,22,23
 167 512 167 512 263.5 512 c 128,-1,24
 360 512 360 512 402.5 472 c 128,-1,25
 445 432 445 432 445 344 c 2,0,-1
220 212 m 2,26,27
 164 207 164 207 164 152 c 128,-1,28
 164 97 164 97 213 97 c 0,29,30
 251 97 251 97 296 109 c 2,31,-1
 311 113 l 1,32,-1
 311 220 l 1,33,-1
 220 212 l 2,26,27
107 597 m 1,34,-1
 107 697 l 1,35,-1
 394 697 l 1,36,-1
 394 597 l 1,37,-1
 107 597 l 1,34,-1
EndSplineSet
EndChar

StartChar: Abreve
Encoding: 258 258 195
Width: 602
GlyphClass: 2
Flags: W
LayerCount: 2
Fore
SplineSet
17 0 m 1,0,-1
 170 680 l 1,1,-1
 432 680 l 1,2,-1
 585 0 l 1,3,-1
 447 0 l 1,4,-1
 420 123 l 1,5,-1
 182 123 l 1,6,-1
 155 0 l 1,7,-1
 17 0 l 1,0,-1
277 566 m 1,8,-1
 208 243 l 1,9,-1
 394 243 l 1,10,-1
 325 566 l 1,11,-1
 277 566 l 1,8,-1
253 869 m 128,-1,13
 270 853 270 853 297.5 853 c 128,-1,14
 325 853 325 853 342.5 869 c 128,-1,15
 360 885 360 885 363 910 c 1,16,-1
 484 910 l 1,17,18
 476 842 476 842 429.5 800.5 c 128,-1,19
 383 759 383 759 297 759 c 128,-1,20
 211 759 211 759 165 800.5 c 128,-1,21
 119 842 119 842 111 910 c 1,22,-1
 232 910 l 1,23,12
 236 885 236 885 253 869 c 128,-1,13
EndSplineSet
Position2: "'cpsp' Capital Spacing in Latin lookup 0 subtable" dx=5 dy=0 dh=10 dv=0
EndChar

StartChar: abreve
Encoding: 259 259 196
Width: 512
GlyphClass: 2
Flags: W
LayerCount: 2
Fore
SplineSet
445 154 m 2,0,1
 445 125 445 125 451 115.5 c 128,-1,2
 457 106 457 106 477 102 c 1,3,-1
 473 -12 l 1,4,5
 413 -12 413 -12 386 -4.5 c 128,-1,6
 359 3 359 3 331 22 c 1,7,-1
 308 14 l 1,8,9
 239 -12 239 -12 178 -12 c 0,10,11
 105 -12 105 -12 67 31.5 c 128,-1,12
 29 75 29 75 29 153.5 c 128,-1,13
 29 232 29 232 71.5 266 c 128,-1,14
 114 300 114 300 203 306 c 2,15,-1
 311 313 l 1,16,-1
 311 338 l 2,17,18
 311 358 311 358 297 370.5 c 128,-1,19
 283 383 283 383 261 383 c 0,20,21
 187 383 187 383 67 375 c 1,22,-1
 63 489 l 1,23,-1
 98 494 l 1,24,25
 205 511 205 511 269 511 c 0,26,27
 357 511 357 511 401 471.5 c 128,-1,28
 445 432 445 432 445 339 c 2,29,-1
 445 154 l 2,0,1
205 103 m 128,-1,31
 246 103 246 103 311 118 c 1,32,-1
 311 211 l 1,33,-1
 220 207 l 2,34,35
 164 204 164 204 164 156 c 0,36,30
 164 103 164 103 205 103 c 128,-1,31
198 748 m 1,37,38
 205 704 205 704 253.5 704 c 128,-1,39
 302 704 302 704 308 748 c 1,40,-1
 447 748 l 1,41,42
 439 673 439 673 390.5 629 c 128,-1,43
 342 585 342 585 253 585 c 128,-1,44
 164 585 164 585 115.5 629 c 128,-1,45
 67 673 67 673 59 748 c 1,46,-1
 198 748 l 1,37,38
EndSplineSet
EndChar

StartChar: Aogonek
Encoding: 260 260 197
Width: 602
GlyphClass: 2
Flags: W
LayerCount: 2
Fore
SplineSet
567 0 m 1,0,1
 511 -47 511 -47 511 -80.5 c 128,-1,2
 511 -114 511 -114 543 -114 c 1,3,-1
 585 -110 l 1,4,-1
 597 -205 l 1,5,6
 538 -216 538 -216 492.5 -216 c 128,-1,7
 447 -216 447 -216 416.5 -190 c 128,-1,8
 386 -164 386 -164 386 -120 c 0,9,10
 386 -52 386 -52 452 0 c 1,11,-1
 447 0 l 1,12,-1
 420 123 l 1,13,-1
 182 123 l 1,14,-1
 155 0 l 1,15,-1
 17 0 l 1,16,-1
 170 680 l 1,17,-1
 432 680 l 1,18,-1
 585 0 l 1,19,-1
 567 0 l 1,0,1
277 566 m 1,20,-1
 208 243 l 1,21,-1
 394 243 l 1,22,-1
 325 566 l 1,23,-1
 277 566 l 1,20,-1
EndSplineSet
Position2: "'cpsp' Capital Spacing in Latin lookup 0 subtable" dx=5 dy=0 dh=10 dv=0
EndChar

StartChar: aogonek
Encoding: 261 261 198
Width: 510
GlyphClass: 2
Flags: W
LayerCount: 2
Fore
SplineSet
474 -12 m 1,0,-1
 436 -11 l 1,1,2
 392 -52 392 -52 392 -81 c 0,3,4
 392 -114 392 -114 424 -114 c 1,5,-1
 466 -110 l 1,6,-1
 478 -205 l 1,7,8
 419 -216 419 -216 373.5 -216 c 128,-1,9
 328 -216 328 -216 297.5 -190 c 128,-1,10
 267 -164 267 -164 267 -124 c 128,-1,11
 267 -84 267 -84 287.5 -51.5 c 128,-1,12
 308 -19 308 -19 328 -4 c 2,13,-1
 348 11 l 1,14,-1
 351 10 l 1,15,-1
 331 23 l 1,16,17
 259 -12 259 -12 184 -12 c 0,18,19
 29 -12 29 -12 29 152 c 0,20,21
 29 232 29 232 72 265.5 c 128,-1,22
 115 299 115 299 204 305 c 2,23,-1
 311 313 l 1,24,-1
 311 344 l 2,25,26
 311 375 311 375 297 386.5 c 128,-1,27
 283 398 283 398 252 398 c 1,28,-1
 64 390 l 1,29,-1
 60 483 l 1,30,31
 167 512 167 512 263.5 512 c 128,-1,32
 360 512 360 512 402.5 472 c 128,-1,33
 445 432 445 432 445 344 c 2,34,-1
 445 136 l 1,35,36
 447 112 447 112 453 102.5 c 128,-1,37
 459 93 459 93 478 89 c 1,38,-1
 474 -12 l 1,0,-1
220 212 m 2,39,40
 164 207 164 207 164 152 c 128,-1,41
 164 97 164 97 213 97 c 0,42,43
 251 97 251 97 296 109 c 2,44,-1
 311 113 l 1,45,-1
 311 220 l 1,46,-1
 220 212 l 2,39,40
EndSplineSet
EndChar

StartChar: Cacute
Encoding: 262 262 199
Width: 543
GlyphClass: 2
Flags: W
LayerCount: 2
Fore
SplineSet
505 11 m 1,0,1
 399 -12 399 -12 314 -12 c 128,-1,2
 229 -12 229 -12 178 9 c 128,-1,3
 127 30 127 30 98 76 c 128,-1,4
 69 122 69 122 58 184 c 128,-1,5
 47 246 47 246 47 340 c 0,6,7
 47 537 47 537 102.5 614.5 c 128,-1,8
 158 692 158 692 307 692 c 0,9,10
 393 692 393 692 506 665 c 1,11,-1
 502 555 l 1,12,13
 403 570 403 570 337.5 570 c 128,-1,14
 272 570 272 570 244 552.5 c 128,-1,15
 216 535 216 535 202.5 486 c 128,-1,16
 189 437 189 437 189 319 c 128,-1,17
 189 201 189 201 216.5 155.5 c 128,-1,18
 244 110 244 110 326.5 110 c 128,-1,19
 409 110 409 110 502 124 c 1,20,-1
 505 11 l 1,0,1
147 839 m 1,21,-1
 399 945 l 1,22,-1
 440 825 l 1,23,-1
 180 746 l 1,24,-1
 147 839 l 1,21,-1
EndSplineSet
Position2: "'cpsp' Capital Spacing in Latin lookup 0 subtable" dx=5 dy=0 dh=10 dv=0
EndChar

StartChar: cacute
Encoding: 263 263 200
Width: 446
GlyphClass: 2
Flags: W
LayerCount: 2
Fore
SplineSet
249 512 m 0,0,1
 301 512 301 512 382 496 c 1,2,-1
 409 490 l 1,3,-1
 405 384 l 1,4,5
 326 392 326 392 288 392 c 0,6,7
 219 392 219 392 196.5 362.5 c 128,-1,8
 174 333 174 333 174 251 c 128,-1,9
 174 169 174 169 196.5 138.5 c 128,-1,10
 219 108 219 108 289 108 c 1,11,-1
 405 116 l 1,12,-1
 409 9 l 1,13,14
 302 -12 302 -12 246 -12 c 0,15,16
 135 -12 135 -12 86.5 50.5 c 128,-1,17
 38 113 38 113 38 251 c 128,-1,18
 38 389 38 389 88 450.5 c 128,-1,19
 138 512 138 512 249 512 c 0,0,1
97 651 m 1,20,-1
 349 753 l 1,21,-1
 389 638 l 1,22,-1
 127 564 l 1,23,-1
 97 651 l 1,20,-1
EndSplineSet
EndChar

StartChar: Ccircumflex
Encoding: 264 264 201
Width: 543
GlyphClass: 2
Flags: W
LayerCount: 2
Fore
SplineSet
505 11 m 1,0,1
 399 -12 399 -12 314 -12 c 128,-1,2
 229 -12 229 -12 178 9 c 128,-1,3
 127 30 127 30 98 76 c 128,-1,4
 69 122 69 122 58 184 c 128,-1,5
 47 246 47 246 47 340 c 0,6,7
 47 537 47 537 102.5 614.5 c 128,-1,8
 158 692 158 692 307 692 c 0,9,10
 393 692 393 692 506 665 c 1,11,-1
 502 555 l 1,12,13
 403 570 403 570 337.5 570 c 128,-1,14
 272 570 272 570 244 552.5 c 128,-1,15
 216 535 216 535 202.5 486 c 128,-1,16
 189 437 189 437 189 319 c 128,-1,17
 189 201 189 201 216.5 155.5 c 128,-1,18
 244 110 244 110 326.5 110 c 128,-1,19
 409 110 409 110 502 124 c 1,20,-1
 505 11 l 1,0,1
107 765 m 1,21,-1
 241 914 l 1,22,-1
 358 914 l 1,23,-1
 492 765 l 1,24,-1
 350 765 l 1,25,-1
 301 821 l 1,26,-1
 249 765 l 1,27,-1
 107 765 l 1,21,-1
EndSplineSet
Position2: "'cpsp' Capital Spacing in Latin lookup 0 subtable" dx=5 dy=0 dh=10 dv=0
EndChar

StartChar: ccircumflex
Encoding: 265 265 202
Width: 446
GlyphClass: 2
Flags: W
LayerCount: 2
Fore
SplineSet
249 512 m 0,0,1
 301 512 301 512 382 496 c 1,2,-1
 409 490 l 1,3,-1
 405 384 l 1,4,5
 326 392 326 392 288 392 c 0,6,7
 219 392 219 392 196.5 362.5 c 128,-1,8
 174 333 174 333 174 251 c 128,-1,9
 174 169 174 169 196.5 138.5 c 128,-1,10
 219 108 219 108 289 108 c 1,11,-1
 405 116 l 1,12,-1
 409 9 l 1,13,14
 302 -12 302 -12 246 -12 c 0,15,16
 135 -12 135 -12 86.5 50.5 c 128,-1,17
 38 113 38 113 38 251 c 128,-1,18
 38 389 38 389 88 450.5 c 128,-1,19
 138 512 138 512 249 512 c 0,0,1
54 580 m 1,20,-1
 180 731 l 1,21,-1
 264 731 l 1,22,-1
 392 580 l 1,23,-1
 269 580 l 1,24,-1
 223 647 l 1,25,-1
 177 580 l 1,26,-1
 54 580 l 1,20,-1
EndSplineSet
EndChar

StartChar: Cdotaccent
Encoding: 266 266 203
Width: 543
GlyphClass: 2
Flags: W
LayerCount: 2
Fore
SplineSet
505 11 m 1,0,1
 399 -12 399 -12 314 -12 c 128,-1,2
 229 -12 229 -12 178 9 c 128,-1,3
 127 30 127 30 98 76 c 128,-1,4
 69 122 69 122 58 184 c 128,-1,5
 47 246 47 246 47 340 c 0,6,7
 47 537 47 537 102.5 614.5 c 128,-1,8
 158 692 158 692 307 692 c 0,9,10
 393 692 393 692 506 665 c 1,11,-1
 502 555 l 1,12,13
 403 570 403 570 337.5 570 c 128,-1,14
 272 570 272 570 244 552.5 c 128,-1,15
 216 535 216 535 202.5 486 c 128,-1,16
 189 437 189 437 189 319 c 128,-1,17
 189 201 189 201 216.5 155.5 c 128,-1,18
 244 110 244 110 326.5 110 c 128,-1,19
 409 110 409 110 502 124 c 1,20,-1
 505 11 l 1,0,1
219 760 m 1,21,-1
 219 895 l 1,22,-1
 353 895 l 1,23,-1
 353 760 l 1,24,-1
 219 760 l 1,21,-1
EndSplineSet
Position2: "'cpsp' Capital Spacing in Latin lookup 0 subtable" dx=5 dy=0 dh=10 dv=0
EndChar

StartChar: cdotaccent
Encoding: 267 267 204
Width: 446
GlyphClass: 2
Flags: W
LayerCount: 2
Fore
SplineSet
249 512 m 0,0,1
 301 512 301 512 382 496 c 1,2,-1
 409 490 l 1,3,-1
 405 384 l 1,4,5
 326 392 326 392 288 392 c 0,6,7
 219 392 219 392 196.5 362.5 c 128,-1,8
 174 333 174 333 174 251 c 128,-1,9
 174 169 174 169 196.5 138.5 c 128,-1,10
 219 108 219 108 289 108 c 1,11,-1
 405 116 l 1,12,-1
 409 9 l 1,13,14
 302 -12 302 -12 246 -12 c 0,15,16
 135 -12 135 -12 86.5 50.5 c 128,-1,17
 38 113 38 113 38 251 c 128,-1,18
 38 389 38 389 88 450.5 c 128,-1,19
 138 512 138 512 249 512 c 0,0,1
189 556 m 1,20,-1
 189 691 l 1,21,-1
 323 691 l 1,22,-1
 323 556 l 1,23,-1
 189 556 l 1,20,-1
EndSplineSet
EndChar

StartChar: Ccaron
Encoding: 268 268 205
Width: 543
GlyphClass: 2
Flags: W
LayerCount: 2
Fore
SplineSet
505 11 m 1,0,1
 399 -12 399 -12 314 -12 c 128,-1,2
 229 -12 229 -12 178 9 c 128,-1,3
 127 30 127 30 98 76 c 128,-1,4
 69 122 69 122 58 184 c 128,-1,5
 47 246 47 246 47 340 c 0,6,7
 47 537 47 537 102.5 614.5 c 128,-1,8
 158 692 158 692 307 692 c 0,9,10
 393 692 393 692 506 665 c 1,11,-1
 502 555 l 1,12,13
 403 570 403 570 337.5 570 c 128,-1,14
 272 570 272 570 244 552.5 c 128,-1,15
 216 535 216 535 202.5 486 c 128,-1,16
 189 437 189 437 189 319 c 128,-1,17
 189 201 189 201 216.5 155.5 c 128,-1,18
 244 110 244 110 326.5 110 c 128,-1,19
 409 110 409 110 502 124 c 1,20,-1
 505 11 l 1,0,1
250 765 m 1,21,-1
 116 914 l 1,22,-1
 258 914 l 1,23,-1
 310 858 l 1,24,-1
 359 914 l 1,25,-1
 501 914 l 1,26,-1
 367 765 l 1,27,-1
 250 765 l 1,21,-1
EndSplineSet
Position2: "'cpsp' Capital Spacing in Latin lookup 0 subtable" dx=5 dy=0 dh=10 dv=0
EndChar

StartChar: ccaron
Encoding: 269 269 206
Width: 446
GlyphClass: 2
Flags: W
LayerCount: 2
Fore
SplineSet
249 512 m 0,0,1
 301 512 301 512 382 496 c 1,2,-1
 409 490 l 1,3,-1
 405 384 l 1,4,5
 326 392 326 392 288 392 c 0,6,7
 219 392 219 392 196.5 362.5 c 128,-1,8
 174 333 174 333 174 251 c 128,-1,9
 174 169 174 169 196.5 138.5 c 128,-1,10
 219 108 219 108 289 108 c 1,11,-1
 405 116 l 1,12,-1
 409 9 l 1,13,14
 302 -12 302 -12 246 -12 c 0,15,16
 135 -12 135 -12 86.5 50.5 c 128,-1,17
 38 113 38 113 38 251 c 128,-1,18
 38 389 38 389 88 450.5 c 128,-1,19
 138 512 138 512 249 512 c 0,0,1
199 580 m 1,20,-1
 73 731 l 1,21,-1
 196 731 l 1,22,-1
 242 664 l 1,23,-1
 288 731 l 1,24,-1
 411 731 l 1,25,-1
 283 580 l 1,26,-1
 199 580 l 1,20,-1
EndSplineSet
EndChar

StartChar: Dcaron
Encoding: 270 270 207
Width: 638
GlyphClass: 2
Flags: W
LayerCount: 2
Fore
SplineSet
303 0 m 2,0,-1
 74 0 l 1,1,-1
 74 680 l 1,2,-1
 303 680 l 2,3,4
 391 680 391 680 448 661.5 c 128,-1,5
 505 643 505 643 536.5 600.5 c 128,-1,6
 568 558 568 558 580 500.5 c 128,-1,7
 592 443 592 443 592 351 c 128,-1,8
 592 259 592 259 581 198.5 c 128,-1,9
 570 138 570 138 539.5 90.5 c 128,-1,10
 509 43 509 43 451 21.5 c 128,-1,11
 393 0 393 0 303 0 c 2,0,-1
448 270 m 0,12,13
 450 302 450 302 450 358.5 c 128,-1,14
 450 415 450 415 446 449 c 128,-1,15
 442 483 442 483 427 511 c 128,-1,16
 412 539 412 539 382.5 549.5 c 128,-1,17
 353 560 353 560 303 560 c 2,18,-1
 212 560 l 1,19,-1
 212 120 l 1,20,-1
 303 120 l 2,21,22
 378 120 378 120 412 158 c 0,23,24
 441 189 441 189 448 270 c 0,12,13
246 765 m 1,25,-1
 112 914 l 1,26,-1
 254 914 l 1,27,-1
 306 858 l 1,28,-1
 355 914 l 1,29,-1
 497 914 l 1,30,-1
 363 765 l 1,31,-1
 246 765 l 1,25,-1
EndSplineSet
Position2: "'cpsp' Capital Spacing in Latin lookup 0 subtable" dx=5 dy=0 dh=10 dv=0
EndChar

StartChar: dcaron
Encoding: 271 271 208
Width: 664
GlyphClass: 2
Flags: W
LayerCount: 2
Fore
SplineSet
590 678 m 1,0,-1
 720 678 l 1,1,-1
 665 444 l 1,2,-1
 544 444 l 1,3,-1
 590 678 l 1,0,-1
487 700 m 1,4,-1
 487 0 l 1,5,-1
 354 0 l 1,6,-1
 354 21 l 1,7,8
 284 -12 284 -12 233 -12 c 0,9,10
 124 -12 124 -12 81 51 c 128,-1,11
 38 114 38 114 38 250.5 c 128,-1,12
 38 387 38 387 89.5 449.5 c 128,-1,13
 141 512 141 512 245 512 c 0,14,15
 277 512 277 512 334 502 c 1,16,-1
 353 498 l 1,17,-1
 353 700 l 1,18,-1
 487 700 l 1,4,-1
339 120 m 1,19,-1
 353 123 l 1,20,-1
 353 386 l 1,21,22
 298 396 298 396 255 396 c 0,23,24
 174 396 174 396 174 252 c 0,25,26
 174 174 174 174 192 141 c 128,-1,27
 210 108 210 108 251.5 108 c 128,-1,28
 293 108 293 108 339 120 c 1,19,-1
EndSplineSet
EndChar

StartChar: Dcroat
Encoding: 272 272 209
Width: 642
GlyphClass: 2
Flags: W
LayerCount: 2
Fore
SplineSet
25 277 m 1,0,-1
 25 409 l 1,1,-1
 79 409 l 1,2,-1
 79 690 l 1,3,-1
 306 690 l 2,4,5
 394 690 394 690 451 671 c 128,-1,6
 508 652 508 652 539.5 608.5 c 128,-1,7
 571 565 571 565 583 506.5 c 128,-1,8
 595 448 595 448 595 355.5 c 128,-1,9
 595 263 595 263 584 202 c 128,-1,10
 573 141 573 141 542.5 92.5 c 128,-1,11
 512 44 512 44 454 22 c 128,-1,12
 396 0 396 0 306 0 c 2,13,-1
 79 0 l 1,14,-1
 79 277 l 1,15,-1
 25 277 l 1,0,-1
453 354 m 0,16,17
 453 397 453 397 451.5 422 c 128,-1,18
 450 447 450 447 445 472 c 128,-1,19
 440 497 440 497 430 511.5 c 128,-1,20
 420 526 420 526 404 538 c 0,21,22
 373 559 373 559 306 559 c 2,23,-1
 215 559 l 1,24,-1
 215 409 l 1,25,-1
 345 409 l 1,26,-1
 345 277 l 1,27,-1
 215 277 l 1,28,-1
 215 131 l 1,29,-1
 306 131 l 2,30,31
 381 131 381 131 416 169 c 0,32,33
 453 210 453 210 453 354 c 0,16,17
EndSplineSet
Position2: "'cpsp' Capital Spacing in Latin lookup 0 subtable" dx=5 dy=0 dh=10 dv=0
EndChar

StartChar: dcroat
Encoding: 273 273 210
Width: 549
GlyphClass: 2
Flags: W
LayerCount: 2
Fore
SplineSet
129 622 m 1,0,-1
 129 738 l 1,1,-1
 456 738 l 1,2,-1
 456 700 l 1,3,-1
 487 700 l 1,4,-1
 487 0 l 1,5,-1
 354 0 l 1,6,-1
 354 21 l 1,7,8
 284 -12 284 -12 233 -12 c 0,9,10
 124 -12 124 -12 81 51 c 128,-1,11
 38 114 38 114 38 250.5 c 128,-1,12
 38 387 38 387 89.5 449.5 c 128,-1,13
 141 512 141 512 245 512 c 0,14,15
 277 512 277 512 334 502 c 1,16,-1
 353 498 l 1,17,-1
 353 622 l 1,18,-1
 129 622 l 1,0,-1
339 120 m 1,19,-1
 353 123 l 1,20,-1
 353 386 l 1,21,22
 298 396 298 396 255 396 c 0,23,24
 174 396 174 396 174 252 c 0,25,26
 174 174 174 174 192 141 c 128,-1,27
 210 108 210 108 251.5 108 c 128,-1,28
 293 108 293 108 339 120 c 1,19,-1
EndSplineSet
EndChar

StartChar: Emacron
Encoding: 274 274 211
Width: 554
GlyphClass: 2
Flags: W
LayerCount: 2
Fore
SplineSet
74 0 m 1,0,-1
 74 680 l 1,1,-1
 514 680 l 1,2,-1
 514 560 l 1,3,-1
 212 560 l 1,4,-1
 212 401 l 1,5,-1
 454 401 l 1,6,-1
 454 283 l 1,7,-1
 212 283 l 1,8,-1
 212 120 l 1,9,-1
 514 120 l 1,10,-1
 514 0 l 1,11,-1
 74 0 l 1,0,-1
116 782 m 1,12,-1
 116 880 l 1,13,-1
 463 880 l 1,14,-1
 463 782 l 1,15,-1
 116 782 l 1,12,-1
EndSplineSet
Position2: "'cpsp' Capital Spacing in Latin lookup 0 subtable" dx=5 dy=0 dh=10 dv=0
EndChar

StartChar: emacron
Encoding: 275 275 212
Width: 510
GlyphClass: 2
Flags: W
LayerCount: 2
Fore
SplineSet
196.5 126.5 m 128,-1,1
 220 106 220 106 264 106 c 0,2,3
 357 106 357 106 430 112 c 1,4,-1
 458 115 l 1,5,-1
 460 16 l 1,6,7
 345 -12 345 -12 252 -12 c 0,8,9
 139 -12 139 -12 88 48 c 128,-1,10
 37 108 37 108 37 243 c 0,11,12
 37 512 37 512 258 512 c 0,13,14
 476 512 476 512 476 286 c 1,15,-1
 466 193 l 1,16,-1
 172 193 l 1,17,0
 173 147 173 147 196.5 126.5 c 128,-1,1
344 295 m 1,18,19
 344 355 344 355 325 378.5 c 128,-1,20
 306 402 306 402 258.5 402 c 128,-1,21
 211 402 211 402 191.5 377.5 c 128,-1,22
 172 353 172 353 171 295 c 1,23,-1
 344 295 l 1,18,19
113 597 m 1,24,-1
 113 697 l 1,25,-1
 400 697 l 1,26,-1
 400 597 l 1,27,-1
 113 597 l 1,24,-1
EndSplineSet
EndChar

StartChar: Ebreve
Encoding: 276 276 213
Width: 554
GlyphClass: 2
Flags: W
LayerCount: 2
Fore
SplineSet
74 0 m 1,0,-1
 74 680 l 1,1,-1
 514 680 l 1,2,-1
 514 560 l 1,3,-1
 212 560 l 1,4,-1
 212 401 l 1,5,-1
 454 401 l 1,6,-1
 454 283 l 1,7,-1
 212 283 l 1,8,-1
 212 120 l 1,9,-1
 514 120 l 1,10,-1
 514 0 l 1,11,-1
 74 0 l 1,0,-1
256 869 m 128,-1,13
 273 853 273 853 300.5 853 c 128,-1,14
 328 853 328 853 345.5 869 c 128,-1,15
 363 885 363 885 366 910 c 1,16,-1
 487 910 l 1,17,18
 479 842 479 842 432.5 800.5 c 128,-1,19
 386 759 386 759 300 759 c 128,-1,20
 214 759 214 759 168 800.5 c 128,-1,21
 122 842 122 842 114 910 c 1,22,-1
 235 910 l 1,23,12
 239 885 239 885 256 869 c 128,-1,13
EndSplineSet
Position2: "'cpsp' Capital Spacing in Latin lookup 0 subtable" dx=5 dy=0 dh=10 dv=0
EndChar

StartChar: ebreve
Encoding: 277 277 214
Width: 510
GlyphClass: 2
Flags: W
LayerCount: 2
Fore
SplineSet
196.5 126.5 m 128,-1,1
 220 106 220 106 264 106 c 0,2,3
 357 106 357 106 430 112 c 1,4,-1
 458 115 l 1,5,-1
 460 16 l 1,6,7
 345 -12 345 -12 252 -12 c 0,8,9
 139 -12 139 -12 88 48 c 128,-1,10
 37 108 37 108 37 243 c 0,11,12
 37 512 37 512 258 512 c 0,13,14
 476 512 476 512 476 286 c 1,15,-1
 466 193 l 1,16,-1
 172 193 l 1,17,0
 173 147 173 147 196.5 126.5 c 128,-1,1
344 295 m 1,18,19
 344 355 344 355 325 378.5 c 128,-1,20
 306 402 306 402 258.5 402 c 128,-1,21
 211 402 211 402 191.5 377.5 c 128,-1,22
 172 353 172 353 171 295 c 1,23,-1
 344 295 l 1,18,19
258 664 m 0,24,25
 314 664 314 664 321 730 c 1,26,-1
 422 730 l 1,27,28
 414 665 414 665 371.5 619 c 128,-1,29
 329 573 329 573 258 573 c 128,-1,30
 187 573 187 573 144.5 619 c 128,-1,31
 102 665 102 665 94 730 c 1,32,-1
 195 730 l 1,33,34
 199 699 199 699 215.5 681.5 c 128,-1,35
 232 664 232 664 258 664 c 0,24,25
EndSplineSet
EndChar

StartChar: Edotaccent
Encoding: 278 278 215
Width: 554
GlyphClass: 2
Flags: W
LayerCount: 2
Fore
SplineSet
74 0 m 1,0,-1
 74 680 l 1,1,-1
 514 680 l 1,2,-1
 514 560 l 1,3,-1
 212 560 l 1,4,-1
 212 401 l 1,5,-1
 454 401 l 1,6,-1
 454 283 l 1,7,-1
 212 283 l 1,8,-1
 212 120 l 1,9,-1
 514 120 l 1,10,-1
 514 0 l 1,11,-1
 74 0 l 1,0,-1
233 767 m 1,12,-1
 233 902 l 1,13,-1
 367 902 l 1,14,-1
 367 767 l 1,15,-1
 233 767 l 1,12,-1
EndSplineSet
Position2: "'cpsp' Capital Spacing in Latin lookup 0 subtable" dx=5 dy=0 dh=10 dv=0
EndChar

StartChar: edotaccent
Encoding: 279 279 216
Width: 510
GlyphClass: 2
Flags: W
LayerCount: 2
Fore
SplineSet
196.5 126.5 m 128,-1,1
 220 106 220 106 264 106 c 0,2,3
 357 106 357 106 430 112 c 1,4,-1
 458 115 l 1,5,-1
 460 16 l 1,6,7
 345 -12 345 -12 252 -12 c 0,8,9
 139 -12 139 -12 88 48 c 128,-1,10
 37 108 37 108 37 243 c 0,11,12
 37 512 37 512 258 512 c 0,13,14
 476 512 476 512 476 286 c 1,15,-1
 466 193 l 1,16,-1
 172 193 l 1,17,0
 173 147 173 147 196.5 126.5 c 128,-1,1
344 295 m 1,18,19
 344 355 344 355 325 378.5 c 128,-1,20
 306 402 306 402 258.5 402 c 128,-1,21
 211 402 211 402 191.5 377.5 c 128,-1,22
 172 353 172 353 171 295 c 1,23,-1
 344 295 l 1,18,19
190 556 m 1,24,-1
 190 691 l 1,25,-1
 324 691 l 1,26,-1
 324 556 l 1,27,-1
 190 556 l 1,24,-1
EndSplineSet
EndChar

StartChar: Eogonek
Encoding: 280 280 217
Width: 554
GlyphClass: 2
Flags: W
LayerCount: 2
Fore
SplineSet
74 0 m 1,0,-1
 74 680 l 1,1,-1
 514 680 l 1,2,-1
 514 560 l 1,3,-1
 212 560 l 1,4,-1
 212 401 l 1,5,-1
 454 401 l 1,6,-1
 454 283 l 1,7,-1
 212 283 l 1,8,-1
 212 120 l 1,9,-1
 514 120 l 1,10,-1
 514 0 l 1,11,-1
 486 0 l 1,12,13
 430 -47 430 -47 430 -80.5 c 128,-1,14
 430 -114 430 -114 462 -114 c 1,15,-1
 504 -110 l 1,16,-1
 516 -205 l 1,17,18
 457 -216 457 -216 411.5 -216 c 128,-1,19
 366 -216 366 -216 335.5 -190 c 128,-1,20
 305 -164 305 -164 305 -120 c 0,21,22
 305 -52 305 -52 371 0 c 1,23,-1
 74 0 l 1,0,-1
EndSplineSet
Position2: "'cpsp' Capital Spacing in Latin lookup 0 subtable" dx=5 dy=0 dh=10 dv=0
EndChar

StartChar: eogonek
Encoding: 281 281 218
Width: 511
GlyphClass: 2
Flags: W
LayerCount: 2
Fore
SplineSet
407 1 m 1,0,1
 349 -46 349 -46 349 -80 c 128,-1,2
 349 -114 349 -114 381 -114 c 1,3,-1
 423 -110 l 1,4,-1
 435 -205 l 1,5,6
 376 -216 376 -216 330.5 -216 c 128,-1,7
 285 -216 285 -216 254.5 -190 c 128,-1,8
 224 -164 224 -164 224 -120 c 0,9,10
 224 -61 224 -61 276 -11 c 1,11,12
 268 -12 268 -12 252 -12 c 0,13,14
 139 -12 139 -12 88 48 c 128,-1,15
 37 108 37 108 37 243 c 0,16,17
 37 512 37 512 258 512 c 0,18,19
 476 512 476 512 476 286 c 1,20,-1
 466 193 l 1,21,-1
 172 193 l 1,22,23
 173 147 173 147 196.5 126.5 c 128,-1,24
 220 106 220 106 264 106 c 0,25,26
 357 106 357 106 430 112 c 1,27,-1
 458 115 l 1,28,-1
 460 16 l 1,29,30
 430 9 430 9 393 2 c 1,31,-1
 407 1 l 1,0,1
344 295 m 1,32,33
 344 355 344 355 325 378.5 c 128,-1,34
 306 402 306 402 258.5 402 c 128,-1,35
 211 402 211 402 191.5 377.5 c 128,-1,36
 172 353 172 353 171 295 c 1,37,-1
 344 295 l 1,32,33
EndSplineSet
EndChar

StartChar: Ecaron
Encoding: 282 282 219
Width: 554
GlyphClass: 2
Flags: W
LayerCount: 2
Fore
SplineSet
74 0 m 1,0,-1
 74 680 l 1,1,-1
 514 680 l 1,2,-1
 514 560 l 1,3,-1
 212 560 l 1,4,-1
 212 401 l 1,5,-1
 454 401 l 1,6,-1
 454 283 l 1,7,-1
 212 283 l 1,8,-1
 212 120 l 1,9,-1
 514 120 l 1,10,-1
 514 0 l 1,11,-1
 74 0 l 1,0,-1
221 765 m 1,12,-1
 87 914 l 1,13,-1
 229 914 l 1,14,-1
 281 858 l 1,15,-1
 330 914 l 1,16,-1
 472 914 l 1,17,-1
 338 765 l 1,18,-1
 221 765 l 1,12,-1
EndSplineSet
Position2: "'cpsp' Capital Spacing in Latin lookup 0 subtable" dx=5 dy=0 dh=10 dv=0
EndChar

StartChar: ecaron
Encoding: 283 283 220
Width: 510
GlyphClass: 2
Flags: W
LayerCount: 2
Fore
SplineSet
196.5 126.5 m 128,-1,1
 220 106 220 106 264 106 c 0,2,3
 357 106 357 106 430 112 c 1,4,-1
 458 115 l 1,5,-1
 460 16 l 1,6,7
 345 -12 345 -12 252 -12 c 0,8,9
 139 -12 139 -12 88 48 c 128,-1,10
 37 108 37 108 37 243 c 0,11,12
 37 512 37 512 258 512 c 0,13,14
 476 512 476 512 476 286 c 1,15,-1
 466 193 l 1,16,-1
 172 193 l 1,17,0
 173 147 173 147 196.5 126.5 c 128,-1,1
344 295 m 1,18,19
 344 355 344 355 325 378.5 c 128,-1,20
 306 402 306 402 258.5 402 c 128,-1,21
 211 402 211 402 191.5 377.5 c 128,-1,22
 172 353 172 353 171 295 c 1,23,-1
 344 295 l 1,18,19
211 580 m 1,24,-1
 85 731 l 1,25,-1
 208 731 l 1,26,-1
 254 664 l 1,27,-1
 300 731 l 1,28,-1
 423 731 l 1,29,-1
 295 580 l 1,30,-1
 211 580 l 1,24,-1
EndSplineSet
EndChar

StartChar: Gcircumflex
Encoding: 284 284 221
Width: 611
GlyphClass: 2
Flags: W
LayerCount: 2
Fore
SplineSet
357 244 m 1,0,-1
 357 364 l 1,1,-1
 555 364 l 1,2,-1
 555 11 l 1,3,4
 412 -12 412 -12 323 -12 c 0,5,6
 164 -12 164 -12 104.5 73 c 128,-1,7
 45 158 45 158 45 343 c 128,-1,8
 45 528 45 528 107 610 c 128,-1,9
 169 692 169 692 318 692 c 0,10,11
 411 692 411 692 519 671 c 2,12,-1
 555 664 l 1,13,-1
 551 557 l 1,14,15
 431 570 431 570 354.5 570 c 128,-1,16
 278 570 278 570 247 552 c 128,-1,17
 216 534 216 534 201.5 485.5 c 128,-1,18
 187 437 187 437 187 319.5 c 128,-1,19
 187 202 187 202 216 155 c 128,-1,20
 245 108 245 108 336 108 c 1,21,-1
 419 112 l 1,22,-1
 419 244 l 1,23,-1
 357 244 l 1,0,-1
136 765 m 1,24,-1
 270 914 l 1,25,-1
 387 914 l 1,26,-1
 521 765 l 1,27,-1
 379 765 l 1,28,-1
 330 821 l 1,29,-1
 278 765 l 1,30,-1
 136 765 l 1,24,-1
EndSplineSet
Position2: "'cpsp' Capital Spacing in Latin lookup 0 subtable" dx=5 dy=0 dh=10 dv=0
EndChar

StartChar: gcircumflex
Encoding: 285 285 222
Width: 534
GlyphClass: 2
Flags: W
LayerCount: 2
Fore
SplineSet
449 -189 m 128,-1,1
 383 -230 383 -230 270.5 -230 c 128,-1,2
 158 -230 158 -230 97.5 -200 c 128,-1,3
 37 -170 37 -170 37 -91 c 0,4,5
 37 -28 37 -28 109 28 c 1,6,7
 72 53 72 53 72 104 c 0,8,9
 72 124 72 124 102 170 c 2,10,-1
 111 184 l 1,11,12
 43 233 43 233 43 328.5 c 128,-1,13
 43 424 43 424 100.5 467 c 128,-1,14
 158 510 158 510 253 510 c 0,15,16
 296 510 296 510 338 500 c 1,17,-1
 354 497 l 1,18,-1
 515 502 l 1,19,-1
 515 395 l 1,20,-1
 440 401 l 1,21,22
 462 367 462 367 462 333 c 0,23,24
 462 233 462 233 411 195 c 128,-1,25
 360 157 360 157 251 157 c 0,26,27
 228 157 228 157 210 161 c 1,28,29
 200 135 200 135 200 118.5 c 128,-1,30
 200 102 200 102 217 96 c 128,-1,31
 234 90 234 90 297 89 c 0,32,33
 423 88 423 88 469 55.5 c 128,-1,34
 515 23 515 23 515 -62.5 c 128,-1,0
 515 -148 515 -148 449 -189 c 128,-1,1
169 -77 m 0,35,36
 169 -120 169 -120 274.5 -120 c 128,-1,37
 380 -120 380 -120 380 -70 c 0,38,39
 380 -43 380 -43 362 -35.5 c 128,-1,40
 344 -28 344 -28 286 -27 c 1,41,-1
 196 -20 l 1,42,43
 169 -47 169 -47 169 -77 c 0,35,36
253.5 259 m 128,-1,45
 330 259 330 259 330 332.5 c 128,-1,46
 330 406 330 406 253.5 406 c 128,-1,47
 177 406 177 406 177 332.5 c 128,-1,44
 177 259 177 259 253.5 259 c 128,-1,45
103 580 m 1,48,-1
 229 731 l 1,49,-1
 313 731 l 1,50,-1
 441 580 l 1,51,-1
 318 580 l 1,52,-1
 272 647 l 1,53,-1
 226 580 l 1,54,-1
 103 580 l 1,48,-1
EndSplineSet
EndChar

StartChar: Gbreve
Encoding: 286 286 223
Width: 611
GlyphClass: 2
Flags: W
LayerCount: 2
Fore
SplineSet
357 244 m 1,0,-1
 357 364 l 1,1,-1
 555 364 l 1,2,-1
 555 11 l 1,3,4
 412 -12 412 -12 323 -12 c 0,5,6
 164 -12 164 -12 104.5 73 c 128,-1,7
 45 158 45 158 45 343 c 128,-1,8
 45 528 45 528 107 610 c 128,-1,9
 169 692 169 692 318 692 c 0,10,11
 411 692 411 692 519 671 c 2,12,-1
 555 664 l 1,13,-1
 551 557 l 1,14,15
 431 570 431 570 354.5 570 c 128,-1,16
 278 570 278 570 247 552 c 128,-1,17
 216 534 216 534 201.5 485.5 c 128,-1,18
 187 437 187 437 187 319.5 c 128,-1,19
 187 202 187 202 216 155 c 128,-1,20
 245 108 245 108 336 108 c 1,21,-1
 419 112 l 1,22,-1
 419 244 l 1,23,-1
 357 244 l 1,0,-1
278 869 m 128,-1,25
 295 853 295 853 322.5 853 c 128,-1,26
 350 853 350 853 367.5 869 c 128,-1,27
 385 885 385 885 388 910 c 1,28,-1
 509 910 l 1,29,30
 501 842 501 842 454.5 800.5 c 128,-1,31
 408 759 408 759 322 759 c 128,-1,32
 236 759 236 759 190 800.5 c 128,-1,33
 144 842 144 842 136 910 c 1,34,-1
 257 910 l 1,35,24
 261 885 261 885 278 869 c 128,-1,25
EndSplineSet
Position2: "'cpsp' Capital Spacing in Latin lookup 0 subtable" dx=5 dy=0 dh=10 dv=0
EndChar

StartChar: gbreve
Encoding: 287 287 224
Width: 534
GlyphClass: 2
Flags: W
LayerCount: 2
Fore
SplineSet
449 -189 m 128,-1,1
 383 -230 383 -230 270.5 -230 c 128,-1,2
 158 -230 158 -230 97.5 -200 c 128,-1,3
 37 -170 37 -170 37 -91 c 0,4,5
 37 -28 37 -28 109 28 c 1,6,7
 72 53 72 53 72 104 c 0,8,9
 72 124 72 124 102 170 c 2,10,-1
 111 184 l 1,11,12
 43 233 43 233 43 328.5 c 128,-1,13
 43 424 43 424 100.5 467 c 128,-1,14
 158 510 158 510 253 510 c 0,15,16
 296 510 296 510 338 500 c 1,17,-1
 354 497 l 1,18,-1
 515 502 l 1,19,-1
 515 395 l 1,20,-1
 440 401 l 1,21,22
 462 367 462 367 462 333 c 0,23,24
 462 233 462 233 411 195 c 128,-1,25
 360 157 360 157 251 157 c 0,26,27
 228 157 228 157 210 161 c 1,28,29
 200 135 200 135 200 118.5 c 128,-1,30
 200 102 200 102 217 96 c 128,-1,31
 234 90 234 90 297 89 c 0,32,33
 423 88 423 88 469 55.5 c 128,-1,34
 515 23 515 23 515 -62.5 c 128,-1,0
 515 -148 515 -148 449 -189 c 128,-1,1
169 -77 m 0,35,36
 169 -120 169 -120 274.5 -120 c 128,-1,37
 380 -120 380 -120 380 -70 c 0,38,39
 380 -43 380 -43 362 -35.5 c 128,-1,40
 344 -28 344 -28 286 -27 c 1,41,-1
 196 -20 l 1,42,43
 169 -47 169 -47 169 -77 c 0,35,36
253.5 259 m 128,-1,45
 330 259 330 259 330 332.5 c 128,-1,46
 330 406 330 406 253.5 406 c 128,-1,47
 177 406 177 406 177 332.5 c 128,-1,44
 177 259 177 259 253.5 259 c 128,-1,45
271 664 m 0,48,49
 327 664 327 664 334 730 c 1,50,-1
 435 730 l 1,51,52
 427 665 427 665 384.5 619 c 128,-1,53
 342 573 342 573 271 573 c 128,-1,54
 200 573 200 573 157.5 619 c 128,-1,55
 115 665 115 665 107 730 c 1,56,-1
 208 730 l 1,57,58
 212 699 212 699 228.5 681.5 c 128,-1,59
 245 664 245 664 271 664 c 0,48,49
EndSplineSet
EndChar

StartChar: Gdotaccent
Encoding: 288 288 225
Width: 611
GlyphClass: 2
Flags: W
LayerCount: 2
Fore
SplineSet
357 244 m 1,0,-1
 357 364 l 1,1,-1
 555 364 l 1,2,-1
 555 11 l 1,3,4
 412 -12 412 -12 323 -12 c 0,5,6
 164 -12 164 -12 104.5 73 c 128,-1,7
 45 158 45 158 45 343 c 128,-1,8
 45 528 45 528 107 610 c 128,-1,9
 169 692 169 692 318 692 c 0,10,11
 411 692 411 692 519 671 c 2,12,-1
 555 664 l 1,13,-1
 551 557 l 1,14,15
 431 570 431 570 354.5 570 c 128,-1,16
 278 570 278 570 247 552 c 128,-1,17
 216 534 216 534 201.5 485.5 c 128,-1,18
 187 437 187 437 187 319.5 c 128,-1,19
 187 202 187 202 216 155 c 128,-1,20
 245 108 245 108 336 108 c 1,21,-1
 419 112 l 1,22,-1
 419 244 l 1,23,-1
 357 244 l 1,0,-1
245 767 m 1,24,-1
 245 902 l 1,25,-1
 379 902 l 1,26,-1
 379 767 l 1,27,-1
 245 767 l 1,24,-1
EndSplineSet
Position2: "'cpsp' Capital Spacing in Latin lookup 0 subtable" dx=5 dy=0 dh=10 dv=0
EndChar

StartChar: gdotaccent
Encoding: 289 289 226
Width: 534
GlyphClass: 2
Flags: W
LayerCount: 2
Fore
SplineSet
449 -189 m 128,-1,1
 383 -230 383 -230 270.5 -230 c 128,-1,2
 158 -230 158 -230 97.5 -200 c 128,-1,3
 37 -170 37 -170 37 -91 c 0,4,5
 37 -28 37 -28 109 28 c 1,6,7
 72 53 72 53 72 104 c 0,8,9
 72 124 72 124 102 170 c 2,10,-1
 111 184 l 1,11,12
 43 233 43 233 43 328.5 c 128,-1,13
 43 424 43 424 100.5 467 c 128,-1,14
 158 510 158 510 253 510 c 0,15,16
 296 510 296 510 338 500 c 1,17,-1
 354 497 l 1,18,-1
 515 502 l 1,19,-1
 515 395 l 1,20,-1
 440 401 l 1,21,22
 462 367 462 367 462 333 c 0,23,24
 462 233 462 233 411 195 c 128,-1,25
 360 157 360 157 251 157 c 0,26,27
 228 157 228 157 210 161 c 1,28,29
 200 135 200 135 200 118.5 c 128,-1,30
 200 102 200 102 217 96 c 128,-1,31
 234 90 234 90 297 89 c 0,32,33
 423 88 423 88 469 55.5 c 128,-1,34
 515 23 515 23 515 -62.5 c 128,-1,0
 515 -148 515 -148 449 -189 c 128,-1,1
169 -77 m 0,35,36
 169 -120 169 -120 274.5 -120 c 128,-1,37
 380 -120 380 -120 380 -70 c 0,38,39
 380 -43 380 -43 362 -35.5 c 128,-1,40
 344 -28 344 -28 286 -27 c 1,41,-1
 196 -20 l 1,42,43
 169 -47 169 -47 169 -77 c 0,35,36
253.5 259 m 128,-1,45
 330 259 330 259 330 332.5 c 128,-1,46
 330 406 330 406 253.5 406 c 128,-1,47
 177 406 177 406 177 332.5 c 128,-1,44
 177 259 177 259 253.5 259 c 128,-1,45
203 556 m 1,48,-1
 203 691 l 1,49,-1
 337 691 l 1,50,-1
 337 556 l 1,51,-1
 203 556 l 1,48,-1
EndSplineSet
EndChar

StartChar: Gcommaaccent
Encoding: 290 290 227
Width: 611
GlyphClass: 2
Flags: W
LayerCount: 2
Fore
SplineSet
357 244 m 1,0,-1
 357 364 l 1,1,-1
 555 364 l 1,2,-1
 555 11 l 1,3,4
 412 -12 412 -12 323 -12 c 0,5,6
 164 -12 164 -12 104.5 73 c 128,-1,7
 45 158 45 158 45 343 c 128,-1,8
 45 528 45 528 107 610 c 128,-1,9
 169 692 169 692 318 692 c 0,10,11
 411 692 411 692 519 671 c 2,12,-1
 555 664 l 1,13,-1
 551 557 l 1,14,15
 431 570 431 570 354.5 570 c 128,-1,16
 278 570 278 570 247 552 c 128,-1,17
 216 534 216 534 201.5 485.5 c 128,-1,18
 187 437 187 437 187 319.5 c 128,-1,19
 187 202 187 202 216 155 c 128,-1,20
 245 108 245 108 336 108 c 1,21,-1
 419 112 l 1,22,-1
 419 244 l 1,23,-1
 357 244 l 1,0,-1
266 -77 m 1,24,-1
 396 -77 l 1,25,-1
 341 -311 l 1,26,-1
 220 -311 l 1,27,-1
 266 -77 l 1,24,-1
EndSplineSet
Position2: "'cpsp' Capital Spacing in Latin lookup 0 subtable" dx=5 dy=0 dh=10 dv=0
EndChar

StartChar: gcommaaccent
Encoding: 291 291 228
Width: 534
GlyphClass: 2
Flags: W
LayerCount: 2
Fore
SplineSet
346 817 m 1,0,-1
 300 583 l 1,1,-1
 170 583 l 1,2,-1
 225 817 l 1,3,-1
 346 817 l 1,0,-1
449 -189 m 128,-1,5
 383 -230 383 -230 270.5 -230 c 128,-1,6
 158 -230 158 -230 97.5 -200 c 128,-1,7
 37 -170 37 -170 37 -91 c 0,8,9
 37 -28 37 -28 109 28 c 1,10,11
 72 53 72 53 72 104 c 0,12,13
 72 124 72 124 102 170 c 2,14,-1
 111 184 l 1,15,16
 43 233 43 233 43 328.5 c 128,-1,17
 43 424 43 424 100.5 467 c 128,-1,18
 158 510 158 510 253 510 c 0,19,20
 296 510 296 510 338 500 c 1,21,-1
 354 497 l 1,22,-1
 515 502 l 1,23,-1
 515 395 l 1,24,-1
 440 401 l 1,25,26
 462 367 462 367 462 333 c 0,27,28
 462 233 462 233 411 195 c 128,-1,29
 360 157 360 157 251 157 c 0,30,31
 228 157 228 157 210 161 c 1,32,33
 200 135 200 135 200 118.5 c 128,-1,34
 200 102 200 102 217 96 c 128,-1,35
 234 90 234 90 297 89 c 0,36,37
 423 88 423 88 469 55.5 c 128,-1,38
 515 23 515 23 515 -62.5 c 128,-1,4
 515 -148 515 -148 449 -189 c 128,-1,5
169 -77 m 0,39,40
 169 -120 169 -120 274.5 -120 c 128,-1,41
 380 -120 380 -120 380 -70 c 0,42,43
 380 -43 380 -43 362 -35.5 c 128,-1,44
 344 -28 344 -28 286 -27 c 1,45,-1
 196 -20 l 1,46,47
 169 -47 169 -47 169 -77 c 0,39,40
253.5 259 m 128,-1,49
 330 259 330 259 330 332.5 c 128,-1,50
 330 406 330 406 253.5 406 c 128,-1,51
 177 406 177 406 177 332.5 c 128,-1,48
 177 259 177 259 253.5 259 c 128,-1,49
EndSplineSet
EndChar

StartChar: Hcircumflex
Encoding: 292 292 229
Width: 677
GlyphClass: 2
Flags: W
LayerCount: 2
Fore
SplineSet
465 0 m 1,0,-1
 465 282 l 1,1,-1
 212 282 l 1,2,-1
 212 0 l 1,3,-1
 74 0 l 1,4,-1
 74 680 l 1,5,-1
 212 680 l 1,6,-1
 212 402 l 1,7,-1
 465 402 l 1,8,-1
 465 680 l 1,9,-1
 603 680 l 1,10,-1
 603 0 l 1,11,-1
 465 0 l 1,0,-1
146 765 m 1,12,-1
 280 914 l 1,13,-1
 397 914 l 1,14,-1
 531 765 l 1,15,-1
 389 765 l 1,16,-1
 340 821 l 1,17,-1
 288 765 l 1,18,-1
 146 765 l 1,12,-1
EndSplineSet
Position2: "'cpsp' Capital Spacing in Latin lookup 0 subtable" dx=5 dy=0 dh=10 dv=0
EndChar

StartChar: hcircumflex
Encoding: 293 293 230
Width: 553
GlyphClass: 2
Flags: W
LayerCount: 2
Fore
SplineSet
196 0 m 1,0,-1
 62 0 l 1,1,-1
 62 700 l 1,2,-1
 196 700 l 1,3,-1
 196 476 l 1,4,5
 265 512 265 512 320 512 c 0,6,7
 420 512 420 512 458 453 c 128,-1,8
 496 394 496 394 496 271 c 2,9,-1
 496 0 l 1,10,-1
 362 0 l 1,11,-1
 362 268 l 2,12,13
 362 331 362 331 347 361.5 c 128,-1,14
 332 392 332 392 287 392 c 0,15,16
 248 392 248 392 209 380 c 2,17,-1
 196 376 l 1,18,-1
 196 0 l 1,0,-1
107 750 m 1,19,-1
 233 901 l 1,20,-1
 317 901 l 1,21,-1
 445 750 l 1,22,-1
 322 750 l 1,23,-1
 276 817 l 1,24,-1
 230 750 l 1,25,-1
 107 750 l 1,19,-1
EndSplineSet
EndChar

StartChar: Hbar
Encoding: 294 294 231
Width: 685
GlyphClass: 2
Flags: W
LayerCount: 2
Fore
SplineSet
19 486 m 1,0,-1
 19 602 l 1,1,-1
 78 602 l 1,2,-1
 78 680 l 1,3,-1
 216 680 l 1,4,-1
 216 602 l 1,5,-1
 469 602 l 1,6,-1
 469 680 l 1,7,-1
 607 680 l 1,8,-1
 607 602 l 1,9,-1
 673 602 l 1,10,-1
 673 486 l 1,11,-1
 607 486 l 1,12,-1
 607 0 l 1,13,-1
 469 0 l 1,14,-1
 469 282 l 1,15,-1
 216 282 l 1,16,-1
 216 0 l 1,17,-1
 78 0 l 1,18,-1
 78 486 l 1,19,-1
 19 486 l 1,0,-1
216 402 m 1,20,-1
 469 402 l 1,21,-1
 469 486 l 1,22,-1
 216 486 l 1,23,-1
 216 402 l 1,20,-1
EndSplineSet
Position2: "'cpsp' Capital Spacing in Latin lookup 0 subtable" dx=5 dy=0 dh=10 dv=0
EndChar

StartChar: hbar
Encoding: 295 295 232
Width: 553
GlyphClass: 2
Flags: W
LayerCount: 2
Fore
SplineSet
12 532 m 1,0,-1
 12 648 l 1,1,-1
 62 648 l 1,2,-1
 62 700 l 1,3,-1
 196 700 l 1,4,-1
 196 648 l 1,5,-1
 339 648 l 1,6,-1
 339 532 l 1,7,-1
 196 532 l 1,8,-1
 196 476 l 1,9,10
 265 512 265 512 320 512 c 0,11,12
 420 512 420 512 458 453 c 128,-1,13
 496 394 496 394 496 271 c 2,14,-1
 496 0 l 1,15,-1
 362 0 l 1,16,-1
 362 268 l 2,17,18
 362 331 362 331 347 361.5 c 128,-1,19
 332 392 332 392 287 392 c 0,20,21
 248 392 248 392 209 380 c 2,22,-1
 196 376 l 1,23,-1
 196 0 l 1,24,-1
 62 0 l 1,25,-1
 62 532 l 1,26,-1
 12 532 l 1,0,-1
EndSplineSet
EndChar

StartChar: Itilde
Encoding: 296 296 233
Width: 286
GlyphClass: 2
Flags: W
LayerCount: 2
Fore
SplineSet
74 0 m 1,0,-1
 74 680 l 1,1,-1
 212 680 l 1,2,-1
 212 0 l 1,3,-1
 74 0 l 1,0,-1
225 758 m 128,-1,5
 199 758 199 758 135.5 781 c 128,-1,6
 72 804 72 804 59 804 c 0,7,8
 34 804 34 804 -8 772 c 1,9,-1
 -22 762 l 1,10,-1
 -51 858 l 1,11,12
 -31 882 -31 882 0.5 902 c 128,-1,13
 32 922 32 922 61.5 922 c 128,-1,14
 91 922 91 922 152 899 c 128,-1,15
 213 876 213 876 224 876 c 0,16,17
 247 876 247 876 290 908 c 1,18,-1
 305 918 l 1,19,-1
 334 821 l 1,20,21
 313 797 313 797 282 777.5 c 128,-1,4
 251 758 251 758 225 758 c 128,-1,5
EndSplineSet
Position2: "'cpsp' Capital Spacing in Latin lookup 0 subtable" dx=5 dy=0 dh=10 dv=0
EndChar

StartChar: itilde
Encoding: 297 297 234
Width: 258
GlyphClass: 2
Flags: W
LayerCount: 2
Fore
SplineSet
62 500 m 1,0,-1
 196 500 l 1,1,-1
 196 0 l 1,2,-1
 62 0 l 1,3,-1
 62 500 l 1,0,-1
248 602 m 128,-1,5
 220 585 220 585 197.5 585 c 128,-1,6
 175 585 175 585 129 603 c 128,-1,7
 83 621 83 621 70 621 c 0,8,9
 41 621 41 621 4 598 c 2,10,-1
 -9 590 l 1,11,-1
 -38 665 l 1,12,13
 -18 688 -18 688 12.5 706.5 c 128,-1,14
 43 725 43 725 65.5 725 c 128,-1,15
 88 725 88 725 134.5 707 c 128,-1,16
 181 689 181 689 193 689 c 0,17,18
 217 689 217 689 259 714 c 1,19,-1
 273 723 l 1,20,-1
 302 647 l 1,21,22
 296 640 296 640 286 629.5 c 128,-1,4
 276 619 276 619 248 602 c 128,-1,5
EndSplineSet
EndChar

StartChar: Imacron
Encoding: 298 298 235
Width: 286
GlyphClass: 2
Flags: W
LayerCount: 2
Fore
SplineSet
74 0 m 1,0,-1
 74 680 l 1,1,-1
 212 680 l 1,2,-1
 212 0 l 1,3,-1
 74 0 l 1,0,-1
-27 782 m 1,4,-1
 -27 880 l 1,5,-1
 320 880 l 1,6,-1
 320 782 l 1,7,-1
 -27 782 l 1,4,-1
EndSplineSet
Position2: "'cpsp' Capital Spacing in Latin lookup 0 subtable" dx=5 dy=0 dh=10 dv=0
EndChar

StartChar: imacron
Encoding: 299 299 236
Width: 258
GlyphClass: 2
Flags: W
LayerCount: 2
Fore
SplineSet
62 500 m 1,0,-1
 196 500 l 1,1,-1
 196 0 l 1,2,-1
 62 0 l 1,3,-1
 62 500 l 1,0,-1
-14 597 m 1,4,-1
 -14 697 l 1,5,-1
 273 697 l 1,6,-1
 273 597 l 1,7,-1
 -14 597 l 1,4,-1
EndSplineSet
EndChar

StartChar: Ibreve
Encoding: 300 300 237
Width: 286
GlyphClass: 2
Flags: W
LayerCount: 2
Fore
SplineSet
74 0 m 1,0,-1
 74 680 l 1,1,-1
 212 680 l 1,2,-1
 212 0 l 1,3,-1
 74 0 l 1,0,-1
116 869 m 128,-1,5
 133 853 133 853 160.5 853 c 128,-1,6
 188 853 188 853 205.5 869 c 128,-1,7
 223 885 223 885 226 910 c 1,8,-1
 347 910 l 1,9,10
 339 842 339 842 292.5 800.5 c 128,-1,11
 246 759 246 759 160 759 c 128,-1,12
 74 759 74 759 28 800.5 c 128,-1,13
 -18 842 -18 842 -26 910 c 1,14,-1
 95 910 l 1,15,4
 99 885 99 885 116 869 c 128,-1,5
EndSplineSet
Position2: "'cpsp' Capital Spacing in Latin lookup 0 subtable" dx=5 dy=0 dh=10 dv=0
EndChar

StartChar: ibreve
Encoding: 301 301 238
Width: 258
GlyphClass: 2
Flags: W
LayerCount: 2
Fore
SplineSet
62 500 m 1,0,-1
 196 500 l 1,1,-1
 196 0 l 1,2,-1
 62 0 l 1,3,-1
 62 500 l 1,0,-1
129 664 m 0,4,5
 185 664 185 664 192 730 c 1,6,-1
 293 730 l 1,7,8
 285 665 285 665 242.5 619 c 128,-1,9
 200 573 200 573 129 573 c 128,-1,10
 58 573 58 573 15.5 619 c 128,-1,11
 -27 665 -27 665 -35 730 c 1,12,-1
 66 730 l 1,13,14
 70 699 70 699 86.5 681.5 c 128,-1,15
 103 664 103 664 129 664 c 0,4,5
EndSplineSet
EndChar

StartChar: Iogonek
Encoding: 302 302 239
Width: 286
GlyphClass: 2
Flags: W
LayerCount: 2
Fore
SplineSet
74 0 m 1,0,-1
 74 680 l 1,1,-1
 212 680 l 1,2,-1
 212 0 l 1,3,4
 188 -15 188 -15 166.5 -40 c 128,-1,5
 145 -65 145 -65 145 -81 c 0,6,7
 145 -114 145 -114 177 -114 c 1,8,-1
 219 -110 l 1,9,-1
 231 -205 l 1,10,11
 172 -216 172 -216 126.5 -216 c 128,-1,12
 81 -216 81 -216 50.5 -190 c 128,-1,13
 20 -164 20 -164 20 -120 c 0,14,15
 20 -54 20 -54 88 0 c 1,16,-1
 74 0 l 1,0,-1
EndSplineSet
Position2: "'cpsp' Capital Spacing in Latin lookup 0 subtable" dx=5 dy=0 dh=10 dv=0
EndChar

StartChar: iogonek
Encoding: 303 303 240
Width: 258
GlyphClass: 2
Flags: W
LayerCount: 2
Fore
SplineSet
62 0 m 1,0,-1
 62 500 l 1,1,-1
 196 500 l 1,2,-1
 196 0 l 1,3,4
 172 -15 172 -15 150.5 -40 c 128,-1,5
 129 -65 129 -65 129 -81 c 0,6,7
 129 -114 129 -114 161 -114 c 1,8,-1
 203 -110 l 1,9,-1
 215 -205 l 1,10,11
 156 -216 156 -216 110.5 -216 c 128,-1,12
 65 -216 65 -216 34.5 -190 c 128,-1,13
 4 -164 4 -164 4 -120 c 0,14,15
 4 -53 4 -53 74 0 c 1,16,-1
 62 0 l 1,0,-1
62 564 m 1,17,-1
 62 700 l 1,18,-1
 196 700 l 1,19,-1
 196 564 l 1,20,-1
 62 564 l 1,17,-1
EndSplineSet
EndChar

StartChar: Idotaccent
Encoding: 304 304 241
Width: 286
GlyphClass: 2
Flags: W
LayerCount: 2
Fore
SplineSet
74 0 m 1,0,-1
 74 680 l 1,1,-1
 212 680 l 1,2,-1
 212 0 l 1,3,-1
 74 0 l 1,0,-1
76 767 m 1,4,-1
 76 902 l 1,5,-1
 210 902 l 1,6,-1
 210 767 l 1,7,-1
 76 767 l 1,4,-1
EndSplineSet
Position2: "'cpsp' Capital Spacing in Latin lookup 0 subtable" dx=5 dy=0 dh=10 dv=0
EndChar

StartChar: dotlessi
Encoding: 305 305 242
Width: 258
GlyphClass: 2
Flags: W
LayerCount: 2
Fore
SplineSet
62 0 m 1,0,-1
 62 500 l 1,1,-1
 196 500 l 1,2,-1
 196 0 l 1,3,-1
 62 0 l 1,0,-1
EndSplineSet
EndChar

StartChar: Jcircumflex
Encoding: 308 308 243
Width: 302
GlyphClass: 2
Flags: W
LayerCount: 2
Fore
SplineSet
19 -70 m 1,0,-1
 19 50 l 1,1,2
 59 50 59 50 77 65 c 128,-1,3
 95 80 95 80 95 121 c 2,4,-1
 95 680 l 1,5,-1
 232 680 l 1,6,-1
 233 115 l 2,7,8
 233 6 233 6 184.5 -32 c 128,-1,9
 136 -70 136 -70 19 -70 c 1,0,-1
-29 765 m 1,10,-1
 105 914 l 1,11,-1
 222 914 l 1,12,-1
 356 765 l 1,13,-1
 214 765 l 1,14,-1
 165 821 l 1,15,-1
 113 765 l 1,16,-1
 -29 765 l 1,10,-1
EndSplineSet
Position2: "'cpsp' Capital Spacing in Latin lookup 0 subtable" dx=5 dy=0 dh=10 dv=0
EndChar

StartChar: jcircumflex
Encoding: 309 309 244
Width: 259
GlyphClass: 2
Flags: W
LayerCount: 2
Fore
SplineSet
63 24 m 2,0,-1
 63 500 l 1,1,-1
 197 500 l 1,2,-1
 197 23 l 2,3,4
 197 -79 197 -79 161.5 -127.5 c 128,-1,5
 126 -176 126 -176 19 -230 c 1,6,-1
 -34 -131 l 1,7,8
 11 -101 11 -101 29 -84 c 128,-1,9
 47 -67 47 -67 55 -43.5 c 128,-1,10
 63 -20 63 -20 63 24 c 2,0,-1
-37 580 m 1,11,-1
 89 731 l 1,12,-1
 173 731 l 1,13,-1
 301 580 l 1,14,-1
 178 580 l 1,15,-1
 132 647 l 1,16,-1
 86 580 l 1,17,-1
 -37 580 l 1,11,-1
EndSplineSet
EndChar

StartChar: Kcommaaccent
Encoding: 310 310 245
Width: 591
GlyphClass: 2
Flags: W
LayerCount: 2
Fore
SplineSet
212 0 m 1,0,-1
 74 0 l 1,1,-1
 74 690 l 1,2,-1
 212 690 l 1,3,-1
 212 394 l 1,4,-1
 302 404 l 1,5,-1
 414 690 l 1,6,-1
 573 690 l 1,7,-1
 425 347 l 1,8,-1
 577 0 l 1,9,-1
 418 0 l 1,10,-1
 304 271 l 1,11,-1
 212 261 l 1,12,-1
 212 0 l 1,0,-1
245 -77 m 1,13,-1
 375 -77 l 1,14,-1
 320 -311 l 1,15,-1
 199 -311 l 1,16,-1
 245 -77 l 1,13,-1
EndSplineSet
Position2: "'cpsp' Capital Spacing in Latin lookup 0 subtable" dx=5 dy=0 dh=10 dv=0
EndChar

StartChar: kcommaaccent
Encoding: 311 311 246
Width: 515
GlyphClass: 2
Flags: W
LayerCount: 2
Fore
SplineSet
-10 -311 m 1,0,-1
 36 -77 l 1,1,-1
 166 -77 l 1,2,-1
 111 -311 l 1,3,-1
 -10 -311 l 1,0,-1
196 0 m 1,4,-1
 62 0 l 1,5,-1
 62 700 l 1,6,-1
 196 700 l 1,7,-1
 196 302 l 1,8,-1
 247 311 l 1,9,-1
 346 500 l 1,10,-1
 496 500 l 1,11,-1
 366 263 l 1,12,-1
 503 0 l 1,13,-1
 352 0 l 1,14,-1
 251 195 l 1,15,-1
 196 186 l 1,16,-1
 196 0 l 1,4,-1
EndSplineSet
EndChar

StartChar: Lacute
Encoding: 313 313 247
Width: 473
GlyphClass: 2
Flags: W
LayerCount: 2
Fore
SplineSet
461 0 m 1,0,-1
 74 0 l 1,1,-1
 74 690 l 1,2,-1
 212 690 l 1,3,-1
 212 133 l 1,4,-1
 461 133 l 1,5,-1
 461 0 l 1,0,-1
110 839 m 1,6,-1
 362 945 l 1,7,-1
 403 825 l 1,8,-1
 143 746 l 1,9,-1
 110 839 l 1,6,-1
EndSplineSet
Position2: "'cpsp' Capital Spacing in Latin lookup 0 subtable" dx=5 dy=0 dh=10 dv=0
EndChar

StartChar: lacute
Encoding: 314 314 248
Width: 270
GlyphClass: 2
Flags: W
LayerCount: 2
Fore
SplineSet
68 0 m 1,0,-1
 68 700 l 1,1,-1
 202 700 l 1,2,-1
 202 0 l 1,3,-1
 68 0 l 1,0,-1
41 861 m 1,4,-1
 293 963 l 1,5,-1
 333 848 l 1,6,-1
 71 774 l 1,7,-1
 41 861 l 1,4,-1
EndSplineSet
EndChar

StartChar: Lcommaaccent
Encoding: 315 315 249
Width: 472
GlyphClass: 2
Flags: W
LayerCount: 2
Fore
SplineSet
204 -77 m 1,0,-1
 334 -77 l 1,1,-1
 279 -311 l 1,2,-1
 158 -311 l 1,3,-1
 204 -77 l 1,0,-1
461 0 m 1,4,-1
 74 0 l 1,5,-1
 74 680 l 1,6,-1
 212 680 l 1,7,-1
 212 122 l 1,8,-1
 461 122 l 1,9,-1
 461 0 l 1,4,-1
EndSplineSet
Position2: "'cpsp' Capital Spacing in Latin lookup 0 subtable" dx=5 dy=0 dh=10 dv=0
EndChar

StartChar: lcommaaccent
Encoding: 316 316 250
Width: 270
GlyphClass: 2
Flags: W
LayerCount: 2
Fore
SplineSet
68 0 m 1,0,-1
 68 700 l 1,1,-1
 202 700 l 1,2,-1
 202 0 l 1,3,-1
 68 0 l 1,0,-1
66 -77 m 1,4,-1
 196 -77 l 1,5,-1
 141 -311 l 1,6,-1
 20 -311 l 1,7,-1
 66 -77 l 1,4,-1
EndSplineSet
EndChar

StartChar: Lcaron
Encoding: 317 317 251
Width: 498
GlyphClass: 2
Flags: W
LayerCount: 2
Fore
SplineSet
461 690 m 1,0,-1
 461 430 l 1,1,-1
 331 430 l 1,2,-1
 331 690 l 1,3,-1
 461 690 l 1,0,-1
461 0 m 1,4,-1
 74 0 l 1,5,-1
 74 680 l 1,6,-1
 212 680 l 1,7,-1
 212 122 l 1,8,-1
 461 122 l 1,9,-1
 461 0 l 1,4,-1
EndSplineSet
Position2: "'cpsp' Capital Spacing in Latin lookup 0 subtable" dx=5 dy=0 dh=10 dv=0
EndChar

StartChar: lcaron
Encoding: 318 318 252
Width: 377
GlyphClass: 2
Flags: W
LayerCount: 2
Fore
SplineSet
303 678 m 1,0,-1
 433 678 l 1,1,-1
 378 444 l 1,2,-1
 257 444 l 1,3,-1
 303 678 l 1,0,-1
68 0 m 1,4,-1
 68 700 l 1,5,-1
 202 700 l 1,6,-1
 202 0 l 1,7,-1
 68 0 l 1,4,-1
EndSplineSet
EndChar

StartChar: Lslash
Encoding: 321 321 253
Width: 481
GlyphClass: 2
Flags: W
LayerCount: 2
Fore
SplineSet
470 0 m 1,0,-1
 83 0 l 1,1,-1
 83 217 l 1,2,-1
 41 188 l 1,3,-1
 -24 278 l 1,4,-1
 83 353 l 1,5,-1
 83 680 l 1,6,-1
 221 680 l 1,7,-1
 221 449 l 1,8,-1
 320 519 l 1,9,-1
 385 429 l 1,10,-1
 221 314 l 1,11,-1
 221 122 l 1,12,-1
 470 122 l 1,13,-1
 470 0 l 1,0,-1
EndSplineSet
Position2: "'cpsp' Capital Spacing in Latin lookup 0 subtable" dx=5 dy=0 dh=10 dv=0
EndChar

StartChar: lslash
Encoding: 322 322 254
Width: 381
GlyphClass: 2
Flags: W
LayerCount: 2
Fore
SplineSet
119 0 m 1,0,-1
 119 218 l 1,1,-1
 68 183 l 1,2,-1
 3 273 l 1,3,-1
 119 354 l 1,4,-1
 119 700 l 1,5,-1
 253 700 l 1,6,-1
 253 448 l 1,7,-1
 316 492 l 1,8,-1
 381 402 l 1,9,-1
 253 312 l 1,10,-1
 253 0 l 1,11,-1
 119 0 l 1,0,-1
EndSplineSet
EndChar

StartChar: Nacute
Encoding: 323 323 255
Width: 693
GlyphClass: 2
Flags: W
LayerCount: 2
Fore
SplineSet
74 0 m 1,0,-1
 74 680 l 1,1,-1
 307 680 l 1,2,-1
 471 120 l 1,3,-1
 481 120 l 1,4,-1
 481 680 l 1,5,-1
 619 680 l 1,6,-1
 619 0 l 1,7,-1
 392 0 l 1,8,-1
 222 560 l 1,9,-1
 212 560 l 1,10,-1
 212 0 l 1,11,-1
 74 0 l 1,0,-1
202 839 m 1,12,-1
 454 945 l 1,13,-1
 495 825 l 1,14,-1
 235 746 l 1,15,-1
 202 839 l 1,12,-1
EndSplineSet
Position2: "'cpsp' Capital Spacing in Latin lookup 0 subtable" dx=5 dy=0 dh=10 dv=0
EndChar

StartChar: nacute
Encoding: 324 324 256
Width: 553
GlyphClass: 2
Flags: W
LayerCount: 2
Fore
SplineSet
62 0 m 1,0,-1
 62 500 l 1,1,-1
 195 500 l 1,2,-1
 195 472 l 1,3,-1
 214 482 l 2,4,5
 232 492 232 492 263.5 502 c 128,-1,6
 295 512 295 512 320 512 c 0,7,8
 420 512 420 512 458 453 c 128,-1,9
 496 394 496 394 496 271 c 2,10,11
 496 271 496 271 496 0 c 1,12,-1
 362 0 l 1,13,-1
 362 267 l 2,14,15
 362 331 362 331 347 361.5 c 128,-1,16
 332 392 332 392 286 392 c 128,-1,17
 240 392 240 392 196 374 c 1,18,-1
 196 0 l 1,19,-1
 62 0 l 1,0,-1
146 651 m 1,20,-1
 398 753 l 1,21,-1
 438 638 l 1,22,-1
 176 564 l 1,23,-1
 146 651 l 1,20,-1
EndSplineSet
EndChar

StartChar: Ncommaaccent
Encoding: 325 325 257
Width: 693
GlyphClass: 2
Flags: W
LayerCount: 2
Fore
SplineSet
299 -77 m 1,0,-1
 429 -77 l 1,1,-1
 374 -311 l 1,2,-1
 253 -311 l 1,3,-1
 299 -77 l 1,0,-1
74 0 m 1,4,-1
 74 680 l 1,5,-1
 307 680 l 1,6,-1
 471 120 l 1,7,-1
 481 120 l 1,8,-1
 481 680 l 1,9,-1
 619 680 l 1,10,-1
 619 0 l 1,11,-1
 392 0 l 1,12,-1
 222 560 l 1,13,-1
 212 560 l 1,14,-1
 212 0 l 1,15,-1
 74 0 l 1,4,-1
EndSplineSet
Position2: "'cpsp' Capital Spacing in Latin lookup 0 subtable" dx=5 dy=0 dh=10 dv=0
EndChar

StartChar: ncommaaccent
Encoding: 326 326 258
Width: 553
GlyphClass: 2
Flags: W
LayerCount: 2
Fore
SplineSet
-10 -311 m 1,0,-1
 36 -77 l 1,1,-1
 166 -77 l 1,2,-1
 111 -311 l 1,3,-1
 -10 -311 l 1,0,-1
196 0 m 1,4,-1
 62 0 l 1,5,-1
 62 500 l 1,6,-1
 195 500 l 1,7,-1
 195 472 l 1,8,9
 263 512 263 512 320 512 c 0,10,11
 420 512 420 512 458 453 c 128,-1,12
 496 394 496 394 496 271 c 2,13,-1
 496 0 l 1,14,-1
 362 0 l 1,15,-1
 362 267 l 2,16,17
 362 331 362 331 347 361.5 c 128,-1,18
 332 392 332 392 287 392 c 0,19,20
 246 392 246 392 208 378 c 1,21,-1
 196 374 l 1,22,-1
 196 0 l 1,4,-1
EndSplineSet
EndChar

StartChar: Ncaron
Encoding: 327 327 259
Width: 693
GlyphClass: 2
Flags: W
LayerCount: 2
Fore
SplineSet
74 0 m 1,0,-1
 74 680 l 1,1,-1
 307 680 l 1,2,-1
 471 120 l 1,3,-1
 481 120 l 1,4,-1
 481 680 l 1,5,-1
 619 680 l 1,6,-1
 619 0 l 1,7,-1
 392 0 l 1,8,-1
 222 560 l 1,9,-1
 212 560 l 1,10,-1
 212 0 l 1,11,-1
 74 0 l 1,0,-1
289 765 m 1,12,-1
 155 914 l 1,13,-1
 297 914 l 1,14,-1
 349 858 l 1,15,-1
 398 914 l 1,16,-1
 540 914 l 1,17,-1
 406 765 l 1,18,-1
 289 765 l 1,12,-1
EndSplineSet
Position2: "'cpsp' Capital Spacing in Latin lookup 0 subtable" dx=5 dy=0 dh=10 dv=0
EndChar

StartChar: ncaron
Encoding: 328 328 260
Width: 553
GlyphClass: 2
Flags: W
LayerCount: 2
Fore
SplineSet
196 0 m 1,0,-1
 62 0 l 1,1,-1
 62 500 l 1,2,-1
 195 500 l 1,3,-1
 195 472 l 1,4,5
 263 512 263 512 320 512 c 0,6,7
 420 512 420 512 458 453 c 128,-1,8
 496 394 496 394 496 271 c 2,9,-1
 496 0 l 1,10,-1
 362 0 l 1,11,-1
 362 267 l 2,12,13
 362 331 362 331 347 361.5 c 128,-1,14
 332 392 332 392 287 392 c 0,15,16
 246 392 246 392 208 378 c 1,17,-1
 196 374 l 1,18,-1
 196 0 l 1,0,-1
231 580 m 1,19,-1
 105 731 l 1,20,-1
 228 731 l 1,21,-1
 274 664 l 1,22,-1
 320 731 l 1,23,-1
 443 731 l 1,24,-1
 315 580 l 1,25,-1
 231 580 l 1,19,-1
EndSplineSet
EndChar

StartChar: Eng
Encoding: 330 330 261
Width: 693
GlyphClass: 2
Flags: W
LayerCount: 2
Fore
SplineSet
74 0 m 1,0,-1
 74 680 l 1,1,-1
 307 680 l 1,2,-1
 471 120 l 1,3,-1
 481 120 l 1,4,-1
 481 680 l 1,5,-1
 619 680 l 1,6,-1
 619 -27 l 2,7,8
 619 -136 619 -136 570.5 -174 c 128,-1,9
 522 -212 522 -212 405 -212 c 1,10,-1
 405 -92 l 1,11,12
 445 -92 445 -92 463 -77 c 128,-1,13
 481 -62 481 -62 481 -21 c 2,14,-1
 481 0 l 1,15,-1
 392 0 l 1,16,-1
 222 560 l 1,17,-1
 212 560 l 1,18,-1
 212 0 l 1,19,-1
 74 0 l 1,0,-1
EndSplineSet
Position2: "'cpsp' Capital Spacing in Latin lookup 0 subtable" dx=5 dy=0 dh=10 dv=0
EndChar

StartChar: eng
Encoding: 331 331 262
Width: 552
GlyphClass: 2
Flags: W
LayerCount: 2
Fore
SplineSet
195 0 m 1,0,-1
 61 0 l 1,1,-1
 61 499 l 1,2,-1
 195 499 l 1,3,-1
 195 477 l 1,4,5
 277 512 277 512 324 512 c 0,6,7
 417 512 417 512 456.5 447.5 c 128,-1,8
 496 383 496 383 496 261 c 2,9,-1
 496 5 l 2,10,11
 496 -100 496 -100 462.5 -148 c 128,-1,12
 429 -196 429 -196 318 -248 c 1,13,-1
 258 -137 l 1,14,15
 327 -99 327 -99 344.5 -76.5 c 128,-1,16
 362 -54 362 -54 362 0 c 2,17,-1
 362 261 l 2,18,19
 362 389 362 389 296 389 c 0,20,21
 267 389 267 389 213 376 c 1,22,-1
 195 371 l 1,23,-1
 195 0 l 1,0,-1
EndSplineSet
EndChar

StartChar: Omacron
Encoding: 332 332 263
Width: 652
GlyphClass: 2
Flags: W
LayerCount: 2
Fore
SplineSet
326 108 m 128,-1,1
 407 108 407 108 436.5 160.5 c 128,-1,2
 466 213 466 213 466 336.5 c 128,-1,3
 466 460 466 460 436 516 c 128,-1,4
 406 572 406 572 326 572 c 128,-1,5
 246 572 246 572 216 516 c 128,-1,6
 186 460 186 460 186 336.5 c 128,-1,7
 186 213 186 213 215.5 160.5 c 128,-1,0
 245 108 245 108 326 108 c 128,-1,1
326 -12 m 128,-1,9
 171 -12 171 -12 107.5 72.5 c 128,-1,10
 44 157 44 157 44 337 c 128,-1,11
 44 517 44 517 107.5 604.5 c 128,-1,12
 171 692 171 692 326 692 c 128,-1,13
 481 692 481 692 544.5 604.5 c 128,-1,14
 608 517 608 517 608 337 c 128,-1,15
 608 157 608 157 544.5 72.5 c 128,-1,8
 481 -12 481 -12 326 -12 c 128,-1,9
149 782 m 1,16,-1
 149 880 l 1,17,-1
 496 880 l 1,18,-1
 496 782 l 1,19,-1
 149 782 l 1,16,-1
EndSplineSet
Position2: "'cpsp' Capital Spacing in Latin lookup 0 subtable" dx=5 dy=0 dh=10 dv=0
EndChar

StartChar: omacron
Encoding: 333 333 264
Width: 532
GlyphClass: 2
Flags: W
LayerCount: 2
Fore
SplineSet
266 512 m 128,-1,1
 390 512 390 512 443 443.5 c 128,-1,2
 496 375 496 375 496 251 c 0,3,4
 496 -12 496 -12 266 -12 c 128,-1,5
 36 -12 36 -12 36 251 c 0,6,7
 36 375 36 375 89 443.5 c 128,-1,0
 142 512 142 512 266 512 c 128,-1,1
266 102 m 128,-1,9
 319 102 319 102 339.5 138 c 128,-1,10
 360 174 360 174 360 251 c 128,-1,11
 360 328 360 328 339.5 363 c 128,-1,12
 319 398 319 398 266 398 c 128,-1,13
 213 398 213 398 192.5 363 c 128,-1,14
 172 328 172 328 172 251 c 128,-1,15
 172 174 172 174 192.5 138 c 128,-1,8
 213 102 213 102 266 102 c 128,-1,9
126 597 m 1,16,-1
 126 697 l 1,17,-1
 413 697 l 1,18,-1
 413 597 l 1,19,-1
 126 597 l 1,16,-1
EndSplineSet
EndChar

StartChar: Obreve
Encoding: 334 334 265
Width: 652
GlyphClass: 2
Flags: W
LayerCount: 2
Fore
SplineSet
326 108 m 128,-1,1
 407 108 407 108 436.5 160.5 c 128,-1,2
 466 213 466 213 466 336.5 c 128,-1,3
 466 460 466 460 436 516 c 128,-1,4
 406 572 406 572 326 572 c 128,-1,5
 246 572 246 572 216 516 c 128,-1,6
 186 460 186 460 186 336.5 c 128,-1,7
 186 213 186 213 215.5 160.5 c 128,-1,0
 245 108 245 108 326 108 c 128,-1,1
326 -12 m 128,-1,9
 171 -12 171 -12 107.5 72.5 c 128,-1,10
 44 157 44 157 44 337 c 128,-1,11
 44 517 44 517 107.5 604.5 c 128,-1,12
 171 692 171 692 326 692 c 128,-1,13
 481 692 481 692 544.5 604.5 c 128,-1,14
 608 517 608 517 608 337 c 128,-1,15
 608 157 608 157 544.5 72.5 c 128,-1,8
 481 -12 481 -12 326 -12 c 128,-1,9
283 869 m 128,-1,17
 300 853 300 853 327.5 853 c 128,-1,18
 355 853 355 853 372.5 869 c 128,-1,19
 390 885 390 885 393 910 c 1,20,-1
 514 910 l 1,21,22
 506 842 506 842 459.5 800.5 c 128,-1,23
 413 759 413 759 327 759 c 128,-1,24
 241 759 241 759 195 800.5 c 128,-1,25
 149 842 149 842 141 910 c 1,26,-1
 262 910 l 1,27,16
 266 885 266 885 283 869 c 128,-1,17
EndSplineSet
Position2: "'cpsp' Capital Spacing in Latin lookup 0 subtable" dx=5 dy=0 dh=10 dv=0
EndChar

StartChar: obreve
Encoding: 335 335 266
Width: 532
GlyphClass: 2
Flags: W
LayerCount: 2
Fore
SplineSet
266 512 m 128,-1,1
 390 512 390 512 443 443.5 c 128,-1,2
 496 375 496 375 496 251 c 0,3,4
 496 -12 496 -12 266 -12 c 128,-1,5
 36 -12 36 -12 36 251 c 0,6,7
 36 375 36 375 89 443.5 c 128,-1,0
 142 512 142 512 266 512 c 128,-1,1
266 102 m 128,-1,9
 319 102 319 102 339.5 138 c 128,-1,10
 360 174 360 174 360 251 c 128,-1,11
 360 328 360 328 339.5 363 c 128,-1,12
 319 398 319 398 266 398 c 128,-1,13
 213 398 213 398 192.5 363 c 128,-1,14
 172 328 172 328 172 251 c 128,-1,15
 172 174 172 174 192.5 138 c 128,-1,8
 213 102 213 102 266 102 c 128,-1,9
268 664 m 0,16,17
 324 664 324 664 331 730 c 1,18,-1
 432 730 l 1,19,20
 424 665 424 665 381.5 619 c 128,-1,21
 339 573 339 573 268 573 c 128,-1,22
 197 573 197 573 154.5 619 c 128,-1,23
 112 665 112 665 104 730 c 1,24,-1
 205 730 l 1,25,26
 209 699 209 699 225.5 681.5 c 128,-1,27
 242 664 242 664 268 664 c 0,16,17
EndSplineSet
EndChar

StartChar: Ohungarumlaut
Encoding: 336 336 267
Width: 652
GlyphClass: 2
Flags: W
LayerCount: 2
Fore
SplineSet
326 108 m 128,-1,1
 407 108 407 108 436.5 160.5 c 128,-1,2
 466 213 466 213 466 336.5 c 128,-1,3
 466 460 466 460 436 516 c 128,-1,4
 406 572 406 572 326 572 c 128,-1,5
 246 572 246 572 216 516 c 128,-1,6
 186 460 186 460 186 336.5 c 128,-1,7
 186 213 186 213 215.5 160.5 c 128,-1,0
 245 108 245 108 326 108 c 128,-1,1
326 -12 m 128,-1,9
 171 -12 171 -12 107.5 72.5 c 128,-1,10
 44 157 44 157 44 337 c 128,-1,11
 44 517 44 517 107.5 604.5 c 128,-1,12
 171 692 171 692 326 692 c 128,-1,13
 481 692 481 692 544.5 604.5 c 128,-1,14
 608 517 608 517 608 337 c 128,-1,15
 608 157 608 157 544.5 72.5 c 128,-1,8
 481 -12 481 -12 326 -12 c 128,-1,9
366 775 m 1,16,-1
 433 972 l 1,17,-1
 549 930 l 1,18,-1
 471 739 l 1,19,-1
 366 775 l 1,16,-1
158 776 m 1,20,-1
 225 973 l 1,21,-1
 341 931 l 1,22,-1
 263 740 l 1,23,-1
 158 776 l 1,20,-1
EndSplineSet
Position2: "'cpsp' Capital Spacing in Latin lookup 0 subtable" dx=5 dy=0 dh=10 dv=0
EndChar

StartChar: ohungarumlaut
Encoding: 337 337 268
Width: 532
GlyphClass: 2
Flags: W
LayerCount: 2
Fore
SplineSet
266 512 m 128,-1,1
 390 512 390 512 443 443.5 c 128,-1,2
 496 375 496 375 496 251 c 0,3,4
 496 -12 496 -12 266 -12 c 128,-1,5
 36 -12 36 -12 36 251 c 0,6,7
 36 375 36 375 89 443.5 c 128,-1,0
 142 512 142 512 266 512 c 128,-1,1
266 102 m 128,-1,9
 319 102 319 102 339.5 138 c 128,-1,10
 360 174 360 174 360 251 c 128,-1,11
 360 328 360 328 339.5 363 c 128,-1,12
 319 398 319 398 266 398 c 128,-1,13
 213 398 213 398 192.5 363 c 128,-1,14
 172 328 172 328 172 251 c 128,-1,15
 172 174 172 174 192.5 138 c 128,-1,8
 213 102 213 102 266 102 c 128,-1,9
257 628 m 1,16,-1
 374 818 l 1,17,-1
 483 751 l 1,18,-1
 358 563 l 1,19,-1
 257 628 l 1,16,-1
53 628 m 1,20,-1
 170 817 l 1,21,-1
 279 751 l 1,22,-1
 154 563 l 1,23,-1
 53 628 l 1,20,-1
EndSplineSet
EndChar

StartChar: OE
Encoding: 338 338 269
Width: 902
GlyphClass: 2
Flags: W
LayerCount: 2
Fore
SplineSet
861 0 m 1,0,-1
 425 0 l 1,1,2
 349 -12 349 -12 306 -12 c 0,3,4
 155 -12 155 -12 100.5 71.5 c 128,-1,5
 46 155 46 155 46 348 c 128,-1,6
 46 541 46 541 104.5 621.5 c 128,-1,7
 163 702 163 702 306 702 c 0,8,9
 349 702 349 702 423 690 c 1,10,-1
 861 690 l 1,11,-1
 861 558 l 1,12,-1
 559 558 l 1,13,-1
 559 415 l 1,14,-1
 801 415 l 1,15,-1
 801 284 l 1,16,-1
 559 284 l 1,17,-1
 559 132 l 1,18,-1
 861 132 l 1,19,-1
 861 0 l 1,0,-1
330 124 m 0,20,21
 355 124 355 124 423 130 c 1,22,-1
 423 560 l 1,23,24
 353 566 353 566 312 566 c 128,-1,25
 271 566 271 566 242.5 548.5 c 128,-1,26
 214 531 214 531 201 483.5 c 128,-1,27
 188 436 188 436 188 325 c 128,-1,28
 188 214 188 214 215.5 169 c 128,-1,29
 243 124 243 124 330 124 c 0,20,21
EndSplineSet
Position2: "'cpsp' Capital Spacing in Latin lookup 0 subtable" dx=5 dy=0 dh=10 dv=0
EndChar

StartChar: oe
Encoding: 339 339 270
Width: 834
GlyphClass: 2
Flags: W
LayerCount: 2
Fore
SplineSet
519 130 m 128,-1,1
 542 111 542 111 587 111 c 0,2,3
 655 111 655 111 753 118 c 2,4,-1
 781 120 l 1,5,-1
 783 16 l 1,6,7
 668 -12 668 -12 567.5 -12 c 128,-1,8
 467 -12 467 -12 422 56 c 1,9,10
 374 -12 374 -12 258 -12 c 128,-1,11
 142 -12 142 -12 89 57 c 128,-1,12
 36 126 36 126 36 250 c 128,-1,13
 36 374 36 374 89 442.5 c 128,-1,14
 142 511 142 511 266 511 c 0,15,16
 324 511 324 511 363 492.5 c 128,-1,17
 402 474 402 474 428 430 c 1,18,19
 454 475 454 475 491.5 493 c 128,-1,20
 529 511 529 511 581 511 c 0,21,22
 799 511 799 511 799 286 c 1,23,-1
 789 192 l 1,24,-1
 495 192 l 1,25,0
 496 149 496 149 519 130 c 128,-1,1
266 109 m 128,-1,27
 319 109 319 109 339.5 143 c 128,-1,28
 360 177 360 177 360 250 c 128,-1,29
 360 323 360 323 339.5 356.5 c 128,-1,30
 319 390 319 390 266 390 c 128,-1,31
 213 390 213 390 192.5 356.5 c 128,-1,32
 172 323 172 323 172 250 c 128,-1,33
 172 177 172 177 192.5 143 c 128,-1,26
 213 109 213 109 266 109 c 128,-1,27
494 295 m 1,34,-1
 667 295 l 1,35,36
 667 348 667 348 647.5 370 c 128,-1,37
 628 392 628 392 581 392 c 128,-1,38
 534 392 534 392 514 368.5 c 128,-1,39
 494 345 494 345 494 295 c 1,34,-1
EndSplineSet
EndChar

StartChar: Racute
Encoding: 340 340 271
Width: 620
GlyphClass: 2
Flags: W
LayerCount: 2
Fore
SplineSet
212 228 m 1,0,-1
 212 0 l 1,1,-1
 74 0 l 1,2,-1
 74 680 l 1,3,-1
 338 680 l 2,4,5
 578 680 578 680 578 456 c 0,6,7
 578 323 578 323 478 260 c 1,8,-1
 575 0 l 1,9,-1
 424 0 l 1,10,-1
 345 228 l 1,11,-1
 212 228 l 1,0,-1
411.5 533 m 128,-1,13
 386 562 386 562 338 562 c 2,14,-1
 212 562 l 1,15,-1
 212 346 l 1,16,-1
 340 346 l 2,17,18
 389 346 389 346 413 376 c 128,-1,19
 437 406 437 406 437 455 c 128,-1,12
 437 504 437 504 411.5 533 c 128,-1,13
170 839 m 1,20,-1
 422 945 l 1,21,-1
 463 825 l 1,22,-1
 203 746 l 1,23,-1
 170 839 l 1,20,-1
EndSplineSet
Position2: "'cpsp' Capital Spacing in Latin lookup 0 subtable" dx=5 dy=0 dh=10 dv=0
EndChar

StartChar: racute
Encoding: 341 341 272
Width: 372
GlyphClass: 2
Flags: W
LayerCount: 2
Fore
SplineSet
62 0 m 1,0,-1
 62 500 l 1,1,-1
 195 500 l 1,2,-1
 195 447 l 1,3,4
 279 497 279 497 355 512 c 1,5,-1
 355 377 l 1,6,7
 274 360 274 360 216 342 c 1,8,-1
 196 335 l 1,9,-1
 196 0 l 1,10,-1
 62 0 l 1,0,-1
48 651 m 1,11,-1
 300 753 l 1,12,-1
 340 638 l 1,13,-1
 78 564 l 1,14,-1
 48 651 l 1,11,-1
EndSplineSet
EndChar

StartChar: Rcommaaccent
Encoding: 342 342 273
Width: 620
GlyphClass: 2
Flags: W
LayerCount: 2
Fore
SplineSet
211 -311 m 1,0,-1
 257 -77 l 1,1,-1
 387 -77 l 1,2,-1
 332 -311 l 1,3,-1
 211 -311 l 1,0,-1
212 228 m 1,4,-1
 212 0 l 1,5,-1
 74 0 l 1,6,-1
 74 680 l 1,7,-1
 338 680 l 2,8,9
 578 680 578 680 578 456 c 0,10,11
 578 323 578 323 478 260 c 1,12,-1
 575 0 l 1,13,-1
 424 0 l 1,14,-1
 345 228 l 1,15,-1
 212 228 l 1,4,-1
413 376 m 128,-1,17
 437 406 437 406 437 455 c 128,-1,18
 437 504 437 504 411.5 533 c 128,-1,19
 386 562 386 562 338 562 c 2,20,-1
 212 562 l 1,21,-1
 212 346 l 1,22,-1
 340 346 l 2,23,16
 389 346 389 346 413 376 c 128,-1,17
EndSplineSet
Position2: "'cpsp' Capital Spacing in Latin lookup 0 subtable" dx=5 dy=0 dh=10 dv=0
EndChar

StartChar: rcommaaccent
Encoding: 343 343 274
Width: 372
GlyphClass: 2
Flags: W
LayerCount: 2
Fore
SplineSet
62 -77 m 1,0,-1
 192 -77 l 1,1,-1
 137 -311 l 1,2,-1
 16 -311 l 1,3,-1
 62 -77 l 1,0,-1
62 0 m 1,4,-1
 62 500 l 1,5,-1
 195 500 l 1,6,-1
 195 447 l 1,7,8
 279 497 279 497 355 512 c 1,9,-1
 355 377 l 1,10,11
 274 360 274 360 216 342 c 1,12,-1
 196 335 l 1,13,-1
 196 0 l 1,14,-1
 62 0 l 1,4,-1
EndSplineSet
EndChar

StartChar: Rcaron
Encoding: 344 344 275
Width: 620
GlyphClass: 2
Flags: W
LayerCount: 2
Fore
SplineSet
212 228 m 1,0,-1
 212 0 l 1,1,-1
 74 0 l 1,2,-1
 74 680 l 1,3,-1
 338 680 l 2,4,5
 578 680 578 680 578 456 c 0,6,7
 578 323 578 323 478 260 c 1,8,-1
 575 0 l 1,9,-1
 424 0 l 1,10,-1
 345 228 l 1,11,-1
 212 228 l 1,0,-1
413 376 m 128,-1,13
 437 406 437 406 437 455 c 128,-1,14
 437 504 437 504 411.5 533 c 128,-1,15
 386 562 386 562 338 562 c 2,16,-1
 212 562 l 1,17,-1
 212 346 l 1,18,-1
 340 346 l 2,19,12
 389 346 389 346 413 376 c 128,-1,13
241 765 m 1,20,-1
 107 914 l 1,21,-1
 249 914 l 1,22,-1
 301 858 l 1,23,-1
 350 914 l 1,24,-1
 492 914 l 1,25,-1
 358 765 l 1,26,-1
 241 765 l 1,20,-1
EndSplineSet
Position2: "'cpsp' Capital Spacing in Latin lookup 0 subtable" dx=5 dy=0 dh=10 dv=0
EndChar

StartChar: rcaron
Encoding: 345 345 276
Width: 372
GlyphClass: 2
Flags: W
LayerCount: 2
Fore
SplineSet
62 0 m 1,0,-1
 62 500 l 1,1,-1
 195 500 l 1,2,-1
 195 447 l 1,3,4
 279 497 279 497 355 512 c 1,5,-1
 355 377 l 1,6,7
 274 360 274 360 216 342 c 1,8,-1
 196 335 l 1,9,-1
 196 0 l 1,10,-1
 62 0 l 1,0,-1
131 580 m 1,11,-1
 5 731 l 1,12,-1
 128 731 l 1,13,-1
 174 664 l 1,14,-1
 220 731 l 1,15,-1
 343 731 l 1,16,-1
 215 580 l 1,17,-1
 131 580 l 1,11,-1
EndSplineSet
EndChar

StartChar: Sacute
Encoding: 346 346 277
Width: 544
GlyphClass: 2
Flags: W
LayerCount: 2
Fore
SplineSet
283 572 m 0,0,1
 174 572 174 572 174 500 c 0,2,3
 174 468 174 468 201 451 c 128,-1,4
 228 434 228 434 327.5 402 c 128,-1,5
 427 370 427 370 467 329.5 c 128,-1,6
 507 289 507 289 507 205 c 0,7,8
 507 98 507 98 442 43 c 128,-1,9
 377 -12 377 -12 272 -12 c 0,10,11
 194 -12 194 -12 81 12 c 1,12,-1
 45 19 l 1,13,-1
 59 126 l 1,14,15
 193 108 193 108 264 108 c 0,16,17
 370 108 370 108 370 196 c 0,18,19
 370 228 370 228 345.5 246 c 128,-1,20
 321 264 321 264 248 285 c 0,21,22
 132 318 132 318 84.5 363.5 c 128,-1,23
 37 409 37 409 37 490 c 0,24,25
 37 592 37 592 99 642 c 128,-1,26
 161 692 161 692 269 692 c 0,27,28
 343 692 343 692 457 672 c 1,29,-1
 493 665 l 1,30,-1
 482 556 l 1,31,32
 341 572 341 572 283 572 c 0,0,1
144 839 m 1,33,-1
 396 945 l 1,34,-1
 437 825 l 1,35,-1
 177 746 l 1,36,-1
 144 839 l 1,33,-1
EndSplineSet
Position2: "'cpsp' Capital Spacing in Latin lookup 0 subtable" dx=5 dy=0 dh=10 dv=0
EndChar

StartChar: sacute
Encoding: 347 347 278
Width: 472
GlyphClass: 2
Flags: W
LayerCount: 2
Fore
SplineSet
421 375 m 1,0,1
 297 391 297 391 247.5 391 c 128,-1,2
 198 391 198 391 183.5 382 c 128,-1,3
 169 373 169 373 169 353.5 c 128,-1,4
 169 334 169 334 188.5 326.5 c 128,-1,5
 208 319 208 319 288.5 304.5 c 128,-1,6
 369 290 369 290 403 257 c 128,-1,7
 437 224 437 224 437 150 c 0,8,9
 437 -12 437 -12 236 -12 c 0,10,11
 170 -12 170 -12 76 6 c 2,12,-1
 44 12 l 1,13,-1
 48 124 l 1,14,15
 172 108 172 108 220.5 108 c 128,-1,16
 269 108 269 108 286.5 117.5 c 128,-1,17
 304 127 304 127 304 146 c 128,-1,18
 304 165 304 165 285.5 174 c 128,-1,19
 267 183 267 183 189.5 196 c 128,-1,20
 112 209 112 209 74 240 c 128,-1,21
 36 271 36 271 36 350.5 c 128,-1,22
 36 430 36 430 90 470.5 c 128,-1,23
 144 511 144 511 229 511 c 0,24,25
 288 511 288 511 390 492 c 2,26,-1
 423 486 l 1,27,-1
 421 375 l 1,0,1
91 651 m 1,28,-1
 343 753 l 1,29,-1
 383 638 l 1,30,-1
 121 564 l 1,31,-1
 91 651 l 1,28,-1
EndSplineSet
EndChar

StartChar: Scircumflex
Encoding: 348 348 279
Width: 544
GlyphClass: 2
Flags: W
LayerCount: 2
Fore
SplineSet
283 572 m 0,0,1
 174 572 174 572 174 500 c 0,2,3
 174 468 174 468 201 451 c 128,-1,4
 228 434 228 434 327.5 402 c 128,-1,5
 427 370 427 370 467 329.5 c 128,-1,6
 507 289 507 289 507 205 c 0,7,8
 507 98 507 98 442 43 c 128,-1,9
 377 -12 377 -12 272 -12 c 0,10,11
 194 -12 194 -12 81 12 c 1,12,-1
 45 19 l 1,13,-1
 59 126 l 1,14,15
 193 108 193 108 264 108 c 0,16,17
 370 108 370 108 370 196 c 0,18,19
 370 228 370 228 345.5 246 c 128,-1,20
 321 264 321 264 248 285 c 0,21,22
 132 318 132 318 84.5 363.5 c 128,-1,23
 37 409 37 409 37 490 c 0,24,25
 37 592 37 592 99 642 c 128,-1,26
 161 692 161 692 269 692 c 0,27,28
 343 692 343 692 457 672 c 1,29,-1
 493 665 l 1,30,-1
 482 556 l 1,31,32
 341 572 341 572 283 572 c 0,0,1
84 765 m 1,33,-1
 218 914 l 1,34,-1
 335 914 l 1,35,-1
 469 765 l 1,36,-1
 327 765 l 1,37,-1
 278 821 l 1,38,-1
 226 765 l 1,39,-1
 84 765 l 1,33,-1
EndSplineSet
Position2: "'cpsp' Capital Spacing in Latin lookup 0 subtable" dx=5 dy=0 dh=10 dv=0
EndChar

StartChar: scircumflex
Encoding: 349 349 280
Width: 472
GlyphClass: 2
Flags: W
LayerCount: 2
Fore
SplineSet
421 375 m 1,0,1
 297 391 297 391 247.5 391 c 128,-1,2
 198 391 198 391 183.5 382 c 128,-1,3
 169 373 169 373 169 353.5 c 128,-1,4
 169 334 169 334 188.5 326.5 c 128,-1,5
 208 319 208 319 288.5 304.5 c 128,-1,6
 369 290 369 290 403 257 c 128,-1,7
 437 224 437 224 437 150 c 0,8,9
 437 -12 437 -12 236 -12 c 0,10,11
 170 -12 170 -12 76 6 c 2,12,-1
 44 12 l 1,13,-1
 48 124 l 1,14,15
 172 108 172 108 220.5 108 c 128,-1,16
 269 108 269 108 286.5 117.5 c 128,-1,17
 304 127 304 127 304 146 c 128,-1,18
 304 165 304 165 285.5 174 c 128,-1,19
 267 183 267 183 189.5 196 c 128,-1,20
 112 209 112 209 74 240 c 128,-1,21
 36 271 36 271 36 350.5 c 128,-1,22
 36 430 36 430 90 470.5 c 128,-1,23
 144 511 144 511 229 511 c 0,24,25
 288 511 288 511 390 492 c 2,26,-1
 423 486 l 1,27,-1
 421 375 l 1,0,1
68 580 m 1,28,-1
 194 731 l 1,29,-1
 278 731 l 1,30,-1
 406 580 l 1,31,-1
 283 580 l 1,32,-1
 237 647 l 1,33,-1
 191 580 l 1,34,-1
 68 580 l 1,28,-1
EndSplineSet
EndChar

StartChar: Scedilla
Encoding: 350 350 281
Width: 544
GlyphClass: 2
Flags: W
LayerCount: 2
Fore
SplineSet
404.5 -56 m 128,-1,1
 434 -74 434 -74 434 -129 c 128,-1,2
 434 -184 434 -184 405 -212.5 c 128,-1,3
 376 -241 376 -241 323 -241 c 0,4,5
 279 -241 279 -241 244 -233 c 2,6,-1
 230 -230 l 1,7,-1
 234 -152 l 1,8,9
 265 -153 265 -153 282 -153 c 0,10,11
 320 -153 320 -153 320 -127 c 0,12,13
 320 -105 320 -105 282 -105 c 2,14,-1
 258 -105 l 1,15,-1
 258 -12 l 1,16,17
 182 -10 182 -10 78 12 c 2,18,-1
 45 19 l 1,19,-1
 59 126 l 1,20,21
 193 108 193 108 264 108 c 0,22,23
 370 108 370 108 370 196 c 0,24,25
 370 228 370 228 345.5 246 c 128,-1,26
 321 264 321 264 248 285 c 0,27,28
 132 318 132 318 84.5 363.5 c 128,-1,29
 37 409 37 409 37 490 c 0,30,31
 37 592 37 592 99 642 c 128,-1,32
 161 692 161 692 269 692 c 0,33,34
 343 692 343 692 457 672 c 1,35,-1
 493 665 l 1,36,-1
 482 556 l 1,37,38
 341 572 341 572 283 572 c 0,39,40
 174 572 174 572 174 500 c 0,41,42
 174 468 174 468 201 451 c 128,-1,43
 228 434 228 434 327.5 402 c 128,-1,44
 427 370 427 370 467 329.5 c 128,-1,45
 507 289 507 289 507 199 c 128,-1,46
 507 109 507 109 453.5 54 c 128,-1,47
 400 -1 400 -1 311 -10 c 1,48,-1
 311 -37 l 1,49,0
 375 -38 375 -38 404.5 -56 c 128,-1,1
EndSplineSet
Substitution2: "'locl' Localized Forms in Latin lookup 0 subtable" Scommaaccent
Position2: "'cpsp' Capital Spacing in Latin lookup 0 subtable" dx=5 dy=0 dh=10 dv=0
EndChar

StartChar: scedilla
Encoding: 351 351 282
Width: 472
GlyphClass: 2
Flags: W
LayerCount: 2
Fore
SplineSet
349.5 -56 m 128,-1,1
 379 -74 379 -74 379 -129 c 128,-1,2
 379 -184 379 -184 350 -212.5 c 128,-1,3
 321 -241 321 -241 268 -241 c 0,4,5
 225 -241 225 -241 188 -233 c 2,6,-1
 175 -230 l 1,7,-1
 179 -152 l 1,8,9
 210 -153 210 -153 227 -153 c 0,10,11
 265 -153 265 -153 265 -127 c 0,12,13
 265 -105 265 -105 227 -105 c 2,14,-1
 203 -105 l 1,15,-1
 203 -10 l 1,16,17
 140 -6 140 -6 68 8 c 1,18,-1
 44 12 l 1,19,-1
 48 124 l 1,20,21
 172 108 172 108 220.5 108 c 128,-1,22
 269 108 269 108 286.5 117.5 c 128,-1,23
 304 127 304 127 304 146 c 128,-1,24
 304 165 304 165 285.5 174 c 128,-1,25
 267 183 267 183 189.5 196 c 128,-1,26
 112 209 112 209 74 240 c 128,-1,27
 36 271 36 271 36 350.5 c 128,-1,28
 36 430 36 430 90 470.5 c 128,-1,29
 144 511 144 511 229 511 c 0,30,31
 288 511 288 511 390 492 c 2,32,-1
 423 486 l 1,33,-1
 421 375 l 1,34,35
 297 391 297 391 247.5 391 c 128,-1,36
 198 391 198 391 183.5 382 c 128,-1,37
 169 373 169 373 169 353.5 c 128,-1,38
 169 334 169 334 188.5 326.5 c 128,-1,39
 208 319 208 319 288.5 304.5 c 128,-1,40
 369 290 369 290 403 257 c 128,-1,41
 437 224 437 224 437 150 c 0,42,43
 437 -5 437 -5 256 -11 c 1,44,-1
 256 -37 l 1,45,0
 320 -38 320 -38 349.5 -56 c 128,-1,1
EndSplineSet
Substitution2: "'locl' Localized Forms in Latin lookup 0 subtable" scommaaccent
EndChar

StartChar: Scaron
Encoding: 352 352 283
Width: 544
GlyphClass: 2
Flags: W
LayerCount: 2
Fore
SplineSet
283 572 m 0,0,1
 174 572 174 572 174 500 c 0,2,3
 174 468 174 468 201 451 c 128,-1,4
 228 434 228 434 327.5 402 c 128,-1,5
 427 370 427 370 467 329.5 c 128,-1,6
 507 289 507 289 507 205 c 0,7,8
 507 98 507 98 442 43 c 128,-1,9
 377 -12 377 -12 272 -12 c 0,10,11
 194 -12 194 -12 81 12 c 1,12,-1
 45 19 l 1,13,-1
 59 126 l 1,14,15
 193 108 193 108 264 108 c 0,16,17
 370 108 370 108 370 196 c 0,18,19
 370 228 370 228 345.5 246 c 128,-1,20
 321 264 321 264 248 285 c 0,21,22
 132 318 132 318 84.5 363.5 c 128,-1,23
 37 409 37 409 37 490 c 0,24,25
 37 592 37 592 99 642 c 128,-1,26
 161 692 161 692 269 692 c 0,27,28
 343 692 343 692 457 672 c 1,29,-1
 493 665 l 1,30,-1
 482 556 l 1,31,32
 341 572 341 572 283 572 c 0,0,1
235 765 m 1,33,-1
 101 914 l 1,34,-1
 243 914 l 1,35,-1
 295 858 l 1,36,-1
 344 914 l 1,37,-1
 486 914 l 1,38,-1
 352 765 l 1,39,-1
 235 765 l 1,33,-1
EndSplineSet
Position2: "'cpsp' Capital Spacing in Latin lookup 0 subtable" dx=5 dy=0 dh=10 dv=0
EndChar

StartChar: scaron
Encoding: 353 353 284
Width: 472
GlyphClass: 2
Flags: W
LayerCount: 2
Fore
SplineSet
421 375 m 1,0,1
 297 391 297 391 247.5 391 c 128,-1,2
 198 391 198 391 183.5 382 c 128,-1,3
 169 373 169 373 169 353.5 c 128,-1,4
 169 334 169 334 188.5 326.5 c 128,-1,5
 208 319 208 319 288.5 304.5 c 128,-1,6
 369 290 369 290 403 257 c 128,-1,7
 437 224 437 224 437 150 c 0,8,9
 437 -12 437 -12 236 -12 c 0,10,11
 170 -12 170 -12 76 6 c 2,12,-1
 44 12 l 1,13,-1
 48 124 l 1,14,15
 172 108 172 108 220.5 108 c 128,-1,16
 269 108 269 108 286.5 117.5 c 128,-1,17
 304 127 304 127 304 146 c 128,-1,18
 304 165 304 165 285.5 174 c 128,-1,19
 267 183 267 183 189.5 196 c 128,-1,20
 112 209 112 209 74 240 c 128,-1,21
 36 271 36 271 36 350.5 c 128,-1,22
 36 430 36 430 90 470.5 c 128,-1,23
 144 511 144 511 229 511 c 0,24,25
 288 511 288 511 390 492 c 2,26,-1
 423 486 l 1,27,-1
 421 375 l 1,0,1
203 580 m 1,28,-1
 77 731 l 1,29,-1
 200 731 l 1,30,-1
 246 664 l 1,31,-1
 292 731 l 1,32,-1
 415 731 l 1,33,-1
 287 580 l 1,34,-1
 203 580 l 1,28,-1
EndSplineSet
EndChar

StartChar: tcedilla
Encoding: 355 355 286
Width: 364
GlyphClass: 2
Flags: W
LayerCount: 2
Fore
SplineSet
254.5 -56 m 128,-1,1
 284 -74 284 -74 284 -129 c 128,-1,2
 284 -184 284 -184 255 -212.5 c 128,-1,3
 226 -241 226 -241 173 -241 c 0,4,5
 129 -241 129 -241 94 -233 c 2,6,-1
 80 -230 l 1,7,-1
 84 -152 l 1,8,9
 115 -153 115 -153 132 -153 c 0,10,11
 170 -153 170 -153 170 -127 c 0,12,13
 170 -105 170 -105 132 -105 c 2,14,-1
 108 -105 l 1,15,-1
 108 1 l 1,16,-1
 153 1 l 1,17,18
 113 17 113 17 97.5 58 c 128,-1,19
 82 99 82 99 82 178 c 2,20,-1
 82 386 l 1,21,-1
 23 386 l 1,22,-1
 23 500 l 1,23,-1
 82 500 l 1,24,-1
 82 639 l 1,25,-1
 216 639 l 1,26,-1
 216 500 l 1,27,-1
 339 500 l 1,28,-1
 339 386 l 1,29,-1
 216 386 l 1,30,-1
 216 181 l 2,31,32
 216 151 216 151 217.5 138.5 c 128,-1,33
 219 126 219 126 228.5 117 c 128,-1,34
 238 108 238 108 258 108 c 2,35,-1
 334 110 l 1,36,-1
 340 3 l 1,37,38
 273 -12 273 -12 231.5 -12 c 128,-1,39
 190 -12 190 -12 161 -2 c 1,40,-1
 161 -37 l 1,41,0
 225 -38 225 -38 254.5 -56 c 128,-1,1
EndSplineSet
Substitution2: "'locl' Localized Forms in Latin lookup 0 subtable" tcommaaccent
EndChar

StartChar: Tcaron
Encoding: 356 356 287
Width: 526
GlyphClass: 2
Flags: W
LayerCount: 2
Fore
SplineSet
13 558 m 1,0,-1
 13 680 l 1,1,-1
 513 680 l 1,2,-1
 513 558 l 1,3,-1
 333 558 l 1,4,-1
 333 0 l 1,5,-1
 195 0 l 1,6,-1
 195 558 l 1,7,-1
 13 558 l 1,0,-1
206 765 m 1,8,-1
 72 914 l 1,9,-1
 214 914 l 1,10,-1
 266 858 l 1,11,-1
 315 914 l 1,12,-1
 457 914 l 1,13,-1
 323 765 l 1,14,-1
 206 765 l 1,8,-1
EndSplineSet
Position2: "'cpsp' Capital Spacing in Latin lookup 0 subtable" dx=5 dy=0 dh=10 dv=0
EndChar

StartChar: tcaron
Encoding: 357 357 288
Width: 487
GlyphClass: 2
Flags: W
LayerCount: 2
Fore
SplineSet
340 378 m 1,0,-1
 217 378 l 1,1,-1
 217 189 l 2,2,3
 217 159 217 159 218.5 146.5 c 128,-1,4
 220 134 220 134 229.5 125 c 128,-1,5
 239 116 239 116 259 116 c 2,6,-1
 335 118 l 1,7,-1
 341 3 l 1,8,9
 274 -12 274 -12 239 -12 c 0,10,11
 149 -12 149 -12 116 28.5 c 128,-1,12
 83 69 83 69 83 178 c 2,13,-1
 83 378 l 1,14,-1
 24 378 l 1,15,-1
 24 499 l 1,16,-1
 83 499 l 1,17,-1
 83 639 l 1,18,-1
 217 639 l 1,19,-1
 217 499 l 1,20,-1
 340 499 l 1,21,-1
 340 378 l 1,0,-1
506 690 m 1,22,-1
 506 430 l 1,23,-1
 376 430 l 1,24,-1
 376 690 l 1,25,-1
 506 690 l 1,22,-1
EndSplineSet
EndChar

StartChar: Tbar
Encoding: 358 358 289
Width: 528
GlyphClass: 2
Flags: W
LayerCount: 2
Fore
SplineSet
14 558 m 1,0,-1
 14 680 l 1,1,-1
 514 680 l 1,2,-1
 514 558 l 1,3,-1
 334 558 l 1,4,-1
 334 369 l 1,5,-1
 473 369 l 1,6,-1
 473 253 l 1,7,-1
 334 253 l 1,8,-1
 334 0 l 1,9,-1
 196 0 l 1,10,-1
 196 253 l 1,11,-1
 64 253 l 1,12,-1
 64 369 l 1,13,-1
 196 369 l 1,14,-1
 196 558 l 1,15,-1
 14 558 l 1,0,-1
EndSplineSet
Position2: "'cpsp' Capital Spacing in Latin lookup 0 subtable" dx=5 dy=0 dh=10 dv=0
EndChar

StartChar: tbar
Encoding: 359 359 290
Width: 365
GlyphClass: 2
Flags: W
LayerCount: 2
Fore
SplineSet
339 378 m 1,0,-1
 216 378 l 1,1,-1
 216 309 l 1,2,-1
 311 309 l 1,3,-1
 311 209 l 1,4,-1
 216 209 l 1,5,-1
 216 189 l 2,6,7
 216 159 216 159 217.5 146.5 c 128,-1,8
 219 134 219 134 228.5 125 c 128,-1,9
 238 116 238 116 258 116 c 2,10,-1
 334 118 l 1,11,-1
 340 3 l 1,12,13
 273 -12 273 -12 238 -12 c 0,14,15
 148 -12 148 -12 115 28.5 c 128,-1,16
 82 69 82 69 82 178 c 2,17,-1
 82 209 l 1,18,-1
 52 209 l 1,19,-1
 52 309 l 1,20,-1
 82 309 l 1,21,-1
 82 378 l 1,22,-1
 23 378 l 1,23,-1
 23 499 l 1,24,-1
 82 499 l 1,25,-1
 82 639 l 1,26,-1
 216 639 l 1,27,-1
 216 499 l 1,28,-1
 339 499 l 1,29,-1
 339 378 l 1,0,-1
EndSplineSet
EndChar

StartChar: Utilde
Encoding: 360 360 291
Width: 654
GlyphClass: 2
Flags: W
LayerCount: 2
Fore
SplineSet
206 227 m 2,0,1
 206 108 206 108 327 108 c 128,-1,2
 448 108 448 108 448 227 c 2,3,-1
 448 680 l 1,4,-1
 586 680 l 1,5,-1
 586 230 l 2,6,7
 586 105 586 105 521.5 46.5 c 128,-1,8
 457 -12 457 -12 327 -12 c 128,-1,9
 197 -12 197 -12 132.5 46.5 c 128,-1,10
 68 105 68 105 68 230 c 2,11,-1
 68 680 l 1,12,-1
 206 680 l 1,13,-1
 206 227 l 2,0,1
404 758 m 128,-1,15
 378 758 378 758 314.5 781 c 128,-1,16
 251 804 251 804 238 804 c 0,17,18
 213 804 213 804 171 772 c 1,19,-1
 157 762 l 1,20,-1
 128 858 l 1,21,22
 148 882 148 882 179.5 902 c 128,-1,23
 211 922 211 922 240.5 922 c 128,-1,24
 270 922 270 922 331 899 c 128,-1,25
 392 876 392 876 403 876 c 0,26,27
 426 876 426 876 470 908 c 2,28,-1
 484 918 l 1,29,-1
 513 821 l 1,30,31
 492 797 492 797 461 777.5 c 128,-1,14
 430 758 430 758 404 758 c 128,-1,15
EndSplineSet
Position2: "'cpsp' Capital Spacing in Latin lookup 0 subtable" dx=5 dy=0 dh=10 dv=0
EndChar

StartChar: utilde
Encoding: 361 361 292
Width: 553
GlyphClass: 2
Flags: W
LayerCount: 2
Fore
SplineSet
491 500 m 1,0,-1
 491 0 l 1,1,-1
 358 0 l 1,2,-1
 358 28 l 1,3,-1
 338 18 l 2,4,5
 319 8 319 8 288 -2 c 128,-1,6
 257 -12 257 -12 233 -12 c 0,7,8
 129 -12 129 -12 93 45.5 c 128,-1,9
 57 103 57 103 57 238 c 2,10,11
 57 238 57 238 57 500 c 1,12,-1
 191 500 l 1,13,-1
 191 236 l 2,14,15
 191 162 191 162 203 135 c 128,-1,16
 215 108 215 108 263 108 c 128,-1,17
 311 108 311 108 357 126 c 1,18,-1
 357 500 l 1,19,-1
 491 500 l 1,0,-1
385 602 m 128,-1,21
 357 585 357 585 334.5 585 c 128,-1,22
 312 585 312 585 266 603 c 128,-1,23
 220 621 220 621 206 621 c 0,24,25
 178 621 178 621 141 598 c 2,26,-1
 128 590 l 1,27,-1
 99 665 l 1,28,29
 119 688 119 688 149.5 706.5 c 128,-1,30
 180 725 180 725 202.5 725 c 128,-1,31
 225 725 225 725 271.5 707 c 128,-1,32
 318 689 318 689 330 689 c 0,33,34
 354 689 354 689 396 714 c 1,35,-1
 410 723 l 1,36,-1
 439 647 l 1,37,38
 433 640 433 640 423 629.5 c 128,-1,20
 413 619 413 619 385 602 c 128,-1,21
EndSplineSet
EndChar

